G04*
G04 #@! TF.GenerationSoftware,Altium Limited,Altium Designer,19.1.8 (144)*
G04*
G04 Layer_Physical_Order=2*
G04 Layer_Color=16711680*
%FSLAX23Y23*%
%MOIN*%
G70*
G01*
G75*
%ADD12C,0.010*%
%ADD50C,0.020*%
%ADD52O,0.067X0.035*%
%ADD53O,0.094X0.035*%
%ADD54O,0.026X0.024*%
%ADD55R,0.059X0.059*%
%ADD56C,0.059*%
%ADD57O,0.087X0.071*%
%ADD58C,0.047*%
%ADD59R,0.038X0.038*%
%ADD60C,0.038*%
%ADD61C,0.020*%
%ADD62C,0.020*%
G36*
X1676Y-385D02*
X-347D01*
Y385D01*
X1676D01*
Y-385D01*
D02*
G37*
%LPC*%
G36*
X1510Y300D02*
X1440D01*
Y230D01*
X1510D01*
Y300D01*
D02*
G37*
G36*
X1575Y300D02*
X1566Y299D01*
X1558Y295D01*
X1550Y290D01*
X1545Y282D01*
X1541Y274D01*
X1540Y265D01*
X1541Y256D01*
X1545Y248D01*
X1550Y240D01*
X1558Y235D01*
X1566Y231D01*
X1575Y230D01*
X1584Y231D01*
X1592Y235D01*
X1600Y240D01*
X1605Y248D01*
X1609Y256D01*
X1610Y265D01*
X1609Y274D01*
X1605Y282D01*
X1600Y290D01*
X1592Y295D01*
X1584Y299D01*
X1575Y300D01*
D02*
G37*
G36*
X-126Y196D02*
X-150D01*
Y175D01*
X-101D01*
X-101Y177D01*
X-103Y183D01*
X-107Y189D01*
X-113Y193D01*
X-119Y195D01*
X-126Y196D01*
D02*
G37*
G36*
X-160D02*
X-185D01*
X-192Y195D01*
X-198Y193D01*
X-203Y189D01*
X-207Y183D01*
X-210Y177D01*
X-210Y175D01*
X-160D01*
Y196D01*
D02*
G37*
G36*
X1563Y194D02*
X1560D01*
Y155D01*
X1606D01*
X1605Y161D01*
X1601Y172D01*
X1594Y181D01*
X1585Y188D01*
X1574Y192D01*
X1563Y194D01*
D02*
G37*
G36*
X1550D02*
X1547D01*
X1536Y192D01*
X1525Y188D01*
X1516Y181D01*
X1509Y172D01*
X1505Y161D01*
X1504Y155D01*
X1550D01*
Y194D01*
D02*
G37*
G36*
X-273Y193D02*
X-304D01*
X-313Y192D01*
X-321Y187D01*
X-326Y179D01*
X-327Y170D01*
X-326Y161D01*
X-321Y154D01*
X-313Y149D01*
X-304Y147D01*
X-273D01*
X-264Y149D01*
X-256Y154D01*
X-251Y161D01*
X-250Y170D01*
X-251Y179D01*
X-256Y187D01*
X-264Y192D01*
X-273Y193D01*
D02*
G37*
G36*
X-101Y165D02*
X-150D01*
Y144D01*
X-126D01*
X-119Y145D01*
X-113Y148D01*
X-107Y152D01*
X-103Y157D01*
X-101Y164D01*
X-101Y165D01*
D02*
G37*
G36*
X-160D02*
X-210D01*
X-210Y164D01*
X-207Y157D01*
X-203Y152D01*
X-198Y148D01*
X-192Y145D01*
X-185Y144D01*
X-160D01*
Y165D01*
D02*
G37*
G36*
X-165Y137D02*
Y122D01*
X-150D01*
X-150Y125D01*
X-155Y132D01*
X-161Y136D01*
X-165Y137D01*
D02*
G37*
G36*
X-112D02*
Y122D01*
X-97D01*
X-97Y125D01*
X-102Y132D01*
X-108Y136D01*
X-112Y137D01*
D02*
G37*
G36*
X-122D02*
X-125Y136D01*
X-132Y132D01*
X-136Y125D01*
X-137Y122D01*
X-122D01*
Y137D01*
D02*
G37*
G36*
X-175D02*
X-178Y136D01*
X-185Y132D01*
X-190Y125D01*
X-190Y122D01*
X-175D01*
Y137D01*
D02*
G37*
G36*
X1606Y145D02*
X1560D01*
Y106D01*
X1563D01*
X1574Y108D01*
X1585Y112D01*
X1594Y119D01*
X1601Y128D01*
X1605Y139D01*
X1606Y145D01*
D02*
G37*
G36*
X1550D02*
X1504D01*
X1505Y139D01*
X1509Y128D01*
X1516Y119D01*
X1525Y112D01*
X1536Y108D01*
X1547Y106D01*
X1550D01*
Y145D01*
D02*
G37*
G36*
X945Y165D02*
X-18D01*
X-24Y164D01*
X-28Y161D01*
X-90Y99D01*
X-99D01*
X-101Y104D01*
X-97Y109D01*
X-97Y112D01*
X-117D01*
X-137D01*
X-136Y109D01*
X-132Y103D01*
X-130Y101D01*
Y98D01*
X-130Y95D01*
X-134Y90D01*
X-135Y84D01*
X-134Y77D01*
X-130Y71D01*
X-128Y70D01*
Y64D01*
X-130Y63D01*
X-134Y57D01*
X-135Y50D01*
X-134Y43D01*
X-130Y38D01*
X-128Y36D01*
Y30D01*
X-130Y29D01*
X-134Y23D01*
X-135Y17D01*
X-148Y9D01*
X-153Y12D01*
X-152Y17D01*
X-153Y23D01*
X-157Y29D01*
X-159Y30D01*
Y36D01*
X-157Y38D01*
X-153Y43D01*
X-152Y50D01*
X-153Y57D01*
X-157Y63D01*
X-159Y64D01*
Y70D01*
X-157Y71D01*
X-153Y77D01*
X-152Y84D01*
X-153Y90D01*
X-156Y95D01*
X-157Y98D01*
Y101D01*
X-155Y103D01*
X-150Y109D01*
X-150Y112D01*
X-170D01*
Y117D01*
D01*
Y112D01*
X-190D01*
X-190Y109D01*
X-185Y103D01*
X-183Y101D01*
Y98D01*
X-183Y95D01*
X-187Y90D01*
X-188Y84D01*
X-187Y77D01*
X-183Y71D01*
X-181Y70D01*
Y64D01*
X-183Y63D01*
X-187Y57D01*
X-188Y50D01*
X-187Y43D01*
X-183Y38D01*
X-181Y36D01*
Y30D01*
X-183Y29D01*
X-187Y23D01*
X-188Y17D01*
X-187Y10D01*
X-183Y4D01*
X-181Y3D01*
Y-3D01*
X-183Y-4D01*
X-187Y-10D01*
X-188Y-17D01*
X-187Y-23D01*
X-183Y-29D01*
X-181Y-30D01*
Y-36D01*
X-181Y-37D01*
X-183Y-38D01*
X-184Y-40D01*
X-184Y-40D01*
X-201D01*
X-205Y-41D01*
X-208Y-43D01*
X-234Y-69D01*
X-236Y-73D01*
X-237Y-77D01*
Y-201D01*
X-236Y-205D01*
X-234Y-208D01*
X-220Y-222D01*
X-217Y-224D01*
X-213Y-225D01*
X-71D01*
X-67Y-224D01*
X-63Y-222D01*
X-56Y-215D01*
X-54Y-216D01*
X-48Y-215D01*
X-43Y-211D01*
X-40Y-206D01*
X-38Y-201D01*
X-40Y-195D01*
X-43Y-190D01*
X-48Y-187D01*
X-54Y-185D01*
X-59Y-187D01*
X-64Y-190D01*
X-68Y-195D01*
X-68Y-198D01*
X-75Y-205D01*
X-208D01*
X-217Y-196D01*
Y-81D01*
X-196Y-60D01*
X-184D01*
X-183Y-63D01*
X-181Y-64D01*
Y-70D01*
X-183Y-71D01*
X-187Y-77D01*
X-188Y-84D01*
X-187Y-90D01*
X-183Y-95D01*
X-183Y-98D01*
Y-101D01*
X-185Y-103D01*
X-190Y-109D01*
X-190Y-112D01*
X-170D01*
X-150D01*
X-150Y-109D01*
X-155Y-103D01*
X-157Y-101D01*
Y-98D01*
X-156Y-95D01*
X-153Y-90D01*
X-152Y-84D01*
X-153Y-77D01*
X-157Y-71D01*
X-159Y-70D01*
Y-64D01*
X-157Y-63D01*
X-153Y-57D01*
X-152Y-50D01*
X-153Y-43D01*
X-157Y-38D01*
X-159Y-36D01*
Y-30D01*
X-157Y-29D01*
X-153Y-23D01*
X-152Y-17D01*
X-138Y-9D01*
X-134Y-12D01*
X-135Y-17D01*
X-134Y-23D01*
X-130Y-29D01*
X-128Y-30D01*
Y-36D01*
X-130Y-38D01*
X-134Y-43D01*
X-135Y-50D01*
X-134Y-57D01*
X-130Y-63D01*
X-128Y-64D01*
Y-70D01*
X-130Y-71D01*
X-134Y-77D01*
X-135Y-84D01*
X-134Y-90D01*
X-130Y-95D01*
X-130Y-98D01*
Y-101D01*
X-132Y-103D01*
X-136Y-109D01*
X-137Y-112D01*
X-117D01*
X-97D01*
X-97Y-109D01*
X-102Y-103D01*
X-104Y-101D01*
Y-98D01*
X-103Y-95D01*
X-100Y-90D01*
X-99Y-84D01*
X-100Y-77D01*
X-104Y-71D01*
X-106Y-70D01*
Y-64D01*
X-104Y-63D01*
X-100Y-57D01*
X-99Y-50D01*
X-100Y-43D01*
X-104Y-38D01*
X-106Y-36D01*
Y-30D01*
X-104Y-29D01*
X-100Y-23D01*
X-99Y-17D01*
X-100Y-10D01*
X-104Y-4D01*
X-106Y-3D01*
Y3D01*
X-104Y4D01*
X-100Y10D01*
X-99Y17D01*
X-100Y23D01*
X-104Y29D01*
X-106Y30D01*
Y36D01*
X-104Y38D01*
X-100Y43D01*
X-99Y50D01*
X-100Y57D01*
X-104Y63D01*
X-105Y63D01*
X-103Y68D01*
X-84D01*
X-78Y70D01*
X-73Y73D01*
X-11Y135D01*
X945D01*
X951Y136D01*
X956Y139D01*
X959Y144D01*
X960Y150D01*
X959Y156D01*
X956Y161D01*
X951Y164D01*
X945Y165D01*
D02*
G37*
G36*
X603Y103D02*
X597Y102D01*
X592Y98D01*
X591Y98D01*
X421D01*
X417Y97D01*
X414Y95D01*
X361Y42D01*
X359Y38D01*
X358Y34D01*
Y-129D01*
X357Y-129D01*
X354Y-134D01*
X353Y-140D01*
X354Y-146D01*
X357Y-151D01*
X362Y-154D01*
X368Y-155D01*
X374Y-154D01*
X379Y-151D01*
X382Y-146D01*
X383Y-140D01*
X382Y-134D01*
X379Y-129D01*
X378Y-129D01*
Y30D01*
X425Y77D01*
X591D01*
X592Y77D01*
X597Y73D01*
X603Y72D01*
X609Y73D01*
X614Y77D01*
X617Y82D01*
X618Y88D01*
X617Y93D01*
X614Y98D01*
X609Y102D01*
X603Y103D01*
D02*
G37*
G36*
X104Y82D02*
X98Y81D01*
X93Y77D01*
X90Y72D01*
X89Y67D01*
X89Y66D01*
X78Y55D01*
X75Y51D01*
X75Y47D01*
Y-26D01*
X74Y-27D01*
X71Y-32D01*
X70Y-37D01*
X71Y-43D01*
X74Y-48D01*
X79Y-51D01*
X85Y-53D01*
X91Y-51D01*
X95Y-48D01*
X99Y-43D01*
X100Y-37D01*
X99Y-32D01*
X95Y-27D01*
X95Y-26D01*
Y43D01*
X103Y52D01*
X104Y51D01*
X110Y53D01*
X115Y56D01*
X118Y61D01*
X119Y67D01*
X118Y72D01*
X115Y77D01*
X110Y81D01*
X104Y82D01*
D02*
G37*
G36*
X1563Y91D02*
X1547D01*
X1537Y89D01*
X1527Y85D01*
X1518Y79D01*
X1512Y70D01*
X1508Y61D01*
X1506Y50D01*
X1508Y39D01*
X1512Y30D01*
X1518Y21D01*
X1527Y15D01*
X1537Y11D01*
X1547Y9D01*
X1563D01*
X1573Y11D01*
X1583Y15D01*
X1592Y21D01*
X1598Y30D01*
X1602Y39D01*
X1604Y50D01*
X1602Y61D01*
X1598Y70D01*
X1592Y79D01*
X1583Y85D01*
X1573Y89D01*
X1563Y91D01*
D02*
G37*
G36*
Y-9D02*
X1547D01*
X1537Y-11D01*
X1527Y-15D01*
X1518Y-21D01*
X1512Y-30D01*
X1508Y-39D01*
X1506Y-50D01*
X1508Y-61D01*
X1512Y-70D01*
X1518Y-79D01*
X1527Y-85D01*
X1537Y-89D01*
X1547Y-91D01*
X1563D01*
X1573Y-89D01*
X1583Y-85D01*
X1592Y-79D01*
X1598Y-70D01*
X1602Y-61D01*
X1604Y-50D01*
X1602Y-39D01*
X1598Y-30D01*
X1592Y-21D01*
X1583Y-15D01*
X1573Y-11D01*
X1563Y-9D01*
D02*
G37*
G36*
X-150Y-122D02*
X-165D01*
Y-137D01*
X-161Y-136D01*
X-155Y-132D01*
X-150Y-125D01*
X-150Y-122D01*
D02*
G37*
G36*
X-97D02*
X-112D01*
Y-137D01*
X-108Y-136D01*
X-102Y-132D01*
X-97Y-125D01*
X-97Y-122D01*
D02*
G37*
G36*
X-122D02*
X-137D01*
X-136Y-125D01*
X-132Y-132D01*
X-125Y-136D01*
X-122Y-137D01*
Y-122D01*
D02*
G37*
G36*
X-175D02*
X-190D01*
X-190Y-125D01*
X-185Y-132D01*
X-178Y-136D01*
X-175Y-137D01*
Y-122D01*
D02*
G37*
G36*
X1090Y-111D02*
X1083Y-112D01*
X1076Y-115D01*
X1070Y-120D01*
X1065Y-126D01*
X1062Y-132D01*
X1061Y-140D01*
X1062Y-147D01*
X1065Y-154D01*
X1070Y-160D01*
X1076Y-165D01*
X1083Y-168D01*
X1090Y-169D01*
X1097Y-168D01*
X1104Y-165D01*
X1110Y-160D01*
X1115Y-154D01*
X1118Y-147D01*
X1119Y-140D01*
X1118Y-132D01*
X1115Y-126D01*
X1110Y-120D01*
X1104Y-115D01*
X1097Y-112D01*
X1090Y-111D01*
D02*
G37*
G36*
X961D02*
X953Y-112D01*
X946Y-115D01*
X940Y-120D01*
X936Y-126D01*
X933Y-132D01*
X932Y-140D01*
X933Y-147D01*
X936Y-154D01*
X940Y-160D01*
X946Y-165D01*
X953Y-168D01*
X961Y-169D01*
X968Y-168D01*
X975Y-165D01*
X981Y-160D01*
X986Y-154D01*
X988Y-147D01*
X989Y-140D01*
X988Y-132D01*
X986Y-126D01*
X981Y-120D01*
X975Y-115D01*
X968Y-112D01*
X961Y-111D01*
D02*
G37*
G36*
X1563Y-109D02*
X1547D01*
X1537Y-111D01*
X1527Y-115D01*
X1518Y-121D01*
X1512Y-130D01*
X1508Y-139D01*
X1506Y-150D01*
X1508Y-161D01*
X1512Y-170D01*
X1518Y-179D01*
X1527Y-185D01*
X1537Y-189D01*
X1547Y-191D01*
X1563D01*
X1573Y-189D01*
X1583Y-185D01*
X1592Y-179D01*
X1598Y-170D01*
X1602Y-161D01*
X1604Y-150D01*
X1602Y-139D01*
X1598Y-130D01*
X1592Y-121D01*
X1583Y-115D01*
X1573Y-111D01*
X1563Y-109D01*
D02*
G37*
G36*
X-126Y-147D02*
X-185D01*
X-194Y-149D01*
X-201Y-154D01*
X-206Y-161D01*
X-208Y-170D01*
X-206Y-179D01*
X-201Y-187D01*
X-194Y-192D01*
X-185Y-193D01*
X-126D01*
X-117Y-192D01*
X-109Y-187D01*
X-104Y-179D01*
X-103Y-170D01*
X-104Y-161D01*
X-109Y-154D01*
X-117Y-149D01*
X-126Y-147D01*
D02*
G37*
G36*
X-273D02*
X-304D01*
X-313Y-149D01*
X-321Y-154D01*
X-326Y-161D01*
X-327Y-170D01*
X-326Y-179D01*
X-321Y-187D01*
X-313Y-192D01*
X-304Y-193D01*
X-273D01*
X-264Y-192D01*
X-256Y-187D01*
X-251Y-179D01*
X-250Y-170D01*
X-251Y-161D01*
X-256Y-154D01*
X-264Y-149D01*
X-273Y-147D01*
D02*
G37*
G36*
X125Y22D02*
X119Y20D01*
X114Y17D01*
X111Y12D01*
X110Y7D01*
X111Y1D01*
X114Y-4D01*
X115Y-5D01*
Y-125D01*
X116Y-129D01*
X118Y-132D01*
X148Y-162D01*
X151Y-164D01*
X155Y-165D01*
X282D01*
X334Y-216D01*
X332Y-221D01*
X291D01*
Y-227D01*
X286Y-228D01*
X284Y-226D01*
X279Y-222D01*
X272Y-219D01*
X270Y-219D01*
Y-245D01*
X260D01*
Y-219D01*
X258Y-219D01*
X251Y-222D01*
X246Y-226D01*
X243Y-229D01*
X242Y-230D01*
X238D01*
X237Y-229D01*
X234Y-226D01*
X229Y-222D01*
X222Y-219D01*
X220Y-219D01*
Y-245D01*
X215D01*
Y-250D01*
X189D01*
X189Y-252D01*
X192Y-259D01*
X196Y-264D01*
X201Y-268D01*
X202Y-269D01*
X203Y-274D01*
X198Y-278D01*
X193Y-286D01*
X192Y-286D01*
X188D01*
X187Y-286D01*
X182Y-278D01*
X174Y-272D01*
X165Y-271D01*
X156Y-272D01*
X148Y-278D01*
X143Y-286D01*
X142Y-286D01*
X138D01*
X137Y-286D01*
X132Y-278D01*
X127Y-274D01*
X128Y-269D01*
X129Y-268D01*
X134Y-264D01*
X138Y-259D01*
X141Y-252D01*
X141Y-250D01*
X115D01*
X89D01*
X89Y-252D01*
X92Y-259D01*
X96Y-264D01*
X101Y-268D01*
X102Y-269D01*
X103Y-274D01*
X98Y-278D01*
X92Y-286D01*
X91Y-295D01*
X92Y-304D01*
X98Y-312D01*
X106Y-318D01*
X115Y-319D01*
X124Y-318D01*
X132Y-312D01*
X137Y-304D01*
X138Y-304D01*
X142D01*
X143Y-304D01*
X148Y-312D01*
X156Y-318D01*
X165Y-319D01*
X174Y-318D01*
X182Y-312D01*
X187Y-304D01*
X188Y-304D01*
X192D01*
X193Y-304D01*
X198Y-312D01*
X206Y-318D01*
X215Y-319D01*
X224Y-318D01*
X232Y-312D01*
X237Y-304D01*
X238Y-304D01*
X242D01*
X243Y-304D01*
X248Y-312D01*
X255Y-317D01*
X256Y-319D01*
X258Y-322D01*
X272Y-336D01*
X275Y-338D01*
X279Y-339D01*
X334D01*
X338Y-338D01*
X341Y-336D01*
X377Y-300D01*
X379Y-297D01*
X380Y-293D01*
Y-217D01*
X379Y-213D01*
X377Y-210D01*
X295Y-128D01*
X292Y-126D01*
X288Y-125D01*
X263D01*
X263Y-124D01*
X258Y-121D01*
X252Y-120D01*
X246Y-121D01*
X241Y-124D01*
X238Y-129D01*
X237Y-135D01*
X238Y-140D01*
X235Y-145D01*
X159D01*
X135Y-121D01*
Y-5D01*
X136Y-4D01*
X139Y1D01*
X140Y7D01*
X139Y12D01*
X136Y17D01*
X131Y20D01*
X125Y22D01*
D02*
G37*
G36*
X893Y-209D02*
Y-235D01*
X919D01*
X919Y-232D01*
X916Y-224D01*
X911Y-217D01*
X904Y-212D01*
X896Y-209D01*
X893Y-209D01*
D02*
G37*
G36*
X883D02*
X880Y-209D01*
X872Y-212D01*
X865Y-217D01*
X860Y-224D01*
X857Y-232D01*
X857Y-235D01*
X883D01*
Y-209D01*
D02*
G37*
G36*
X120Y-219D02*
Y-240D01*
X141D01*
X141Y-238D01*
X138Y-231D01*
X134Y-226D01*
X129Y-222D01*
X122Y-219D01*
X120Y-219D01*
D02*
G37*
G36*
X210D02*
X208Y-219D01*
X201Y-222D01*
X196Y-226D01*
X192Y-231D01*
X189Y-238D01*
X189Y-240D01*
X210D01*
Y-219D01*
D02*
G37*
G36*
X110D02*
X108Y-219D01*
X101Y-222D01*
X96Y-226D01*
X92Y-231D01*
X89Y-238D01*
X89Y-240D01*
X110D01*
Y-219D01*
D02*
G37*
G36*
X1267Y-53D02*
X1261Y-54D01*
X1256Y-57D01*
X1091Y-222D01*
X1062D01*
X1056Y-223D01*
X1052Y-227D01*
X1048Y-232D01*
X1047Y-238D01*
X1048Y-243D01*
X1052Y-248D01*
X1056Y-252D01*
X1062Y-253D01*
X1097D01*
X1103Y-252D01*
X1108Y-248D01*
X1278Y-79D01*
X1281Y-74D01*
X1282Y-68D01*
X1281Y-62D01*
X1278Y-57D01*
X1273Y-54D01*
X1267Y-53D01*
D02*
G37*
G36*
X919Y-245D02*
X893D01*
Y-271D01*
X896Y-271D01*
X904Y-268D01*
X911Y-263D01*
X916Y-256D01*
X919Y-248D01*
X919Y-245D01*
D02*
G37*
G36*
X883D02*
X857D01*
X857Y-248D01*
X860Y-256D01*
X865Y-263D01*
X872Y-268D01*
X880Y-271D01*
X883Y-271D01*
Y-245D01*
D02*
G37*
G36*
X1510Y-230D02*
X1440D01*
Y-300D01*
X1510D01*
Y-230D01*
D02*
G37*
G36*
X1575Y-230D02*
X1566Y-231D01*
X1558Y-235D01*
X1550Y-240D01*
X1545Y-248D01*
X1541Y-256D01*
X1540Y-265D01*
X1541Y-274D01*
X1545Y-282D01*
X1550Y-290D01*
X1558Y-295D01*
X1566Y-299D01*
X1575Y-300D01*
X1584Y-299D01*
X1592Y-295D01*
X1600Y-290D01*
X1605Y-282D01*
X1609Y-274D01*
X1610Y-265D01*
X1609Y-256D01*
X1605Y-248D01*
X1600Y-240D01*
X1592Y-235D01*
X1584Y-231D01*
X1575Y-230D01*
D02*
G37*
G36*
X430Y50D02*
X424Y49D01*
X419Y46D01*
X416Y41D01*
X415Y35D01*
Y-22D01*
X416Y-28D01*
X419Y-33D01*
X557Y-171D01*
Y-335D01*
X558Y-337D01*
X557Y-339D01*
X559Y-345D01*
X562Y-350D01*
X567Y-353D01*
X573Y-355D01*
X579Y-353D01*
X584Y-350D01*
X587Y-345D01*
X588Y-339D01*
X588Y-337D01*
X588Y-335D01*
Y-165D01*
X587Y-159D01*
X584Y-154D01*
X445Y-16D01*
Y35D01*
X444Y41D01*
X441Y46D01*
X436Y49D01*
X430Y50D01*
D02*
G37*
%LPD*%
D12*
X421Y88D02*
X603D01*
X368Y34D02*
X421Y88D01*
X368Y-140D02*
Y34D01*
X-213Y-215D02*
X-71D01*
X-56Y-201D01*
X-54D01*
X155Y-155D02*
X287D01*
X125Y-125D02*
X155Y-155D01*
X287D02*
X355Y-223D01*
X288Y-135D02*
X370Y-217D01*
X252Y-135D02*
X288D01*
X370Y-293D02*
Y-217D01*
X125Y-125D02*
Y7D01*
X355Y-278D02*
Y-223D01*
X343Y-290D02*
X355Y-278D01*
X320Y-290D02*
X343D01*
X334Y-329D02*
X370Y-293D01*
X279Y-329D02*
X334D01*
X265Y-315D02*
X279Y-329D01*
X315Y-295D02*
X320Y-290D01*
X85Y-37D02*
Y47D01*
X104Y67D01*
X-227Y-201D02*
X-213Y-215D01*
X-227Y-201D02*
Y-77D01*
X-201Y-50D01*
X-170D01*
Y-17D02*
X-117Y17D01*
X265Y-295D02*
Y-290D01*
Y-315D02*
Y-295D01*
D50*
X-84Y84D02*
X-18Y150D01*
X-117Y84D02*
X-84D01*
X573Y-335D02*
Y-165D01*
X430Y-22D02*
X573Y-165D01*
X1062Y-238D02*
X1097D01*
X1267Y-68D01*
X915Y150D02*
X945D01*
X-18D02*
X915D01*
X430Y-22D02*
Y35D01*
D52*
X-288Y170D02*
D03*
Y-170D02*
D03*
D53*
X-155D02*
D03*
Y170D02*
D03*
D54*
X-170Y117D02*
D03*
Y84D02*
D03*
Y50D02*
D03*
Y17D02*
D03*
Y-17D02*
D03*
Y-50D02*
D03*
Y-84D02*
D03*
Y-117D02*
D03*
X-117D02*
D03*
Y-84D02*
D03*
Y-50D02*
D03*
Y-17D02*
D03*
Y17D02*
D03*
Y50D02*
D03*
Y84D02*
D03*
Y117D02*
D03*
D55*
X1475Y265D02*
D03*
Y-265D02*
D03*
D56*
X1575Y265D02*
D03*
Y-265D02*
D03*
D57*
X1555Y150D02*
D03*
Y50D02*
D03*
Y-50D02*
D03*
Y-150D02*
D03*
D58*
X888Y-240D02*
D03*
X1090Y-140D02*
D03*
X961D02*
D03*
D59*
X315Y-245D02*
D03*
D60*
Y-295D02*
D03*
X265Y-245D02*
D03*
Y-295D02*
D03*
X215Y-245D02*
D03*
Y-295D02*
D03*
X165D02*
D03*
X115Y-245D02*
D03*
Y-295D02*
D03*
D61*
X465Y-135D02*
D03*
X573Y-339D02*
D03*
X1120Y-80D02*
D03*
X252Y-135D02*
D03*
X368Y-140D02*
D03*
X14Y-280D02*
D03*
X1062Y-238D02*
D03*
X1049Y-282D02*
D03*
X945Y150D02*
D03*
X430Y35D02*
D03*
X1195Y200D02*
D03*
X1290Y165D02*
D03*
X630Y105D02*
D03*
X895Y-90D02*
D03*
X603Y88D02*
D03*
X650Y-100D02*
D03*
X1010Y-70D02*
D03*
Y-140D02*
D03*
X915Y150D02*
D03*
X100Y310D02*
D03*
X550Y260D02*
D03*
X1386Y79D02*
D03*
X14Y-192D02*
D03*
X1387Y-14D02*
D03*
X1415Y-358D02*
D03*
X858Y200D02*
D03*
X800D02*
D03*
X681D02*
D03*
X210Y260D02*
D03*
X585Y1D02*
D03*
X895Y-5D02*
D03*
X975Y60D02*
D03*
X895Y50D02*
D03*
X790Y-100D02*
D03*
X240Y-320D02*
D03*
X140D02*
D03*
X372Y-342D02*
D03*
X985Y200D02*
D03*
X1110D02*
D03*
X1204Y110D02*
D03*
X1387Y-110D02*
D03*
X1076Y-188D02*
D03*
X1501Y-183D02*
D03*
X1220Y-264D02*
D03*
X1183Y-362D02*
D03*
X953Y-306D02*
D03*
X1267Y-68D02*
D03*
X1413Y-262D02*
D03*
X1196Y297D02*
D03*
D62*
X790Y-271D02*
D03*
X650Y-270D02*
D03*
X254Y-190D02*
D03*
X74D02*
D03*
Y-90D02*
D03*
X224D02*
D03*
X-95Y240D02*
D03*
X895Y120D02*
D03*
X680Y123D02*
D03*
X129Y202D02*
D03*
Y112D02*
D03*
X89Y113D02*
D03*
X304Y363D02*
D03*
X-54Y-201D02*
D03*
X89Y203D02*
D03*
X45Y240D02*
D03*
X-22Y85D02*
D03*
X-84Y-1D02*
D03*
X-17D02*
D03*
X85Y-37D02*
D03*
X104Y67D02*
D03*
X125Y7D02*
D03*
M02*
