G04*
G04 #@! TF.GenerationSoftware,Altium Limited,Altium Designer,19.1.8 (144)*
G04*
G04 Layer_Color=8388736*
%FSLAX23Y23*%
%MOIN*%
G70*
G01*
G75*
%ADD20C,0.047*%
%ADD21R,0.051X0.047*%
%ADD22O,0.079X0.020*%
%ADD23O,0.020X0.079*%
%ADD24R,0.032X0.053*%
%ADD25O,0.083X0.032*%
%ADD26R,0.055X0.063*%
%ADD27R,0.047X0.051*%
%ADD28R,0.051X0.034*%
%ADD29R,0.048X0.038*%
%ADD30R,0.067X0.059*%
%ADD31O,0.075X0.043*%
%ADD32O,0.102X0.043*%
%ADD33O,0.034X0.032*%
%ADD34R,0.067X0.067*%
%ADD35C,0.067*%
%ADD36O,0.095X0.079*%
%ADD37C,0.055*%
D20*
X334Y-295D02*
D03*
X284D02*
D03*
X234D02*
D03*
X184D02*
D03*
X134D02*
D03*
X234Y-245D02*
D03*
X284D02*
D03*
X334D02*
D03*
X134D02*
D03*
X84Y-270D02*
D03*
X384D02*
D03*
D21*
X931Y250D02*
D03*
X865D02*
D03*
X931Y310D02*
D03*
X865D02*
D03*
X14Y-238D02*
D03*
X-53D02*
D03*
X45Y195D02*
D03*
X-22D02*
D03*
X-22Y128D02*
D03*
X45D02*
D03*
X303Y322D02*
D03*
X237D02*
D03*
X598Y-86D02*
D03*
X532D02*
D03*
X725Y310D02*
D03*
X792D02*
D03*
X725Y250D02*
D03*
X792D02*
D03*
X1323Y-113D02*
D03*
X1257D02*
D03*
D22*
X519Y-23D02*
D03*
Y-4D02*
D03*
Y16D02*
D03*
Y36D02*
D03*
Y55D02*
D03*
Y75D02*
D03*
Y95D02*
D03*
Y115D02*
D03*
Y134D02*
D03*
Y154D02*
D03*
Y174D02*
D03*
Y193D02*
D03*
X201D02*
D03*
Y174D02*
D03*
Y154D02*
D03*
Y134D02*
D03*
Y115D02*
D03*
Y95D02*
D03*
Y75D02*
D03*
Y55D02*
D03*
Y36D02*
D03*
Y16D02*
D03*
Y-4D02*
D03*
Y-23D02*
D03*
D23*
X468Y244D02*
D03*
X449D02*
D03*
X429D02*
D03*
X409D02*
D03*
X390D02*
D03*
X370D02*
D03*
X350D02*
D03*
X330D02*
D03*
X311D02*
D03*
X291D02*
D03*
X271D02*
D03*
X252D02*
D03*
Y-74D02*
D03*
X271D02*
D03*
X291D02*
D03*
X311D02*
D03*
X330D02*
D03*
X350D02*
D03*
X370D02*
D03*
X390D02*
D03*
X409D02*
D03*
X429D02*
D03*
X449D02*
D03*
X468D02*
D03*
D24*
X1097Y-309D02*
D03*
X1171D02*
D03*
X1134Y-221D02*
D03*
D25*
X1293Y-40D02*
D03*
Y10D02*
D03*
Y60D02*
D03*
Y110D02*
D03*
X1107Y-40D02*
D03*
Y10D02*
D03*
Y60D02*
D03*
Y110D02*
D03*
D26*
X751Y73D02*
D03*
X689D02*
D03*
Y-13D02*
D03*
X751D02*
D03*
D27*
X135Y-149D02*
D03*
Y-83D02*
D03*
X1271Y-304D02*
D03*
Y-238D02*
D03*
X1001Y-305D02*
D03*
Y-239D02*
D03*
X615Y152D02*
D03*
Y218D02*
D03*
X473Y-209D02*
D03*
Y-275D02*
D03*
X185Y-149D02*
D03*
Y-83D02*
D03*
X830Y60D02*
D03*
Y127D02*
D03*
Y-64D02*
D03*
Y2D02*
D03*
X1015Y-8D02*
D03*
Y58D02*
D03*
D28*
X-49Y37D02*
D03*
Y-0D02*
D03*
Y-37D02*
D03*
X45D02*
D03*
Y-0D02*
D03*
Y37D02*
D03*
D29*
X537Y-342D02*
D03*
Y-194D02*
D03*
X773D02*
D03*
Y-342D02*
D03*
D30*
X1360Y302D02*
D03*
Y228D02*
D03*
Y-233D02*
D03*
Y-307D02*
D03*
X1275Y302D02*
D03*
Y228D02*
D03*
D31*
X-288Y170D02*
D03*
Y-170D02*
D03*
D32*
X-155D02*
D03*
Y170D02*
D03*
D33*
X-170Y117D02*
D03*
Y84D02*
D03*
Y50D02*
D03*
Y17D02*
D03*
Y-17D02*
D03*
Y-50D02*
D03*
Y-84D02*
D03*
Y-117D02*
D03*
X-117D02*
D03*
Y-84D02*
D03*
Y-50D02*
D03*
Y-17D02*
D03*
Y17D02*
D03*
Y50D02*
D03*
Y84D02*
D03*
Y117D02*
D03*
D34*
X1475Y265D02*
D03*
Y-265D02*
D03*
D35*
X1575Y265D02*
D03*
Y-265D02*
D03*
D36*
X1555Y150D02*
D03*
Y50D02*
D03*
Y-50D02*
D03*
Y-150D02*
D03*
D37*
X888Y-240D02*
D03*
X1090Y-140D02*
D03*
X961D02*
D03*
M02*
