G04*
G04 #@! TF.GenerationSoftware,Altium Limited,Altium Designer,19.1.8 (144)*
G04*
G04 Layer_Physical_Order=1*
G04 Layer_Color=255*
%FSLAX23Y23*%
%MOIN*%
G70*
G01*
G75*
%ADD12C,0.010*%
%ADD40O,0.071X0.012*%
%ADD41O,0.012X0.071*%
%ADD42R,0.024X0.045*%
%ADD43R,0.043X0.039*%
%ADD44O,0.075X0.024*%
%ADD45R,0.047X0.055*%
%ADD46R,0.039X0.043*%
%ADD47R,0.043X0.026*%
%ADD48R,0.040X0.030*%
%ADD49R,0.059X0.051*%
%ADD50C,0.020*%
%ADD51R,0.220X0.220*%
%ADD52O,0.067X0.035*%
%ADD53O,0.094X0.035*%
%ADD54O,0.026X0.024*%
%ADD55R,0.059X0.059*%
%ADD56C,0.059*%
%ADD57O,0.087X0.071*%
%ADD58C,0.047*%
%ADD59R,0.038X0.038*%
%ADD60C,0.038*%
%ADD61C,0.020*%
%ADD62C,0.020*%
G36*
X1676Y-385D02*
X-347D01*
Y385D01*
X1676D01*
Y-385D01*
D02*
G37*
%LPC*%
G36*
X333Y350D02*
X308D01*
Y327D01*
X333D01*
Y350D01*
D02*
G37*
G36*
X298D02*
X274D01*
Y327D01*
X298D01*
Y350D01*
D02*
G37*
G36*
X891Y335D02*
X838D01*
Y320D01*
X819D01*
Y335D01*
X765D01*
Y285D01*
X819D01*
Y300D01*
X838D01*
Y285D01*
X891D01*
Y335D01*
D02*
G37*
G36*
X961Y338D02*
X936D01*
Y315D01*
X961D01*
Y338D01*
D02*
G37*
G36*
X926D02*
X902D01*
Y315D01*
X926D01*
Y338D01*
D02*
G37*
G36*
X1313Y336D02*
X1280D01*
Y307D01*
X1313D01*
Y336D01*
D02*
G37*
G36*
X1270D02*
X1237D01*
Y307D01*
X1270D01*
Y336D01*
D02*
G37*
G36*
X333Y317D02*
X308D01*
Y294D01*
X333D01*
Y317D01*
D02*
G37*
G36*
X298D02*
X274D01*
Y294D01*
X298D01*
Y317D01*
D02*
G37*
G36*
X263Y347D02*
X210D01*
Y297D01*
X242D01*
Y278D01*
X241Y278D01*
X241Y274D01*
Y215D01*
X241Y211D01*
X242Y211D01*
Y204D01*
X241Y204D01*
X237Y202D01*
X234Y204D01*
X230Y204D01*
X171D01*
X167Y204D01*
X163Y201D01*
X161Y198D01*
X160Y193D01*
X161Y189D01*
X162Y187D01*
X163Y183D01*
X162Y180D01*
X161Y178D01*
X160Y174D01*
X161Y169D01*
X162Y167D01*
X163Y164D01*
X162Y160D01*
X161Y158D01*
X160Y154D01*
X161Y150D01*
X162Y147D01*
X163Y144D01*
X162Y141D01*
X161Y138D01*
X160Y134D01*
X161Y130D01*
X162Y128D01*
X163Y124D01*
X162Y121D01*
X161Y119D01*
X160Y115D01*
X161Y110D01*
X162Y108D01*
X163Y105D01*
X162Y101D01*
X161Y99D01*
X160Y95D01*
X161Y91D01*
X162Y88D01*
X163Y85D01*
X162Y82D01*
X161Y79D01*
X160Y75D01*
X161Y71D01*
X161Y71D01*
X158Y66D01*
X124D01*
X119Y67D01*
X118Y72D01*
X115Y77D01*
X110Y81D01*
X104Y82D01*
X98Y81D01*
X93Y77D01*
X90Y72D01*
X89Y67D01*
X90Y61D01*
X93Y56D01*
X98Y53D01*
X100Y52D01*
X100Y51D01*
X97Y46D01*
X72D01*
Y55D01*
X30D01*
X28Y60D01*
X55Y87D01*
X59Y92D01*
X60Y98D01*
Y103D01*
X71D01*
Y153D01*
X18D01*
Y103D01*
X22D01*
X24Y99D01*
X-3Y72D01*
X-6Y67D01*
X-7Y61D01*
Y-0D01*
Y-63D01*
X-13Y-68D01*
X-103D01*
X-105Y-63D01*
X-104Y-63D01*
X-100Y-57D01*
X-99Y-50D01*
X-100Y-43D01*
X-104Y-38D01*
X-104Y-37D01*
X-103Y-32D01*
X-101Y-32D01*
X-88Y-45D01*
X-84Y-47D01*
X-81Y-48D01*
X-76D01*
Y-55D01*
X-23D01*
Y-21D01*
X-20D01*
Y-5D01*
X-49D01*
Y5D01*
X-20D01*
Y21D01*
X-23D01*
Y55D01*
X-76D01*
Y48D01*
X-80D01*
X-83Y47D01*
X-87Y45D01*
X-101Y31D01*
X-104Y32D01*
X-105Y37D01*
X-104Y38D01*
X-100Y43D01*
X-99Y50D01*
X-99Y53D01*
X-65Y87D01*
X-63Y90D01*
X-62Y94D01*
Y175D01*
X-54Y183D01*
X-49Y181D01*
Y170D01*
X4D01*
Y220D01*
X-49D01*
Y205D01*
X-57D01*
X-60Y204D01*
X-64Y202D01*
X-79Y187D01*
X-81Y183D01*
X-82Y180D01*
Y99D01*
X-94Y87D01*
X-100Y88D01*
X-100Y90D01*
X-103Y95D01*
X-104Y98D01*
Y101D01*
X-102Y103D01*
X-97Y109D01*
X-97Y112D01*
X-117D01*
X-137D01*
X-136Y109D01*
X-133Y104D01*
X-135Y99D01*
X-152D01*
X-154Y104D01*
X-150Y109D01*
X-150Y112D01*
X-170D01*
Y117D01*
D01*
Y112D01*
X-190D01*
X-190Y109D01*
X-185Y103D01*
X-186Y101D01*
X-187Y98D01*
X-187Y98D01*
X-193Y97D01*
X-198Y94D01*
X-214Y78D01*
X-217Y73D01*
X-219Y67D01*
Y-67D01*
X-217Y-73D01*
X-214Y-78D01*
X-197Y-94D01*
X-192Y-98D01*
X-188Y-99D01*
X-187Y-100D01*
X-186Y-102D01*
X-186Y-104D01*
X-190Y-109D01*
X-190Y-112D01*
X-170D01*
X-150D01*
X-150Y-109D01*
X-154Y-104D01*
X-152Y-99D01*
X-135D01*
X-133Y-104D01*
X-136Y-109D01*
X-137Y-112D01*
X-117D01*
X-97D01*
X-97Y-109D01*
X-101Y-104D01*
X-99Y-99D01*
X-7D01*
X-1Y-98D01*
X4Y-94D01*
X19Y-80D01*
X22Y-75D01*
X23Y-69D01*
Y-55D01*
X72D01*
Y-53D01*
X77Y-50D01*
X79Y-51D01*
X85Y-53D01*
X91Y-51D01*
X95Y-48D01*
X99Y-43D01*
X100Y-37D01*
X99Y-32D01*
X95Y-27D01*
X91Y-23D01*
X85Y-22D01*
X79Y-23D01*
X77Y-25D01*
X75Y-24D01*
X72Y-20D01*
Y-18D01*
X72D01*
Y18D01*
X72D01*
Y20D01*
X72D01*
Y26D01*
X121D01*
X122Y21D01*
X119Y20D01*
X114Y17D01*
X111Y12D01*
X110Y7D01*
X111Y1D01*
X114Y-4D01*
X119Y-7D01*
X125Y-9D01*
X131Y-7D01*
X136Y-4D01*
X139Y1D01*
X140Y4D01*
X141Y6D01*
X155D01*
X157Y1D01*
X201D01*
Y-9D01*
X158D01*
X158Y-9D01*
X159Y-11D01*
X160Y-12D01*
X160Y-12D01*
X161Y-14D01*
X161Y-19D01*
X161Y-19D01*
X160Y-23D01*
X161Y-28D01*
X163Y-31D01*
X167Y-34D01*
X171Y-34D01*
X188D01*
Y-56D01*
X160D01*
Y-56D01*
X160Y-56D01*
Y-56D01*
X110D01*
Y-109D01*
X160D01*
Y-109D01*
X160Y-109D01*
Y-109D01*
X210D01*
Y-80D01*
X210Y-77D01*
X210Y-73D01*
Y-56D01*
X209D01*
Y-34D01*
X230D01*
X234Y-34D01*
X235Y-33D01*
X241D01*
X242Y-34D01*
X243Y-38D01*
X241Y-41D01*
X241Y-45D01*
Y-104D01*
X241Y-108D01*
X242Y-109D01*
Y-124D01*
X241Y-124D01*
X238Y-129D01*
X237Y-135D01*
X238Y-141D01*
X241Y-146D01*
X246Y-149D01*
X252Y-150D01*
X258Y-149D01*
X263Y-146D01*
X266Y-141D01*
X267Y-135D01*
X266Y-129D01*
X263Y-124D01*
X262Y-124D01*
Y-117D01*
X267Y-114D01*
X271Y-115D01*
X276Y-114D01*
X278Y-113D01*
X281Y-112D01*
X285Y-113D01*
X287Y-114D01*
X291Y-115D01*
X295Y-114D01*
X298Y-113D01*
X301Y-112D01*
X304Y-113D01*
X307Y-114D01*
X311Y-115D01*
X315Y-114D01*
X317Y-113D01*
X321Y-112D01*
X324Y-113D01*
X326Y-114D01*
X330Y-115D01*
X335Y-114D01*
X337Y-113D01*
X340Y-112D01*
X344Y-113D01*
X346Y-114D01*
X350Y-115D01*
X354Y-114D01*
X357Y-113D01*
X360Y-112D01*
X363Y-113D01*
X366Y-114D01*
X370Y-115D01*
X374Y-114D01*
X374Y-114D01*
X379Y-117D01*
Y-124D01*
X374Y-126D01*
X374Y-126D01*
X368Y-125D01*
X362Y-126D01*
X357Y-129D01*
X354Y-134D01*
X353Y-140D01*
X353Y-141D01*
X294Y-200D01*
X200D01*
X196Y-201D01*
X193Y-203D01*
X147Y-249D01*
X142Y-247D01*
X142Y-245D01*
X141Y-238D01*
X138Y-231D01*
X134Y-226D01*
X129Y-222D01*
X122Y-219D01*
X120Y-219D01*
Y-245D01*
X115D01*
Y-250D01*
X89D01*
X89Y-252D01*
X92Y-259D01*
X96Y-264D01*
X101Y-268D01*
X102Y-269D01*
X103Y-274D01*
X98Y-278D01*
X92Y-286D01*
X91Y-295D01*
X92Y-304D01*
X98Y-312D01*
X106Y-318D01*
X115Y-319D01*
X124Y-318D01*
X132Y-312D01*
X137Y-304D01*
X138Y-304D01*
X142D01*
X143Y-304D01*
X148Y-312D01*
X156Y-318D01*
X165Y-319D01*
X174Y-318D01*
X182Y-312D01*
X187Y-304D01*
X188Y-304D01*
X192D01*
X193Y-304D01*
X198Y-312D01*
X206Y-318D01*
X215Y-319D01*
X224Y-318D01*
X232Y-312D01*
X237Y-304D01*
X238Y-304D01*
X242D01*
X243Y-304D01*
X248Y-312D01*
X256Y-318D01*
X265Y-319D01*
X274Y-318D01*
X282Y-312D01*
X287Y-304D01*
X288Y-304D01*
X292D01*
X293Y-304D01*
X298Y-312D01*
X306Y-318D01*
X315Y-319D01*
X324Y-318D01*
X332Y-312D01*
X338Y-304D01*
X339Y-295D01*
X338Y-286D01*
X332Y-278D01*
X326Y-274D01*
X328Y-269D01*
X339D01*
X339Y-269D01*
Y-269D01*
X344Y-270D01*
X419Y-346D01*
X424Y-349D01*
X430Y-351D01*
X512D01*
Y-362D01*
X562D01*
Y-355D01*
X748D01*
Y-362D01*
X798D01*
Y-351D01*
X869D01*
X875Y-349D01*
X879Y-346D01*
X971Y-254D01*
X976Y-256D01*
Y-265D01*
X1026D01*
Y-253D01*
X1056D01*
X1077Y-274D01*
X1077Y-279D01*
X1077Y-279D01*
X1077Y-279D01*
Y-304D01*
X1097D01*
X1116D01*
Y-280D01*
X1150D01*
X1155Y-282D01*
Y-337D01*
X1188D01*
Y-282D01*
X1187D01*
Y-275D01*
X1186Y-269D01*
X1182Y-264D01*
X1173Y-254D01*
X1172Y-254D01*
X1174Y-249D01*
X1246D01*
Y-264D01*
X1296D01*
Y-211D01*
X1246D01*
Y-218D01*
X1151D01*
Y-193D01*
X1149D01*
Y-139D01*
X1179Y-109D01*
X1184Y-111D01*
Y-164D01*
X1185Y-168D01*
X1187Y-171D01*
X1206Y-191D01*
X1210Y-193D01*
X1214Y-194D01*
X1307D01*
X1325Y-212D01*
Y-263D01*
X1395D01*
Y-202D01*
X1344D01*
X1322Y-180D01*
X1324Y-175D01*
X1444D01*
X1448Y-174D01*
X1451Y-172D01*
X1463Y-160D01*
X1508D01*
X1508Y-161D01*
X1512Y-170D01*
X1518Y-179D01*
X1527Y-185D01*
X1537Y-189D01*
X1545Y-190D01*
Y-195D01*
X1546Y-199D01*
X1548Y-202D01*
X1565Y-219D01*
Y-232D01*
X1558Y-235D01*
X1550Y-240D01*
X1545Y-248D01*
X1541Y-256D01*
X1540Y-265D01*
X1541Y-274D01*
X1545Y-282D01*
X1550Y-290D01*
X1558Y-295D01*
X1566Y-299D01*
X1575Y-300D01*
X1584Y-299D01*
X1592Y-295D01*
X1600Y-290D01*
X1605Y-282D01*
X1609Y-274D01*
X1610Y-265D01*
X1609Y-256D01*
X1605Y-248D01*
X1600Y-240D01*
X1592Y-235D01*
X1585Y-232D01*
Y-215D01*
X1584Y-211D01*
X1582Y-208D01*
X1569Y-195D01*
X1571Y-190D01*
X1573Y-189D01*
X1583Y-185D01*
X1592Y-179D01*
X1598Y-170D01*
X1602Y-161D01*
X1604Y-150D01*
X1602Y-139D01*
X1598Y-130D01*
X1592Y-121D01*
X1583Y-115D01*
X1573Y-111D01*
X1563Y-109D01*
X1547D01*
X1537Y-111D01*
X1527Y-115D01*
X1518Y-121D01*
X1512Y-130D01*
X1508Y-139D01*
X1508Y-140D01*
X1459D01*
X1455Y-141D01*
X1452Y-143D01*
X1440Y-155D01*
X1226D01*
X1220Y-149D01*
Y21D01*
X1249Y49D01*
X1254Y49D01*
X1255Y48D01*
X1260Y44D01*
X1267Y43D01*
X1318D01*
X1325Y44D01*
X1330Y48D01*
X1334Y53D01*
X1335Y60D01*
X1334Y67D01*
X1330Y72D01*
X1325Y76D01*
X1318Y77D01*
X1267D01*
X1260Y76D01*
X1255Y72D01*
X1254Y70D01*
X1245D01*
X1243Y70D01*
X1241Y71D01*
X1239Y72D01*
X1238Y73D01*
Y176D01*
X1259Y197D01*
X1310D01*
Y217D01*
X1325D01*
Y197D01*
X1395D01*
Y258D01*
X1325D01*
Y238D01*
X1310D01*
Y258D01*
X1240D01*
Y207D01*
X1221Y188D01*
X1219Y184D01*
X1218Y181D01*
Y76D01*
X1194Y52D01*
X1189Y54D01*
Y136D01*
X1188Y142D01*
X1185Y147D01*
X1171Y161D01*
X1166Y164D01*
X1160Y165D01*
X915D01*
X909Y164D01*
X904Y161D01*
X901Y156D01*
X900Y150D01*
X901Y144D01*
X904Y139D01*
X909Y136D01*
X915Y135D01*
X1154D01*
X1159Y130D01*
Y47D01*
X1159Y46D01*
Y25D01*
X1140D01*
X1140Y26D01*
X1133Y27D01*
X1082D01*
X1075Y26D01*
X1075Y25D01*
X1057D01*
X1051Y24D01*
X1046Y21D01*
X1042Y17D01*
X1040Y18D01*
Y18D01*
X990D01*
Y-35D01*
X1040D01*
Y-19D01*
X1043D01*
X1049Y-18D01*
X1054Y-14D01*
X1063Y-5D01*
X1075D01*
X1075Y-6D01*
X1082Y-7D01*
X1133D01*
X1140Y-6D01*
X1140Y-5D01*
X1159D01*
Y-86D01*
X1123Y-122D01*
X1120Y-126D01*
X1117Y-126D01*
X1115Y-126D01*
X1110Y-120D01*
X1104Y-115D01*
X1100Y-113D01*
Y-57D01*
X1133D01*
X1140Y-56D01*
X1145Y-52D01*
X1149Y-47D01*
X1150Y-40D01*
X1149Y-33D01*
X1145Y-28D01*
X1140Y-24D01*
X1133Y-23D01*
X1082D01*
X1075Y-24D01*
X1070Y-28D01*
X1066Y-33D01*
X1065Y-40D01*
X1066Y-47D01*
X1070Y-52D01*
X1075Y-56D01*
X1080Y-57D01*
Y-113D01*
X1076Y-115D01*
X1070Y-120D01*
X1065Y-126D01*
X1062Y-132D01*
X1061Y-140D01*
X1062Y-147D01*
X1064Y-152D01*
X1039Y-177D01*
X918D01*
X896Y-155D01*
X898Y-150D01*
X934D01*
X936Y-154D01*
X940Y-160D01*
X946Y-165D01*
X953Y-168D01*
X961Y-169D01*
X968Y-168D01*
X975Y-165D01*
X981Y-160D01*
X986Y-154D01*
X988Y-147D01*
X989Y-140D01*
X988Y-132D01*
X986Y-126D01*
X981Y-120D01*
X975Y-115D01*
X971Y-113D01*
Y-85D01*
X970Y-82D01*
X968Y-78D01*
X960Y-71D01*
Y86D01*
X974Y100D01*
X1068D01*
X1070Y98D01*
X1075Y94D01*
X1082Y93D01*
X1133D01*
X1140Y94D01*
X1145Y98D01*
X1149Y103D01*
X1150Y110D01*
X1149Y117D01*
X1145Y122D01*
X1140Y126D01*
X1133Y127D01*
X1082D01*
X1075Y126D01*
X1070Y122D01*
X1068Y120D01*
X970D01*
X966Y119D01*
X963Y117D01*
X943Y97D01*
X941Y94D01*
X940Y90D01*
Y-75D01*
X941Y-79D01*
X943Y-82D01*
X950Y-90D01*
Y-113D01*
X946Y-115D01*
X940Y-120D01*
X936Y-126D01*
X934Y-130D01*
X494D01*
X490Y-131D01*
X487Y-133D01*
X473Y-147D01*
X446D01*
X439Y-140D01*
Y-120D01*
X444Y-118D01*
Y-74D01*
X454D01*
Y-117D01*
X454Y-117D01*
X456Y-116D01*
X457Y-115D01*
X457Y-115D01*
X459Y-114D01*
X464Y-114D01*
X464Y-114D01*
X468Y-115D01*
X473Y-114D01*
X476Y-112D01*
X479Y-108D01*
X479Y-104D01*
Y-87D01*
X505D01*
Y-111D01*
X558D01*
Y-61D01*
X505D01*
Y-66D01*
X479D01*
Y-45D01*
X479Y-41D01*
X478Y-41D01*
Y-33D01*
X486D01*
X486Y-34D01*
X490Y-34D01*
X549D01*
X553Y-34D01*
X557Y-31D01*
X559Y-28D01*
X560Y-23D01*
X559Y-19D01*
X558Y-17D01*
X557Y-13D01*
X558Y-10D01*
X559Y-8D01*
X560Y-4D01*
X559Y1D01*
X558Y3D01*
X557Y6D01*
X558Y10D01*
X559Y12D01*
X560Y16D01*
X559Y20D01*
X558Y23D01*
X557Y26D01*
X558Y29D01*
X559Y32D01*
X560Y36D01*
X559Y39D01*
X562Y44D01*
X566Y44D01*
X578Y33D01*
X581Y31D01*
X585Y30D01*
X621D01*
X640Y11D01*
Y-54D01*
X641Y-58D01*
X643Y-62D01*
X646Y-64D01*
X650Y-65D01*
X650Y-65D01*
X805D01*
Y-91D01*
X855D01*
Y-38D01*
X805D01*
Y-44D01*
X780D01*
Y19D01*
X724D01*
X720Y22D01*
X720Y22D01*
X720Y22D01*
X694D01*
Y-13D01*
X684D01*
Y22D01*
X657D01*
X657Y23D01*
X635Y45D01*
X637Y50D01*
X660D01*
Y41D01*
X716D01*
X720Y38D01*
X720Y38D01*
X720Y38D01*
X746D01*
Y73D01*
X751D01*
Y78D01*
X783D01*
Y104D01*
X805D01*
Y101D01*
X855D01*
Y154D01*
X805D01*
Y125D01*
X720D01*
X716Y124D01*
X713Y122D01*
X697Y106D01*
X660D01*
Y70D01*
X613D01*
X611Y75D01*
X614Y77D01*
X617Y82D01*
X618Y88D01*
X617Y93D01*
X614Y98D01*
X609Y102D01*
X603Y103D01*
X597Y102D01*
X592Y98D01*
X588Y102D01*
X585Y104D01*
X581Y105D01*
X565D01*
X563Y110D01*
X519D01*
Y120D01*
X563D01*
X565Y124D01*
X622D01*
X626Y125D01*
X626Y125D01*
X640D01*
Y178D01*
X590D01*
Y144D01*
X562D01*
X559Y149D01*
X559Y150D01*
X560Y154D01*
X559Y158D01*
X558Y160D01*
X557Y164D01*
X558Y167D01*
X559Y169D01*
X560Y174D01*
X559Y178D01*
X558Y180D01*
X557Y183D01*
X558Y187D01*
X559Y189D01*
X560Y193D01*
X559Y198D01*
X557Y201D01*
X553Y204D01*
X549Y204D01*
X490D01*
X486Y204D01*
X482Y201D01*
X481Y199D01*
X475Y198D01*
X473Y200D01*
X474Y206D01*
X476Y207D01*
X479Y211D01*
X479Y215D01*
Y274D01*
X479Y278D01*
X476Y282D01*
X473Y284D01*
X468Y285D01*
X464Y284D01*
X462Y283D01*
X458Y282D01*
X455Y283D01*
X453Y284D01*
X449Y285D01*
X444Y284D01*
X442Y283D01*
X439Y282D01*
X435Y283D01*
X433Y284D01*
X429Y285D01*
X425Y284D01*
X422Y283D01*
X419Y282D01*
X416Y283D01*
X413Y284D01*
X409Y285D01*
X405Y284D01*
X403Y283D01*
X399Y282D01*
X396Y283D01*
X394Y284D01*
X390Y285D01*
X386Y284D01*
X381Y287D01*
X381Y291D01*
X394Y305D01*
X646D01*
X698Y252D01*
Y225D01*
X752D01*
Y275D01*
X705D01*
X699Y280D01*
X701Y285D01*
X702Y285D01*
X702Y285D01*
X702Y285D01*
X752D01*
Y335D01*
X698D01*
Y320D01*
X684D01*
X667Y337D01*
X664Y339D01*
X660Y340D01*
X375D01*
X371Y339D01*
X368Y337D01*
X343Y312D01*
X341Y309D01*
X340Y305D01*
Y287D01*
X335Y284D01*
X335Y284D01*
X330Y285D01*
X326Y284D01*
X324Y283D01*
X321Y282D01*
X317Y283D01*
X315Y284D01*
X311Y285D01*
X307Y284D01*
X304Y283D01*
X301Y282D01*
X298Y283D01*
X295Y284D01*
X291Y285D01*
X287Y284D01*
X287Y284D01*
X281Y284D01*
X280Y285D01*
X280Y285D01*
X279Y286D01*
X277Y287D01*
X276Y287D01*
Y244D01*
X266D01*
Y288D01*
X262Y290D01*
Y297D01*
X263D01*
Y347D01*
D02*
G37*
G36*
X1313Y297D02*
X1280D01*
Y269D01*
X1313D01*
Y297D01*
D02*
G37*
G36*
X1270D02*
X1237D01*
Y269D01*
X1270D01*
Y297D01*
D02*
G37*
G36*
X891Y275D02*
X838D01*
Y260D01*
X819D01*
Y275D01*
X765D01*
Y225D01*
X819D01*
Y240D01*
X838D01*
Y225D01*
X891D01*
Y275D01*
D02*
G37*
G36*
X961Y305D02*
X902D01*
Y283D01*
X902Y282D01*
Y278D01*
X902Y277D01*
Y255D01*
X961D01*
Y277D01*
X961Y278D01*
Y282D01*
X961Y283D01*
Y305D01*
D02*
G37*
G36*
X1395Y333D02*
X1325D01*
Y272D01*
X1395D01*
Y292D01*
X1433D01*
X1440Y285D01*
Y230D01*
X1510D01*
Y300D01*
X1455D01*
X1445Y310D01*
X1441Y312D01*
X1438Y313D01*
X1395D01*
Y333D01*
D02*
G37*
G36*
X1575Y300D02*
X1566Y299D01*
X1558Y295D01*
X1550Y290D01*
X1545Y282D01*
X1541Y274D01*
X1540Y265D01*
X1541Y256D01*
X1545Y248D01*
X1545Y247D01*
X1461Y163D01*
X1459Y160D01*
X1458Y156D01*
Y47D01*
X1431Y20D01*
X1332D01*
X1330Y22D01*
X1325Y26D01*
X1318Y27D01*
X1267D01*
X1260Y26D01*
X1255Y22D01*
X1251Y17D01*
X1250Y10D01*
X1251Y3D01*
X1255Y-2D01*
X1260Y-6D01*
X1267Y-7D01*
X1318D01*
X1325Y-6D01*
X1330Y-2D01*
X1332Y-0D01*
X1431D01*
X1483Y-52D01*
X1486Y-54D01*
X1490Y-55D01*
X1507D01*
X1508Y-61D01*
X1512Y-70D01*
X1518Y-79D01*
X1527Y-85D01*
X1537Y-89D01*
X1547Y-91D01*
X1563D01*
X1573Y-89D01*
X1583Y-85D01*
X1592Y-79D01*
X1598Y-70D01*
X1602Y-61D01*
X1604Y-50D01*
X1602Y-39D01*
X1598Y-30D01*
X1592Y-21D01*
X1583Y-15D01*
X1573Y-11D01*
X1563Y-9D01*
X1547D01*
X1537Y-11D01*
X1527Y-15D01*
X1518Y-21D01*
X1512Y-30D01*
X1510Y-35D01*
X1494D01*
X1449Y10D01*
X1475Y36D01*
X1477Y39D01*
X1478Y43D01*
Y152D01*
X1560Y234D01*
X1566Y231D01*
X1575Y230D01*
X1584Y231D01*
X1592Y235D01*
X1600Y240D01*
X1605Y248D01*
X1609Y256D01*
X1610Y265D01*
X1609Y274D01*
X1605Y282D01*
X1600Y290D01*
X1592Y295D01*
X1584Y299D01*
X1575Y300D01*
D02*
G37*
G36*
X643Y248D02*
X620D01*
Y223D01*
X643D01*
Y248D01*
D02*
G37*
G36*
X610D02*
X587D01*
Y223D01*
X610D01*
Y248D01*
D02*
G37*
G36*
X961Y245D02*
X936D01*
Y222D01*
X961D01*
Y245D01*
D02*
G37*
G36*
X926D02*
X902D01*
Y222D01*
X926D01*
Y245D01*
D02*
G37*
G36*
X74Y223D02*
X50D01*
Y200D01*
X74D01*
Y223D01*
D02*
G37*
G36*
X40D02*
X15D01*
Y200D01*
X40D01*
Y223D01*
D02*
G37*
G36*
X643Y213D02*
X620D01*
Y189D01*
X643D01*
Y213D01*
D02*
G37*
G36*
X610D02*
X587D01*
Y189D01*
X610D01*
Y213D01*
D02*
G37*
G36*
X-126Y196D02*
X-150D01*
Y175D01*
X-101D01*
X-101Y177D01*
X-103Y183D01*
X-107Y189D01*
X-113Y193D01*
X-119Y195D01*
X-126Y196D01*
D02*
G37*
G36*
X-160D02*
X-185D01*
X-192Y195D01*
X-198Y193D01*
X-203Y189D01*
X-207Y183D01*
X-210Y177D01*
X-210Y175D01*
X-160D01*
Y196D01*
D02*
G37*
G36*
X74Y190D02*
X50D01*
Y167D01*
X74D01*
Y190D01*
D02*
G37*
G36*
X40D02*
X15D01*
Y167D01*
X40D01*
Y190D01*
D02*
G37*
G36*
X1563Y194D02*
X1560D01*
Y155D01*
X1606D01*
X1605Y161D01*
X1601Y172D01*
X1594Y181D01*
X1585Y188D01*
X1574Y192D01*
X1563Y194D01*
D02*
G37*
G36*
X1550D02*
X1547D01*
X1536Y192D01*
X1525Y188D01*
X1516Y181D01*
X1509Y172D01*
X1505Y161D01*
X1504Y155D01*
X1550D01*
Y194D01*
D02*
G37*
G36*
X-273Y193D02*
X-304D01*
X-313Y192D01*
X-321Y187D01*
X-326Y179D01*
X-327Y170D01*
X-326Y161D01*
X-321Y154D01*
X-313Y149D01*
X-304Y147D01*
X-273D01*
X-264Y149D01*
X-256Y154D01*
X-251Y161D01*
X-250Y170D01*
X-251Y179D01*
X-256Y187D01*
X-264Y192D01*
X-273Y193D01*
D02*
G37*
G36*
X-101Y165D02*
X-150D01*
Y144D01*
X-126D01*
X-119Y145D01*
X-113Y148D01*
X-107Y152D01*
X-103Y157D01*
X-101Y164D01*
X-101Y165D01*
D02*
G37*
G36*
X-160D02*
X-210D01*
X-210Y164D01*
X-207Y157D01*
X-203Y152D01*
X-198Y148D01*
X-192Y145D01*
X-185Y144D01*
X-160D01*
Y165D01*
D02*
G37*
G36*
X7Y156D02*
X-17D01*
Y133D01*
X7D01*
Y156D01*
D02*
G37*
G36*
X-27D02*
X-52D01*
Y133D01*
X-27D01*
Y156D01*
D02*
G37*
G36*
X-165Y137D02*
Y122D01*
X-150D01*
X-150Y125D01*
X-155Y132D01*
X-161Y136D01*
X-165Y137D01*
D02*
G37*
G36*
X-112D02*
Y122D01*
X-97D01*
X-97Y125D01*
X-102Y132D01*
X-108Y136D01*
X-112Y137D01*
D02*
G37*
G36*
X-122D02*
X-125Y136D01*
X-132Y132D01*
X-136Y125D01*
X-137Y122D01*
X-122D01*
Y137D01*
D02*
G37*
G36*
X-175D02*
X-178Y136D01*
X-185Y132D01*
X-190Y125D01*
X-190Y122D01*
X-175D01*
Y137D01*
D02*
G37*
G36*
X1318Y130D02*
X1298D01*
Y115D01*
X1337D01*
X1337Y118D01*
X1332Y124D01*
X1326Y129D01*
X1318Y130D01*
D02*
G37*
G36*
X1288D02*
X1267D01*
X1259Y129D01*
X1253Y124D01*
X1248Y118D01*
X1248Y115D01*
X1288D01*
Y130D01*
D02*
G37*
G36*
X1606Y145D02*
X1560D01*
Y106D01*
X1563D01*
X1574Y108D01*
X1585Y112D01*
X1594Y119D01*
X1601Y128D01*
X1605Y139D01*
X1606Y145D01*
D02*
G37*
G36*
X1550D02*
X1504D01*
X1505Y139D01*
X1509Y128D01*
X1516Y119D01*
X1525Y112D01*
X1536Y108D01*
X1547Y106D01*
X1550D01*
Y145D01*
D02*
G37*
G36*
X7Y123D02*
X-17D01*
Y100D01*
X7D01*
Y123D01*
D02*
G37*
G36*
X-27D02*
X-52D01*
Y100D01*
X-27D01*
Y123D01*
D02*
G37*
G36*
X1337Y105D02*
X1298D01*
Y90D01*
X1318D01*
X1326Y91D01*
X1332Y96D01*
X1337Y102D01*
X1337Y105D01*
D02*
G37*
G36*
X1288D02*
X1248D01*
X1248Y102D01*
X1253Y96D01*
X1259Y91D01*
X1267Y90D01*
X1288D01*
Y105D01*
D02*
G37*
G36*
X858Y90D02*
X835D01*
Y65D01*
X858D01*
Y90D01*
D02*
G37*
G36*
X825D02*
X802D01*
Y65D01*
X825D01*
Y90D01*
D02*
G37*
G36*
X1133Y80D02*
X1112D01*
Y65D01*
X1152D01*
X1152Y68D01*
X1147Y74D01*
X1141Y79D01*
X1133Y80D01*
D02*
G37*
G36*
X1102D02*
X1082D01*
X1074Y79D01*
X1068Y74D01*
X1063Y68D01*
X1063Y65D01*
X1102D01*
Y80D01*
D02*
G37*
G36*
X1043Y88D02*
X1020D01*
Y63D01*
X1043D01*
Y88D01*
D02*
G37*
G36*
X1010D02*
X987D01*
Y63D01*
X1010D01*
Y88D01*
D02*
G37*
G36*
X1152Y55D02*
X1112D01*
Y40D01*
X1133D01*
X1141Y41D01*
X1147Y46D01*
X1152Y52D01*
X1152Y55D01*
D02*
G37*
G36*
X1102D02*
X1063D01*
X1063Y52D01*
X1068Y46D01*
X1074Y41D01*
X1082Y40D01*
X1102D01*
Y55D01*
D02*
G37*
G36*
X783Y68D02*
X756D01*
Y38D01*
X783D01*
Y68D01*
D02*
G37*
G36*
X1043Y53D02*
X1020D01*
Y29D01*
X1043D01*
Y53D01*
D02*
G37*
G36*
X1010D02*
X987D01*
Y29D01*
X1010D01*
Y53D01*
D02*
G37*
G36*
X1563Y91D02*
X1547D01*
X1537Y89D01*
X1527Y85D01*
X1518Y79D01*
X1512Y70D01*
X1508Y61D01*
X1506Y50D01*
X1508Y39D01*
X1512Y30D01*
X1518Y21D01*
X1527Y15D01*
X1537Y11D01*
X1547Y9D01*
X1563D01*
X1573Y11D01*
X1583Y15D01*
X1592Y21D01*
X1598Y30D01*
X1602Y39D01*
X1604Y50D01*
X1602Y61D01*
X1598Y70D01*
X1592Y79D01*
X1583Y85D01*
X1573Y89D01*
X1563Y91D01*
D02*
G37*
G36*
X858Y55D02*
X830D01*
X802D01*
Y31D01*
Y7D01*
X830D01*
X858D01*
Y31D01*
Y55D01*
D02*
G37*
G36*
Y-2D02*
X835D01*
Y-27D01*
X858D01*
Y-2D01*
D02*
G37*
G36*
X825D02*
X802D01*
Y-27D01*
X825D01*
Y-2D01*
D02*
G37*
G36*
X628Y-58D02*
X603D01*
Y-81D01*
X628D01*
Y-58D01*
D02*
G37*
G36*
X593D02*
X569D01*
Y-81D01*
X593D01*
Y-58D01*
D02*
G37*
G36*
X1353Y-85D02*
X1328D01*
Y-108D01*
X1353D01*
Y-85D01*
D02*
G37*
G36*
X1318D02*
X1294D01*
Y-108D01*
X1318D01*
Y-85D01*
D02*
G37*
G36*
X628Y-91D02*
X603D01*
Y-114D01*
X628D01*
Y-91D01*
D02*
G37*
G36*
X593D02*
X569D01*
Y-114D01*
X593D01*
Y-91D01*
D02*
G37*
G36*
X-150Y-122D02*
X-165D01*
Y-137D01*
X-161Y-136D01*
X-155Y-132D01*
X-150Y-125D01*
X-150Y-122D01*
D02*
G37*
G36*
X-97D02*
X-112D01*
Y-137D01*
X-108Y-136D01*
X-102Y-132D01*
X-97Y-125D01*
X-97Y-122D01*
D02*
G37*
G36*
X-122D02*
X-137D01*
X-136Y-125D01*
X-132Y-132D01*
X-125Y-136D01*
X-122Y-137D01*
Y-122D01*
D02*
G37*
G36*
X-175D02*
X-190D01*
X-190Y-125D01*
X-185Y-132D01*
X-178Y-136D01*
X-175Y-137D01*
Y-122D01*
D02*
G37*
G36*
X1318Y-23D02*
X1267D01*
X1260Y-24D01*
X1255Y-28D01*
X1251Y-33D01*
X1250Y-40D01*
X1251Y-47D01*
X1252Y-47D01*
Y-62D01*
X1239Y-75D01*
X1235Y-80D01*
X1234Y-86D01*
Y-88D01*
X1230D01*
Y-138D01*
X1283D01*
Y-88D01*
X1275D01*
X1273Y-84D01*
X1278Y-79D01*
X1281Y-74D01*
X1282Y-68D01*
Y-57D01*
X1318D01*
X1325Y-56D01*
X1330Y-52D01*
X1334Y-47D01*
X1335Y-40D01*
X1334Y-33D01*
X1330Y-28D01*
X1325Y-24D01*
X1318Y-23D01*
D02*
G37*
G36*
X1353Y-118D02*
X1328D01*
Y-141D01*
X1353D01*
Y-118D01*
D02*
G37*
G36*
X1318D02*
X1294D01*
Y-141D01*
X1318D01*
Y-118D01*
D02*
G37*
G36*
X213Y-120D02*
X190D01*
Y-144D01*
X213D01*
Y-120D01*
D02*
G37*
G36*
X130Y-120D02*
X107D01*
Y-144D01*
X130D01*
Y-120D01*
D02*
G37*
G36*
Y-154D02*
X107D01*
Y-179D01*
X130D01*
Y-154D01*
D02*
G37*
G36*
X213D02*
X190D01*
Y-179D01*
X213D01*
Y-154D01*
D02*
G37*
G36*
X163Y-120D02*
X140D01*
Y-149D01*
Y-179D01*
X157D01*
Y-179D01*
X180D01*
Y-149D01*
Y-120D01*
X163D01*
Y-120D01*
D02*
G37*
G36*
X-126Y-147D02*
X-185D01*
X-194Y-149D01*
X-201Y-154D01*
X-206Y-161D01*
X-208Y-170D01*
X-206Y-179D01*
X-201Y-187D01*
X-194Y-192D01*
X-185Y-193D01*
X-126D01*
X-117Y-192D01*
X-109Y-187D01*
X-104Y-179D01*
X-103Y-170D01*
X-104Y-161D01*
X-109Y-154D01*
X-117Y-149D01*
X-126Y-147D01*
D02*
G37*
G36*
X-273D02*
X-304D01*
X-313Y-149D01*
X-321Y-154D01*
X-326Y-161D01*
X-327Y-170D01*
X-326Y-179D01*
X-321Y-187D01*
X-313Y-192D01*
X-304Y-193D01*
X-273D01*
X-264Y-192D01*
X-256Y-187D01*
X-251Y-179D01*
X-250Y-170D01*
X-251Y-161D01*
X-256Y-154D01*
X-264Y-149D01*
X-273Y-147D01*
D02*
G37*
G36*
X44Y-210D02*
X19D01*
Y-233D01*
X44D01*
Y-210D01*
D02*
G37*
G36*
X9D02*
X-16D01*
Y-233D01*
X9D01*
Y-210D01*
D02*
G37*
G36*
X110Y-219D02*
X108Y-219D01*
X101Y-222D01*
X96Y-226D01*
X92Y-231D01*
X89Y-238D01*
X89Y-240D01*
X110D01*
Y-219D01*
D02*
G37*
G36*
X-54Y-185D02*
X-59Y-187D01*
X-64Y-190D01*
X-68Y-195D01*
X-69Y-201D01*
X-68Y-206D01*
X-67Y-208D01*
X-69Y-213D01*
X-80D01*
Y-262D01*
X-26D01*
Y-213D01*
X-38D01*
X-41Y-208D01*
X-40Y-206D01*
X-38Y-201D01*
X-40Y-195D01*
X-43Y-190D01*
X-48Y-187D01*
X-54Y-185D01*
D02*
G37*
G36*
X44Y-243D02*
X19D01*
Y-265D01*
X44D01*
Y-243D01*
D02*
G37*
G36*
X9D02*
X-16D01*
Y-265D01*
X9D01*
Y-243D01*
D02*
G37*
G36*
X1510Y-230D02*
X1440D01*
Y-285D01*
X1428Y-297D01*
X1395D01*
Y-277D01*
X1325D01*
Y-338D01*
X1395D01*
Y-318D01*
X1433D01*
X1436Y-317D01*
X1440Y-315D01*
X1455Y-300D01*
X1510D01*
Y-230D01*
D02*
G37*
G36*
X1299Y-275D02*
X1276D01*
Y-299D01*
X1299D01*
Y-275D01*
D02*
G37*
G36*
X1266D02*
X1243D01*
Y-299D01*
X1266D01*
Y-275D01*
D02*
G37*
G36*
X1029Y-276D02*
X1006D01*
Y-300D01*
X1029D01*
Y-276D01*
D02*
G37*
G36*
X996D02*
X973D01*
Y-300D01*
X996D01*
Y-276D01*
D02*
G37*
G36*
X1299Y-309D02*
X1276D01*
Y-334D01*
X1299D01*
Y-309D01*
D02*
G37*
G36*
X1266D02*
X1243D01*
Y-334D01*
X1266D01*
Y-309D01*
D02*
G37*
G36*
X1029Y-310D02*
X1006D01*
Y-335D01*
X1029D01*
Y-310D01*
D02*
G37*
G36*
X996D02*
X973D01*
Y-335D01*
X996D01*
Y-310D01*
D02*
G37*
G36*
X1116Y-314D02*
X1102D01*
Y-340D01*
X1116D01*
Y-314D01*
D02*
G37*
G36*
X1092D02*
X1077D01*
Y-340D01*
X1092D01*
Y-314D01*
D02*
G37*
%LPD*%
G36*
X379Y-156D02*
Y-157D01*
X380Y-161D01*
X382Y-164D01*
X423Y-204D01*
X426Y-207D01*
X430Y-207D01*
X448D01*
Y-235D01*
X498D01*
Y-208D01*
X512D01*
Y-214D01*
X562D01*
Y-174D01*
X512D01*
X509Y-170D01*
X514Y-165D01*
X878D01*
X907Y-194D01*
X910Y-196D01*
X914Y-197D01*
X1043D01*
X1047Y-196D01*
X1050Y-194D01*
X1078Y-166D01*
X1083Y-168D01*
X1090Y-169D01*
X1097Y-168D01*
X1104Y-165D01*
X1110Y-160D01*
X1114Y-156D01*
X1119Y-158D01*
Y-193D01*
X1117D01*
Y-248D01*
X1113Y-250D01*
X1096D01*
X1073Y-227D01*
X1068Y-223D01*
X1062Y-222D01*
X1026D01*
Y-212D01*
X976D01*
Y-222D01*
X966D01*
X961Y-223D01*
X956Y-227D01*
X862Y-320D01*
X774D01*
X768Y-321D01*
X767Y-322D01*
X748D01*
Y-324D01*
X562D01*
Y-322D01*
X544D01*
X543Y-321D01*
X537Y-320D01*
X437D01*
X351Y-234D01*
X346Y-231D01*
X340Y-230D01*
X339D01*
Y-221D01*
X308D01*
X308Y-220D01*
X306Y-216D01*
X367Y-155D01*
X368Y-155D01*
X374Y-154D01*
X374Y-154D01*
X379Y-156D01*
D02*
G37*
%LPC*%
G36*
X798Y-174D02*
X748D01*
Y-214D01*
X798D01*
Y-174D01*
D02*
G37*
G36*
X893Y-209D02*
Y-235D01*
X919D01*
X919Y-232D01*
X916Y-224D01*
X911Y-217D01*
X904Y-212D01*
X896Y-209D01*
X893Y-209D01*
D02*
G37*
G36*
X883D02*
X880Y-209D01*
X872Y-212D01*
X865Y-217D01*
X860Y-224D01*
X857Y-232D01*
X857Y-235D01*
X883D01*
Y-209D01*
D02*
G37*
G36*
X501Y-246D02*
X478D01*
Y-270D01*
X501D01*
Y-246D01*
D02*
G37*
G36*
X468D02*
X445D01*
Y-270D01*
X468D01*
Y-246D01*
D02*
G37*
G36*
X919Y-245D02*
X893D01*
Y-271D01*
X896Y-271D01*
X904Y-268D01*
X911Y-263D01*
X916Y-256D01*
X919Y-248D01*
X919Y-245D01*
D02*
G37*
G36*
X883D02*
X857D01*
X857Y-248D01*
X860Y-256D01*
X865Y-263D01*
X872Y-268D01*
X880Y-271D01*
X883Y-271D01*
Y-245D01*
D02*
G37*
G36*
X501Y-280D02*
X478D01*
Y-305D01*
X501D01*
Y-280D01*
D02*
G37*
G36*
X468D02*
X445D01*
Y-305D01*
X468D01*
Y-280D01*
D02*
G37*
%LPD*%
D12*
X147Y-4D02*
X198D01*
X465Y-135D02*
Y-132D01*
X449Y-116D02*
X465Y-132D01*
X449Y-76D02*
X449Y-77D01*
X468Y-74D02*
Y-27D01*
X198Y-4D02*
X199Y-4D01*
X472Y-23D02*
X519D01*
X468Y-27D02*
X472Y-23D01*
X449Y-116D02*
Y-77D01*
X124Y-27D02*
X147Y-4D01*
X519Y-23D02*
X521D01*
X477Y-157D02*
X494Y-140D01*
X442Y-157D02*
X477D01*
X429Y-144D02*
X442Y-157D01*
X1090Y-140D02*
Y-40D01*
Y-140D02*
Y-140D01*
X491Y-174D02*
X510Y-155D01*
X434Y-174D02*
X491D01*
X409Y-149D02*
X434Y-174D01*
X519Y134D02*
X622D01*
X199Y-23D02*
X252D01*
X468Y-76D02*
X528D01*
X199Y-73D02*
Y-23D01*
X950Y-75D02*
Y90D01*
Y-75D02*
X961Y-85D01*
Y-140D02*
Y-85D01*
X1194Y38D02*
X1228Y72D01*
X1194Y-164D02*
Y38D01*
Y-164D02*
X1214Y-184D01*
X1210Y25D02*
X1245Y60D01*
X1210Y-153D02*
Y25D01*
Y-153D02*
X1222Y-165D01*
X1214Y-184D02*
X1311D01*
X1293Y60D02*
X1294D01*
X1245D02*
X1293D01*
X1222Y-165D02*
X1444D01*
X1228Y181D02*
X1275Y228D01*
X1228Y72D02*
Y181D01*
X424Y134D02*
X519D01*
X252Y244D02*
Y319D01*
Y193D02*
Y244D01*
X468Y-76D02*
Y-74D01*
X817Y115D02*
X830Y127D01*
X720Y115D02*
X817D01*
X820Y-54D02*
X830Y-64D01*
X751Y-54D02*
X820D01*
X751D02*
Y-13D01*
X650Y-54D02*
X650Y-54D01*
X751D01*
X650Y-54D02*
Y15D01*
X665Y60D02*
X720Y115D01*
X625Y40D02*
X650Y15D01*
X473Y-212D02*
X488Y-198D01*
X459Y-197D02*
X473Y-212D01*
X430Y-197D02*
X459D01*
X390Y-157D02*
X430Y-197D01*
X390Y-157D02*
Y-76D01*
X473Y-212D02*
Y-212D01*
Y-214D02*
Y-212D01*
X527Y-199D02*
X537Y-189D01*
X488Y-198D02*
X527D01*
X-54Y-238D02*
Y-201D01*
X-57Y195D02*
X-22D01*
X-72Y180D02*
X-57Y195D01*
X-72Y94D02*
Y180D01*
X-116Y50D02*
X-72Y94D01*
X252Y-135D02*
Y-77D01*
X252Y-76D02*
X252Y-77D01*
X298Y-210D02*
X368Y-140D01*
X200Y-210D02*
X298D01*
X115Y-295D02*
X200Y-210D01*
X882Y-155D02*
X914Y-187D01*
X510Y-155D02*
X882D01*
X-83Y-1D02*
X-50D01*
X-84Y-1D02*
X-83Y-1D01*
X-117Y50D02*
X-116D01*
X-81Y-37D02*
X-49D01*
X-101Y-17D02*
X-81Y-37D01*
X-117Y-17D02*
X-101D01*
X-53Y37D02*
X-49Y33D01*
X-58D02*
X-49D01*
X-80Y37D02*
X-53D01*
X-100Y17D02*
X-80Y37D01*
X-117Y17D02*
X-100D01*
X45Y-37D02*
X85D01*
X104Y67D02*
X115Y55D01*
X199D01*
X45Y37D02*
X47Y36D01*
X198D01*
X199Y36D01*
X-50Y-1D02*
X-49Y-0D01*
X-117Y17D02*
X-115Y19D01*
X-117Y50D02*
X-115Y52D01*
X-170Y17D02*
X-117Y-17D01*
X914Y-187D02*
X1043D01*
X195Y-77D02*
X199Y-73D01*
X258Y-17D02*
X265D01*
X252Y-23D02*
X258Y-17D01*
X199Y-23D02*
X199Y-23D01*
X528Y-76D02*
X532Y-80D01*
X468Y-27D02*
Y-23D01*
X452Y-7D02*
X468Y-23D01*
X125Y7D02*
X128D01*
X137Y16D01*
X199D01*
X680Y310D02*
X725D01*
X660Y330D02*
X680Y310D01*
X375Y330D02*
X660D01*
X494Y-140D02*
X950D01*
X585Y40D02*
X625D01*
X590Y60D02*
X665D01*
X650Y315D02*
X712Y252D01*
X390Y315D02*
X650D01*
X570Y55D02*
X585Y40D01*
X521Y55D02*
X570D01*
X575Y75D02*
X590Y60D01*
X521Y75D02*
X575D01*
X409Y-149D02*
Y-76D01*
X370Y295D02*
X390Y315D01*
X970Y110D02*
X1106D01*
X950Y90D02*
X970Y110D01*
X1435Y10D02*
X1468Y43D01*
X1435Y10D02*
X1490Y-45D01*
X1294Y10D02*
X1435D01*
X521Y95D02*
X581D01*
X588Y88D01*
X603D01*
X350Y246D02*
Y305D01*
X375Y330D01*
X370Y246D02*
Y295D01*
X792Y310D02*
X865D01*
X792Y250D02*
X865D01*
X429Y-144D02*
Y-76D01*
X1565Y-45D02*
X1570Y-50D01*
X1468Y43D02*
Y156D01*
X1575Y263D01*
X1555Y-195D02*
Y-150D01*
Y-195D02*
X1575Y-215D01*
Y-265D02*
Y-215D01*
X1360Y-307D02*
X1433D01*
X1475Y-265D01*
X1043Y-187D02*
X1090Y-140D01*
X1311Y-184D02*
X1360Y-233D01*
X1444Y-165D02*
X1459Y-150D01*
X1555D01*
X1490Y-45D02*
X1565D01*
X1438Y302D02*
X1475Y265D01*
X1360Y302D02*
X1438D01*
X1275Y228D02*
X1360D01*
D40*
X519Y-23D02*
D03*
Y-4D02*
D03*
Y16D02*
D03*
Y36D02*
D03*
Y55D02*
D03*
Y75D02*
D03*
Y95D02*
D03*
Y115D02*
D03*
Y134D02*
D03*
Y154D02*
D03*
Y174D02*
D03*
Y193D02*
D03*
X201D02*
D03*
Y174D02*
D03*
Y154D02*
D03*
Y134D02*
D03*
Y115D02*
D03*
Y95D02*
D03*
Y75D02*
D03*
Y55D02*
D03*
Y36D02*
D03*
Y16D02*
D03*
Y-4D02*
D03*
Y-23D02*
D03*
D41*
X468Y244D02*
D03*
X449D02*
D03*
X429D02*
D03*
X409D02*
D03*
X390D02*
D03*
X370D02*
D03*
X350D02*
D03*
X330D02*
D03*
X311D02*
D03*
X291D02*
D03*
X271D02*
D03*
X252D02*
D03*
Y-74D02*
D03*
X271D02*
D03*
X291D02*
D03*
X311D02*
D03*
X330D02*
D03*
X350D02*
D03*
X370D02*
D03*
X390D02*
D03*
X409D02*
D03*
X429D02*
D03*
X449D02*
D03*
X468D02*
D03*
D42*
X1097Y-309D02*
D03*
X1171D02*
D03*
X1134Y-221D02*
D03*
D43*
X931Y310D02*
D03*
X865D02*
D03*
X931Y250D02*
D03*
X865D02*
D03*
X14Y-238D02*
D03*
X-53D02*
D03*
X45Y195D02*
D03*
X-22D02*
D03*
X-22Y128D02*
D03*
X45D02*
D03*
X303Y322D02*
D03*
X237D02*
D03*
X598Y-86D02*
D03*
X532D02*
D03*
X725Y310D02*
D03*
X792D02*
D03*
X725Y250D02*
D03*
X792D02*
D03*
X1323Y-113D02*
D03*
X1257D02*
D03*
D44*
X1293Y-40D02*
D03*
Y10D02*
D03*
Y60D02*
D03*
Y110D02*
D03*
X1107Y-40D02*
D03*
Y10D02*
D03*
Y60D02*
D03*
Y110D02*
D03*
D45*
X751Y73D02*
D03*
X689D02*
D03*
Y-13D02*
D03*
X751D02*
D03*
D46*
X135Y-149D02*
D03*
Y-83D02*
D03*
X1271Y-304D02*
D03*
Y-238D02*
D03*
X1001Y-305D02*
D03*
Y-239D02*
D03*
X615Y152D02*
D03*
Y218D02*
D03*
X473Y-209D02*
D03*
Y-275D02*
D03*
X185Y-149D02*
D03*
Y-83D02*
D03*
X830Y60D02*
D03*
Y127D02*
D03*
Y-64D02*
D03*
Y2D02*
D03*
X1015Y-8D02*
D03*
Y58D02*
D03*
D47*
X-49Y37D02*
D03*
Y-0D02*
D03*
Y-37D02*
D03*
X45D02*
D03*
Y-0D02*
D03*
Y37D02*
D03*
D48*
X537Y-342D02*
D03*
Y-194D02*
D03*
X773D02*
D03*
Y-342D02*
D03*
D49*
X1360Y302D02*
D03*
Y228D02*
D03*
Y-233D02*
D03*
Y-307D02*
D03*
X1275Y302D02*
D03*
Y228D02*
D03*
D50*
X1267Y-68D02*
Y-40D01*
X1249Y-113D02*
Y-86D01*
X966Y-238D02*
X1062D01*
X1172Y-311D02*
Y-275D01*
X573Y-339D02*
X774D01*
X430Y-335D02*
X537D01*
X140Y-84D02*
X188D01*
X340Y-245D02*
X430Y-335D01*
X315Y-245D02*
X340D01*
X1147Y-234D02*
X1271D01*
X1134Y-220D02*
X1134Y-221D01*
X869Y-335D02*
X966Y-238D01*
X774Y-335D02*
X869D01*
X1020Y-4D02*
X1043D01*
X1015Y-8D02*
X1020Y-4D01*
X1043D02*
X1057Y10D01*
X1174D02*
Y46D01*
Y-92D02*
Y10D01*
Y46D02*
X1174Y46D01*
X1134Y-132D02*
X1174Y-92D01*
X1134Y-220D02*
Y-132D01*
X1107Y10D02*
X1174D01*
X1057D02*
X1107D01*
X1174Y46D02*
Y136D01*
X1160Y150D02*
X1174Y136D01*
X1090Y-265D02*
X1162D01*
X1062Y-238D02*
X1090Y-265D01*
X1162D02*
X1172Y-275D01*
X537Y-339D02*
X573D01*
X-170Y84D02*
X-117D01*
X45Y98D02*
Y128D01*
X8Y61D02*
X45Y98D01*
X8Y-0D02*
Y61D01*
X-203Y67D02*
X-187Y83D01*
X-203Y-67D02*
Y67D01*
Y-67D02*
X-187Y-84D01*
X-170D01*
X-187Y83D02*
X-171D01*
X8Y-69D02*
Y-0D01*
X-7Y-84D02*
X8Y-69D01*
X-117Y-84D02*
X-7D01*
X188Y-84D02*
X195Y-77D01*
X8Y-0D02*
X45D01*
X-170Y-84D02*
X-117D01*
X-171Y83D02*
X-170Y84D01*
X945Y150D02*
X1160D01*
X915D02*
X945D01*
X1249Y-86D02*
X1267Y-68D01*
D51*
X360Y85D02*
D03*
D52*
X-288Y170D02*
D03*
Y-170D02*
D03*
D53*
X-155D02*
D03*
Y170D02*
D03*
D54*
X-170Y117D02*
D03*
Y84D02*
D03*
Y50D02*
D03*
Y17D02*
D03*
Y-17D02*
D03*
Y-50D02*
D03*
Y-84D02*
D03*
Y-117D02*
D03*
X-117D02*
D03*
Y-84D02*
D03*
Y-50D02*
D03*
Y-17D02*
D03*
Y17D02*
D03*
Y50D02*
D03*
Y84D02*
D03*
Y117D02*
D03*
D55*
X1475Y265D02*
D03*
Y-265D02*
D03*
D56*
X1575Y265D02*
D03*
Y-265D02*
D03*
D57*
X1555Y150D02*
D03*
Y50D02*
D03*
Y-50D02*
D03*
Y-150D02*
D03*
D58*
X888Y-240D02*
D03*
X1090Y-140D02*
D03*
X961D02*
D03*
D59*
X315Y-245D02*
D03*
D60*
Y-295D02*
D03*
X265Y-245D02*
D03*
Y-295D02*
D03*
X215Y-245D02*
D03*
Y-295D02*
D03*
X165D02*
D03*
X115Y-245D02*
D03*
Y-295D02*
D03*
D61*
X465Y-135D02*
D03*
X573Y-339D02*
D03*
X1120Y-80D02*
D03*
X252Y-135D02*
D03*
X368Y-140D02*
D03*
X14Y-280D02*
D03*
X1062Y-238D02*
D03*
X1049Y-282D02*
D03*
X945Y150D02*
D03*
X430Y35D02*
D03*
X1195Y200D02*
D03*
X1290Y165D02*
D03*
X630Y105D02*
D03*
X895Y-90D02*
D03*
X603Y88D02*
D03*
X650Y-100D02*
D03*
X1010Y-70D02*
D03*
Y-140D02*
D03*
X915Y150D02*
D03*
X100Y310D02*
D03*
X550Y260D02*
D03*
X1386Y79D02*
D03*
X14Y-192D02*
D03*
X1387Y-14D02*
D03*
X1415Y-358D02*
D03*
X858Y200D02*
D03*
X800D02*
D03*
X681D02*
D03*
X210Y260D02*
D03*
X585Y1D02*
D03*
X895Y-5D02*
D03*
X975Y60D02*
D03*
X895Y50D02*
D03*
X790Y-100D02*
D03*
X240Y-320D02*
D03*
X140D02*
D03*
X372Y-342D02*
D03*
X985Y200D02*
D03*
X1110D02*
D03*
X1204Y110D02*
D03*
X1387Y-110D02*
D03*
X1076Y-188D02*
D03*
X1501Y-183D02*
D03*
X1220Y-264D02*
D03*
X1183Y-362D02*
D03*
X953Y-306D02*
D03*
X1267Y-68D02*
D03*
X1413Y-262D02*
D03*
X1196Y297D02*
D03*
D62*
X790Y-271D02*
D03*
X650Y-270D02*
D03*
X254Y-190D02*
D03*
X74D02*
D03*
Y-90D02*
D03*
X224D02*
D03*
X-95Y240D02*
D03*
X895Y120D02*
D03*
X680Y123D02*
D03*
X129Y202D02*
D03*
Y112D02*
D03*
X89Y113D02*
D03*
X304Y363D02*
D03*
X-54Y-201D02*
D03*
X89Y203D02*
D03*
X45Y240D02*
D03*
X-22Y85D02*
D03*
X-84Y-1D02*
D03*
X-17D02*
D03*
X85Y-37D02*
D03*
X104Y67D02*
D03*
X125Y7D02*
D03*
M02*
