G04*
G04 #@! TF.GenerationSoftware,Altium Limited,Altium Designer,19.1.8 (144)*
G04*
G04 Layer_Color=32896*
%FSLAX23Y23*%
%MOIN*%
G70*
G01*
G75*
%ADD12C,0.010*%
%ADD18C,0.008*%
D12*
X1159Y282D02*
Y242D01*
X1139Y222D01*
X1119Y242D01*
Y282D01*
X1099Y222D02*
X1079D01*
X1089D01*
Y282D01*
X1099Y272D01*
X1049Y222D02*
Y232D01*
X1039D01*
Y222D01*
X1049D01*
X999Y272D02*
X989Y282D01*
X969D01*
X959Y272D01*
Y262D01*
X969Y252D01*
X979D01*
X969D01*
X959Y242D01*
Y232D01*
X969Y222D01*
X989D01*
X999Y232D01*
D18*
X1442Y168D02*
X1452Y178D01*
X1472D01*
X1482Y168D01*
Y128D01*
X1472Y118D01*
X1452D01*
X1442Y128D01*
Y148D01*
X1462D01*
X1422Y118D02*
Y178D01*
X1382Y118D01*
Y178D01*
X1362D02*
Y118D01*
X1332D01*
X1322Y128D01*
Y168D01*
X1332Y178D01*
X1362D01*
X1450Y-30D02*
X1460Y-20D01*
X1480D01*
X1490Y-30D01*
Y-70D01*
X1480Y-80D01*
X1460D01*
X1450Y-70D01*
X1430Y-80D02*
Y-40D01*
X1410Y-20D01*
X1390Y-40D01*
Y-80D01*
Y-50D01*
X1430D01*
X1370Y-80D02*
Y-20D01*
X1330Y-80D01*
Y-20D01*
X1310Y-90D02*
X1270D01*
X1250Y-20D02*
Y-80D01*
X1210D01*
X1450Y-130D02*
X1460Y-120D01*
X1480D01*
X1490Y-130D01*
Y-170D01*
X1480Y-180D01*
X1460D01*
X1450Y-170D01*
X1430Y-180D02*
Y-140D01*
X1410Y-120D01*
X1390Y-140D01*
Y-180D01*
Y-150D01*
X1430D01*
X1370Y-180D02*
Y-120D01*
X1330Y-180D01*
Y-120D01*
X1310Y-190D02*
X1270D01*
X1250Y-120D02*
Y-180D01*
Y-150D01*
X1210D01*
Y-120D01*
Y-180D01*
X1122Y358D02*
X1132Y368D01*
X1152D01*
X1162Y358D01*
Y318D01*
X1152Y308D01*
X1132D01*
X1122Y318D01*
X1102Y308D02*
Y348D01*
X1082Y368D01*
X1062Y348D01*
Y308D01*
Y338D01*
X1102D01*
X1042Y308D02*
Y368D01*
X1002Y308D01*
Y368D01*
X972Y358D02*
Y348D01*
X982D01*
X962D01*
X972D01*
Y318D01*
X962Y308D01*
X922Y348D02*
X902D01*
X892Y338D01*
Y308D01*
X922D01*
X932Y318D01*
X922Y328D01*
X892D01*
X832Y348D02*
X862D01*
X872Y338D01*
Y318D01*
X862Y308D01*
X832D01*
X802Y358D02*
Y348D01*
X812D01*
X792D01*
X802D01*
Y318D01*
X792Y308D01*
X702Y338D02*
X662D01*
X542Y358D02*
X552Y368D01*
X572D01*
X582Y358D01*
Y318D01*
X572Y308D01*
X552D01*
X542Y318D01*
X522Y308D02*
Y348D01*
X502Y368D01*
X482Y348D01*
Y308D01*
Y338D01*
X522D01*
X462Y308D02*
Y368D01*
X422Y308D01*
Y368D01*
X342D02*
X322D01*
X332D01*
Y308D01*
X342D01*
X322D01*
X292D02*
Y348D01*
X262D01*
X252Y338D01*
Y308D01*
X222Y358D02*
Y348D01*
X232D01*
X212D01*
X222D01*
Y318D01*
X212Y308D01*
X152D02*
X172D01*
X182Y318D01*
Y338D01*
X172Y348D01*
X152D01*
X142Y338D01*
Y328D01*
X182D01*
X122Y348D02*
Y308D01*
Y328D01*
X112Y338D01*
X102Y348D01*
X92D01*
X52Y308D02*
Y358D01*
Y338D01*
X62D01*
X42D01*
X52D01*
Y358D01*
X42Y368D01*
X2Y348D02*
X-18D01*
X-28Y338D01*
Y308D01*
X2D01*
X12Y318D01*
X2Y328D01*
X-28D01*
X-88Y348D02*
X-58D01*
X-48Y338D01*
Y318D01*
X-58Y308D01*
X-88D01*
X-138D02*
X-118D01*
X-108Y318D01*
Y338D01*
X-118Y348D01*
X-138D01*
X-148Y338D01*
Y328D01*
X-108D01*
M02*
