G04*
G04 #@! TF.GenerationSoftware,Altium Limited,Altium Designer,19.1.8 (144)*
G04*
G04 Layer_Physical_Order=1*
G04 Layer_Color=255*
%FSLAX23Y23*%
%MOIN*%
G70*
G01*
G75*
%ADD12C,0.010*%
%ADD38C,0.039*%
%ADD39R,0.043X0.039*%
%ADD40O,0.071X0.012*%
%ADD41O,0.012X0.071*%
%ADD42R,0.024X0.045*%
%ADD43O,0.075X0.024*%
%ADD44R,0.047X0.055*%
%ADD45R,0.039X0.043*%
%ADD46R,0.043X0.026*%
%ADD47R,0.040X0.030*%
%ADD48R,0.059X0.051*%
%ADD49C,0.020*%
%ADD50R,0.220X0.220*%
%ADD51O,0.067X0.035*%
%ADD52O,0.094X0.035*%
%ADD53O,0.026X0.024*%
%ADD54R,0.059X0.059*%
%ADD55C,0.059*%
%ADD56O,0.087X0.071*%
%ADD57C,0.047*%
%ADD58C,0.020*%
%ADD59C,0.020*%
G36*
X1676Y-385D02*
X-347D01*
Y385D01*
X1676D01*
Y-385D01*
D02*
G37*
%LPC*%
G36*
X333Y350D02*
X308D01*
Y327D01*
X333D01*
Y350D01*
D02*
G37*
G36*
X298D02*
X274D01*
Y327D01*
X298D01*
Y350D01*
D02*
G37*
G36*
X891Y335D02*
X838D01*
Y321D01*
X838Y321D01*
X837Y321D01*
X836Y321D01*
X835Y320D01*
X833Y320D01*
X832Y320D01*
X824D01*
X824Y320D01*
X822Y320D01*
X820Y321D01*
X819Y321D01*
X819Y321D01*
X819Y321D01*
Y335D01*
X765D01*
Y285D01*
X819D01*
Y299D01*
X819Y299D01*
X819Y299D01*
X820Y299D01*
X822Y300D01*
X824Y300D01*
X824Y300D01*
X832D01*
X833Y300D01*
X835Y300D01*
X836Y299D01*
X837Y299D01*
X838Y299D01*
X838Y299D01*
Y285D01*
X891D01*
Y335D01*
D02*
G37*
G36*
X961Y338D02*
X936D01*
Y315D01*
X961D01*
Y338D01*
D02*
G37*
G36*
X926D02*
X902D01*
Y315D01*
X926D01*
Y338D01*
D02*
G37*
G36*
X1313Y336D02*
X1280D01*
Y307D01*
X1313D01*
Y336D01*
D02*
G37*
G36*
X1270D02*
X1237D01*
Y307D01*
X1270D01*
Y336D01*
D02*
G37*
G36*
X333Y317D02*
X308D01*
Y294D01*
X333D01*
Y317D01*
D02*
G37*
G36*
X298D02*
X274D01*
Y294D01*
X298D01*
Y317D01*
D02*
G37*
G36*
X263Y347D02*
X210D01*
Y297D01*
X241D01*
X241Y297D01*
X241Y297D01*
X241Y296D01*
X241Y295D01*
X241Y294D01*
X241Y292D01*
X242Y292D01*
Y287D01*
X241Y287D01*
X241Y281D01*
X241Y278D01*
X241Y278D01*
X241Y277D01*
X241Y277D01*
X241Y276D01*
X241Y276D01*
X241Y274D01*
Y215D01*
X241Y213D01*
X241Y213D01*
X241Y213D01*
X241Y212D01*
X241Y205D01*
X236Y202D01*
X234Y204D01*
X230Y204D01*
X171D01*
X167Y204D01*
X163Y201D01*
X161Y198D01*
X160Y193D01*
X161Y189D01*
X162Y187D01*
X163Y183D01*
X162Y180D01*
X161Y178D01*
X160Y174D01*
X161Y169D01*
X162Y167D01*
X163Y164D01*
X162Y160D01*
X161Y158D01*
X160Y154D01*
X161Y150D01*
X162Y147D01*
X163Y144D01*
X162Y141D01*
X161Y138D01*
X160Y134D01*
X161Y130D01*
X162Y128D01*
X163Y124D01*
X162Y121D01*
X161Y119D01*
X160Y115D01*
X161Y110D01*
X162Y108D01*
X163Y105D01*
X162Y101D01*
X161Y99D01*
X160Y95D01*
X161Y91D01*
X162Y88D01*
X163Y85D01*
X162Y82D01*
X161Y79D01*
X160Y75D01*
X161Y71D01*
X161Y71D01*
X158Y66D01*
X158Y66D01*
X157Y66D01*
X120D01*
X120Y66D01*
X119Y66D01*
X119Y67D01*
X119Y67D01*
X119Y67D01*
X119Y67D01*
X119Y67D01*
X119Y67D01*
X119Y67D01*
X118Y72D01*
X115Y77D01*
X110Y81D01*
X104Y82D01*
X98Y81D01*
X93Y77D01*
X90Y72D01*
X89Y67D01*
X90Y61D01*
X93Y56D01*
X98Y53D01*
X100Y52D01*
X100Y52D01*
X101Y51D01*
X97Y46D01*
X77D01*
X77Y47D01*
X75Y47D01*
X74Y47D01*
X73Y47D01*
X72Y47D01*
X72Y47D01*
X72Y47D01*
Y55D01*
X30D01*
X28Y60D01*
X55Y87D01*
X59Y92D01*
X60Y97D01*
X60Y98D01*
X60Y103D01*
X71D01*
Y153D01*
X18D01*
Y103D01*
X22D01*
X24Y99D01*
X-3Y72D01*
X-6Y67D01*
X-7Y61D01*
Y1D01*
X-7Y1D01*
X-7Y1D01*
Y-1D01*
X-7Y-1D01*
X-7Y-1D01*
Y-63D01*
X-13Y-68D01*
X-89D01*
X-89Y-68D01*
X-96Y-68D01*
X-103Y-68D01*
X-104Y-63D01*
X-104Y-63D01*
X-100Y-57D01*
X-99Y-50D01*
X-100Y-43D01*
X-104Y-38D01*
X-104Y-37D01*
X-103Y-32D01*
X-101Y-32D01*
X-88Y-45D01*
X-84Y-47D01*
X-82Y-47D01*
X-81Y-48D01*
X-79Y-48D01*
X-78Y-48D01*
X-77Y-48D01*
X-76Y-48D01*
X-76Y-48D01*
Y-55D01*
X-23D01*
Y-21D01*
X-20D01*
Y-5D01*
X-49D01*
Y5D01*
X-20D01*
Y21D01*
X-23D01*
Y55D01*
X-76D01*
Y48D01*
X-76Y48D01*
X-77Y48D01*
X-78Y48D01*
X-80Y48D01*
X-81Y47D01*
X-83Y47D01*
X-87Y45D01*
X-101Y31D01*
X-104Y32D01*
X-105Y37D01*
X-104Y38D01*
X-100Y43D01*
X-99Y47D01*
X-99Y47D01*
X-99Y48D01*
X-99Y48D01*
X-99Y48D01*
X-99Y50D01*
X-99Y52D01*
X-98Y53D01*
X-96Y56D01*
X-94Y58D01*
X-94Y58D01*
X-65Y87D01*
X-63Y90D01*
X-62Y94D01*
Y175D01*
X-54Y183D01*
X-49Y181D01*
Y170D01*
X4D01*
Y220D01*
X-49D01*
Y206D01*
X-49Y206D01*
X-50Y206D01*
X-51Y206D01*
X-52Y205D01*
X-54Y205D01*
X-54Y205D01*
X-57D01*
X-60Y204D01*
X-64Y202D01*
X-79Y187D01*
X-81Y183D01*
X-82Y180D01*
Y99D01*
X-94Y87D01*
X-100Y88D01*
X-100Y90D01*
X-103Y95D01*
X-104Y98D01*
Y101D01*
X-102Y103D01*
X-97Y109D01*
X-97Y112D01*
X-117D01*
X-137D01*
X-136Y109D01*
X-133Y105D01*
X-136Y99D01*
X-141Y99D01*
X-143Y99D01*
X-150Y99D01*
X-151Y99D01*
X-151Y99D01*
X-154Y104D01*
X-150Y109D01*
X-150Y112D01*
X-170D01*
Y117D01*
D01*
Y112D01*
X-190D01*
X-190Y109D01*
X-185Y103D01*
X-186Y101D01*
X-187Y98D01*
X-187Y98D01*
X-193Y97D01*
X-198Y94D01*
X-214Y78D01*
X-217Y73D01*
X-219Y67D01*
Y-67D01*
X-217Y-73D01*
X-214Y-78D01*
X-197Y-94D01*
X-192Y-98D01*
X-188Y-99D01*
X-187Y-100D01*
X-186Y-102D01*
X-186Y-104D01*
X-190Y-109D01*
X-190Y-112D01*
X-170D01*
X-150D01*
X-150Y-109D01*
X-153Y-105D01*
X-151Y-99D01*
X-146Y-99D01*
X-144Y-99D01*
X-137Y-99D01*
X-135Y-99D01*
X-135Y-99D01*
X-133Y-104D01*
X-136Y-109D01*
X-137Y-112D01*
X-117D01*
X-97D01*
X-97Y-109D01*
X-100Y-105D01*
X-98Y-99D01*
X-93Y-99D01*
X-89Y-99D01*
X-89Y-99D01*
X-7D01*
X-1Y-98D01*
X4Y-94D01*
X19Y-80D01*
X22Y-75D01*
X23Y-69D01*
Y-55D01*
X72D01*
Y-53D01*
X72Y-53D01*
X77Y-50D01*
X79Y-51D01*
X85Y-53D01*
X91Y-51D01*
X95Y-48D01*
X99Y-43D01*
X100Y-37D01*
X99Y-32D01*
X95Y-27D01*
X91Y-23D01*
X85Y-22D01*
X79Y-23D01*
X77Y-25D01*
X75Y-24D01*
X72Y-20D01*
Y-18D01*
X72D01*
X72Y-15D01*
Y15D01*
X72Y18D01*
X72D01*
Y20D01*
X72D01*
Y25D01*
X72Y25D01*
X72Y25D01*
X73Y25D01*
X74Y26D01*
X75Y26D01*
X77Y26D01*
X77Y26D01*
X121D01*
X122Y21D01*
X119Y20D01*
X114Y17D01*
X111Y12D01*
X110Y7D01*
X111Y1D01*
X114Y-4D01*
X119Y-7D01*
X125Y-9D01*
X131Y-7D01*
X136Y-4D01*
X139Y1D01*
X139Y3D01*
X139Y3D01*
X140Y3D01*
X140Y3D01*
X140Y3D01*
X140Y3D01*
X140Y4D01*
X140Y4D01*
X140Y4D01*
X140Y4D01*
X142Y6D01*
X155D01*
X156Y4D01*
X158Y1D01*
X165D01*
X168Y2D01*
X168Y2D01*
X169Y2D01*
Y1D01*
X201D01*
Y-9D01*
X169D01*
Y-9D01*
X169Y-9D01*
X168Y-9D01*
X159Y-9D01*
X159Y-9D01*
X158D01*
X158Y-9D01*
X159Y-11D01*
X160Y-12D01*
X160Y-12D01*
X161Y-14D01*
X161Y-19D01*
X161Y-19D01*
X160Y-23D01*
X161Y-28D01*
X163Y-31D01*
X167Y-34D01*
X171Y-34D01*
X173D01*
X173Y-34D01*
X173Y-35D01*
X173Y-36D01*
X174Y-38D01*
X174Y-39D01*
X174Y-40D01*
Y-50D01*
X174Y-51D01*
X174Y-53D01*
X173Y-54D01*
X173Y-55D01*
X173Y-56D01*
X173Y-56D01*
X160D01*
Y-56D01*
X160Y-56D01*
Y-56D01*
X110D01*
Y-109D01*
X160D01*
Y-109D01*
X160Y-109D01*
X160Y-109D01*
X210D01*
Y-56D01*
X195D01*
X195Y-56D01*
X195Y-55D01*
X195Y-54D01*
X194Y-53D01*
X194Y-51D01*
X194Y-50D01*
Y-40D01*
X194Y-39D01*
X194Y-38D01*
X195Y-36D01*
X195Y-35D01*
X195Y-34D01*
X195Y-34D01*
X230D01*
X232Y-34D01*
X232Y-34D01*
X233Y-34D01*
X233Y-34D01*
X233Y-34D01*
X241Y-33D01*
X242Y-34D01*
X242Y-36D01*
X243Y-38D01*
X241Y-41D01*
X241Y-45D01*
Y-104D01*
X241Y-106D01*
X241Y-106D01*
X241Y-107D01*
X241Y-107D01*
X242Y-116D01*
X242Y-117D01*
X242Y-118D01*
X242Y-118D01*
X242Y-118D01*
Y-120D01*
X242Y-120D01*
X242Y-122D01*
X241Y-123D01*
X241Y-123D01*
X241Y-124D01*
X241Y-124D01*
X241Y-124D01*
X241Y-124D01*
X241Y-124D01*
X241Y-124D01*
X241Y-124D01*
X241Y-124D01*
X241Y-125D01*
X238Y-129D01*
X237Y-135D01*
X238Y-141D01*
X241Y-146D01*
X246Y-149D01*
X252Y-150D01*
X258Y-149D01*
X263Y-146D01*
X266Y-141D01*
X267Y-135D01*
X266Y-129D01*
X263Y-125D01*
X263Y-124D01*
X263Y-124D01*
X263Y-124D01*
X263Y-124D01*
X263Y-124D01*
X263Y-124D01*
X263Y-124D01*
X263Y-124D01*
X263Y-123D01*
X263Y-123D01*
X262Y-121D01*
X262Y-120D01*
X262Y-120D01*
Y-117D01*
X262Y-117D01*
X263Y-116D01*
X267Y-114D01*
X267Y-114D01*
X271Y-115D01*
X276Y-114D01*
X278Y-113D01*
X281Y-112D01*
X285Y-113D01*
X287Y-114D01*
X291Y-115D01*
X295Y-114D01*
X298Y-113D01*
X301Y-112D01*
X304Y-113D01*
X307Y-114D01*
X311Y-115D01*
X315Y-114D01*
X317Y-113D01*
X321Y-112D01*
X324Y-113D01*
X326Y-114D01*
X330Y-115D01*
X335Y-114D01*
X337Y-113D01*
X340Y-112D01*
X344Y-113D01*
X346Y-114D01*
X350Y-115D01*
X354Y-114D01*
X357Y-113D01*
X360Y-112D01*
X363Y-113D01*
X366Y-114D01*
X370Y-115D01*
X374Y-114D01*
X374Y-114D01*
X379Y-117D01*
X379Y-117D01*
X379Y-118D01*
Y-135D01*
X374Y-136D01*
X372Y-132D01*
X367Y-129D01*
X361Y-128D01*
X355Y-129D01*
X350Y-132D01*
X347Y-137D01*
X346Y-142D01*
X346Y-143D01*
X346Y-143D01*
X346Y-143D01*
X346Y-143D01*
X346Y-143D01*
X346Y-143D01*
X345Y-143D01*
X345Y-144D01*
X345Y-144D01*
X345Y-144D01*
X344Y-146D01*
X343Y-146D01*
X343Y-147D01*
X308Y-181D01*
X237D01*
X233Y-182D01*
X230Y-184D01*
X167Y-248D01*
X162Y-246D01*
X162Y-245D01*
X161Y-238D01*
X158Y-231D01*
X154Y-225D01*
X148Y-221D01*
X141Y-218D01*
X139Y-218D01*
Y-245D01*
X129D01*
Y-218D01*
X127Y-218D01*
X120Y-221D01*
X114Y-225D01*
X110Y-231D01*
X107Y-238D01*
X106Y-245D01*
X106Y-246D01*
X101Y-249D01*
X98Y-246D01*
X91Y-243D01*
X89Y-243D01*
Y-270D01*
Y-297D01*
X91Y-297D01*
X98Y-294D01*
X104Y-290D01*
X105Y-288D01*
X110Y-290D01*
X109Y-295D01*
X111Y-305D01*
X116Y-313D01*
X124Y-318D01*
X134Y-320D01*
X144Y-318D01*
X152Y-313D01*
X156Y-306D01*
X157Y-306D01*
X161D01*
X162Y-306D01*
X166Y-313D01*
X174Y-318D01*
X184Y-320D01*
X194Y-318D01*
X202Y-313D01*
X206Y-306D01*
X207Y-306D01*
X211D01*
X212Y-306D01*
X216Y-313D01*
X224Y-318D01*
X232Y-320D01*
X233Y-321D01*
X235Y-324D01*
X236Y-325D01*
X235Y-329D01*
X236Y-335D01*
X239Y-340D01*
X244Y-343D01*
X250Y-344D01*
X256Y-343D01*
X261Y-340D01*
X264Y-335D01*
X265Y-330D01*
X265Y-330D01*
X265Y-329D01*
X265Y-329D01*
X265Y-329D01*
X265Y-329D01*
X265Y-329D01*
X265Y-329D01*
X266Y-328D01*
X266Y-328D01*
X267Y-327D01*
X268Y-326D01*
X268Y-326D01*
X270Y-323D01*
X271Y-323D01*
X272Y-322D01*
X273Y-321D01*
X274Y-320D01*
X275Y-320D01*
X275Y-320D01*
X276Y-319D01*
X276Y-319D01*
X277Y-319D01*
X277Y-319D01*
X278Y-319D01*
X279Y-319D01*
X279Y-319D01*
X280Y-319D01*
X284Y-320D01*
X285Y-320D01*
X289Y-324D01*
X288Y-328D01*
X289Y-334D01*
X292Y-339D01*
X297Y-342D01*
X303Y-343D01*
X309Y-342D01*
X314Y-339D01*
X317Y-334D01*
X318Y-328D01*
X318Y-327D01*
X318Y-327D01*
X318Y-327D01*
X318Y-327D01*
X318Y-326D01*
X318Y-326D01*
X318Y-326D01*
X318Y-326D01*
X318Y-326D01*
X318Y-326D01*
X319Y-325D01*
X319Y-324D01*
X320Y-324D01*
X320Y-323D01*
X320Y-323D01*
X321Y-323D01*
X322Y-322D01*
X323Y-321D01*
X324Y-320D01*
X325Y-320D01*
X325Y-320D01*
X326Y-319D01*
X326Y-319D01*
X327Y-319D01*
X327Y-319D01*
X328Y-319D01*
X329Y-319D01*
X329Y-319D01*
X330Y-319D01*
X334Y-320D01*
X344Y-318D01*
X352Y-313D01*
X357Y-305D01*
X359Y-295D01*
X358Y-290D01*
X363Y-288D01*
X364Y-290D01*
X370Y-294D01*
X377Y-297D01*
X379Y-297D01*
Y-270D01*
Y-243D01*
X377Y-243D01*
X370Y-246D01*
X364Y-250D01*
X363Y-252D01*
X358Y-250D01*
X359Y-245D01*
X359Y-243D01*
X359Y-243D01*
X359Y-242D01*
X359Y-242D01*
X359Y-241D01*
X359Y-240D01*
X359Y-240D01*
X359Y-239D01*
X359Y-238D01*
X360Y-238D01*
X360Y-237D01*
X361Y-236D01*
X362Y-235D01*
X363Y-234D01*
X363Y-233D01*
X364Y-232D01*
X396D01*
X419Y-255D01*
Y-322D01*
X419Y-326D01*
X422Y-329D01*
X435Y-343D01*
X438Y-345D01*
X442Y-346D01*
X506D01*
X507Y-346D01*
X509Y-346D01*
X510Y-346D01*
X511Y-346D01*
X512Y-346D01*
X512Y-346D01*
Y-362D01*
X562D01*
Y-356D01*
X562Y-356D01*
X563Y-356D01*
X564Y-356D01*
X565Y-355D01*
X570Y-355D01*
X573Y-355D01*
X573Y-355D01*
X733D01*
X733Y-355D01*
X737Y-355D01*
X740Y-355D01*
X743Y-355D01*
X745Y-356D01*
X746Y-356D01*
X747Y-357D01*
X748Y-357D01*
X748Y-357D01*
X748Y-358D01*
Y-362D01*
X753D01*
X753Y-362D01*
X754Y-362D01*
X754Y-362D01*
X754Y-362D01*
X798D01*
Y-356D01*
X798Y-356D01*
X798Y-355D01*
X799Y-354D01*
X799Y-354D01*
X799Y-353D01*
X800Y-353D01*
X802Y-352D01*
X804Y-352D01*
X806Y-351D01*
X809Y-351D01*
X813Y-351D01*
X813Y-351D01*
X869D01*
X875Y-349D01*
X879Y-346D01*
X971Y-254D01*
X976Y-256D01*
Y-265D01*
X1026D01*
Y-259D01*
X1026Y-258D01*
X1026Y-257D01*
X1026Y-256D01*
X1027Y-256D01*
X1027Y-256D01*
X1028Y-255D01*
X1030Y-254D01*
X1032Y-254D01*
X1034Y-253D01*
X1037Y-253D01*
X1041Y-253D01*
X1041Y-253D01*
X1056D01*
X1077Y-274D01*
X1077Y-279D01*
X1077Y-279D01*
X1077Y-279D01*
Y-304D01*
X1097D01*
X1116D01*
Y-280D01*
X1150D01*
X1154Y-281D01*
X1154Y-286D01*
X1154Y-287D01*
X1155Y-287D01*
Y-288D01*
X1155Y-288D01*
X1155Y-288D01*
Y-337D01*
X1188D01*
Y-287D01*
X1189Y-287D01*
X1188Y-286D01*
Y-282D01*
X1187D01*
X1187Y-277D01*
X1187Y-275D01*
X1187Y-274D01*
X1186Y-269D01*
X1182Y-264D01*
X1173Y-254D01*
X1172Y-254D01*
X1174Y-249D01*
X1231D01*
X1231Y-249D01*
X1235Y-249D01*
X1238Y-249D01*
X1241Y-250D01*
X1243Y-250D01*
X1244Y-251D01*
X1245Y-252D01*
X1246Y-252D01*
X1246Y-252D01*
X1246Y-253D01*
X1246Y-254D01*
X1246Y-254D01*
Y-264D01*
X1296D01*
Y-211D01*
X1253D01*
X1252Y-211D01*
X1252Y-211D01*
X1251Y-211D01*
X1251Y-211D01*
X1246D01*
Y-215D01*
X1246Y-215D01*
X1246Y-216D01*
X1246Y-216D01*
X1246Y-216D01*
X1244Y-217D01*
X1243Y-217D01*
X1241Y-218D01*
X1235Y-218D01*
X1231Y-218D01*
X1231Y-218D01*
X1151D01*
Y-199D01*
X1151Y-198D01*
X1151Y-198D01*
X1151Y-197D01*
X1151Y-193D01*
X1150D01*
X1149Y-182D01*
X1149Y-178D01*
X1149Y-178D01*
Y-139D01*
X1179Y-109D01*
X1184Y-111D01*
Y-164D01*
X1185Y-168D01*
X1187Y-171D01*
X1206Y-191D01*
X1210Y-193D01*
X1214Y-194D01*
X1307D01*
X1319Y-206D01*
X1320Y-207D01*
X1323Y-211D01*
X1325Y-213D01*
X1325Y-214D01*
Y-217D01*
X1325Y-217D01*
X1325Y-217D01*
Y-263D01*
X1395D01*
Y-202D01*
X1346D01*
X1345Y-202D01*
X1344Y-201D01*
X1343Y-200D01*
X1340Y-198D01*
X1338Y-196D01*
X1338Y-196D01*
X1337Y-195D01*
X1337Y-195D01*
X1337Y-195D01*
X1322Y-180D01*
X1324Y-175D01*
X1444D01*
X1448Y-174D01*
X1451Y-172D01*
X1463Y-160D01*
X1502D01*
X1502Y-160D01*
X1504Y-160D01*
X1506Y-161D01*
X1507Y-161D01*
X1508Y-161D01*
X1508Y-161D01*
X1512Y-170D01*
X1518Y-179D01*
X1527Y-185D01*
X1537Y-189D01*
X1544Y-190D01*
X1544Y-191D01*
X1544Y-192D01*
X1545Y-193D01*
X1545Y-195D01*
X1545Y-196D01*
X1546Y-199D01*
X1548Y-202D01*
X1565Y-219D01*
X1564Y-220D01*
X1564Y-221D01*
X1564Y-223D01*
X1563Y-225D01*
X1561Y-227D01*
X1560Y-229D01*
X1558Y-232D01*
X1553Y-237D01*
X1550Y-240D01*
X1550Y-240D01*
X1545Y-248D01*
X1541Y-256D01*
X1540Y-265D01*
X1541Y-274D01*
X1545Y-282D01*
X1550Y-290D01*
X1558Y-295D01*
X1566Y-299D01*
X1575Y-300D01*
X1584Y-299D01*
X1592Y-295D01*
X1600Y-290D01*
X1605Y-282D01*
X1609Y-274D01*
X1610Y-265D01*
X1609Y-256D01*
X1605Y-248D01*
X1600Y-240D01*
X1600Y-240D01*
X1597Y-237D01*
X1592Y-232D01*
X1590Y-229D01*
X1589Y-227D01*
X1587Y-225D01*
X1586Y-223D01*
X1586Y-221D01*
X1586Y-220D01*
X1585Y-218D01*
X1585Y-217D01*
Y-215D01*
X1584Y-211D01*
X1582Y-208D01*
X1569Y-195D01*
X1571Y-190D01*
X1573Y-189D01*
X1583Y-185D01*
X1592Y-179D01*
X1598Y-170D01*
X1602Y-161D01*
X1604Y-150D01*
X1602Y-139D01*
X1598Y-130D01*
X1592Y-121D01*
X1583Y-115D01*
X1573Y-111D01*
X1563Y-109D01*
X1547D01*
X1537Y-111D01*
X1527Y-115D01*
X1518Y-121D01*
X1512Y-130D01*
X1508Y-139D01*
X1508Y-139D01*
X1507Y-139D01*
X1506Y-139D01*
X1504Y-140D01*
X1502Y-140D01*
X1502Y-140D01*
X1459D01*
X1455Y-141D01*
X1452Y-143D01*
X1440Y-155D01*
X1226D01*
X1220Y-149D01*
Y21D01*
X1249Y50D01*
X1251Y49D01*
X1253Y49D01*
X1254Y49D01*
X1255Y48D01*
X1257Y46D01*
X1257Y46D01*
X1257Y46D01*
X1258Y46D01*
X1258Y46D01*
X1260Y44D01*
X1267Y43D01*
X1318D01*
X1325Y44D01*
X1330Y48D01*
X1334Y53D01*
X1335Y60D01*
X1334Y67D01*
X1330Y72D01*
X1325Y76D01*
X1318Y77D01*
X1267D01*
X1260Y76D01*
X1258Y74D01*
X1258Y74D01*
X1257Y74D01*
X1257Y74D01*
X1257Y74D01*
X1255Y72D01*
X1254Y71D01*
X1253Y71D01*
X1249Y70D01*
X1246Y70D01*
X1246Y70D01*
X1245D01*
X1243Y70D01*
X1241Y71D01*
X1239Y72D01*
X1238Y73D01*
Y176D01*
X1252Y190D01*
X1252Y190D01*
X1252Y190D01*
X1253Y191D01*
X1253Y191D01*
X1255Y193D01*
X1257Y194D01*
X1258Y195D01*
X1259Y196D01*
X1260Y197D01*
X1261Y197D01*
X1310D01*
Y217D01*
X1310Y217D01*
X1310Y217D01*
X1311Y217D01*
X1313Y217D01*
X1315Y217D01*
X1315Y217D01*
X1320D01*
X1320Y217D01*
X1322Y217D01*
X1324Y217D01*
X1325Y217D01*
X1325Y217D01*
X1325Y217D01*
X1325Y217D01*
Y197D01*
X1395D01*
Y258D01*
X1325D01*
Y239D01*
X1325Y239D01*
X1325Y239D01*
X1325Y238D01*
X1324Y238D01*
X1322Y238D01*
X1320Y238D01*
X1320Y238D01*
X1315D01*
X1315Y238D01*
X1313Y238D01*
X1311Y238D01*
X1310Y238D01*
X1310Y239D01*
X1310Y239D01*
Y258D01*
X1240D01*
Y212D01*
X1240Y212D01*
X1240Y212D01*
Y209D01*
X1240Y208D01*
X1237Y204D01*
X1235Y202D01*
X1234Y201D01*
X1221Y188D01*
X1219Y184D01*
X1218Y181D01*
Y76D01*
X1194Y52D01*
X1189Y54D01*
Y136D01*
X1188Y142D01*
X1185Y147D01*
X1171Y161D01*
X1166Y164D01*
X1160Y165D01*
X915D01*
X909Y164D01*
X904Y161D01*
X901Y156D01*
X900Y150D01*
X901Y144D01*
X904Y139D01*
X909Y136D01*
X915Y135D01*
X1154D01*
X1159Y130D01*
Y47D01*
X1159Y46D01*
Y41D01*
X1159Y41D01*
X1159Y41D01*
Y41D01*
X1159Y40D01*
X1158Y37D01*
X1158Y34D01*
X1157Y32D01*
X1156Y30D01*
X1155Y29D01*
X1154Y28D01*
X1152Y27D01*
X1150Y26D01*
X1148Y26D01*
X1144Y26D01*
X1140Y26D01*
X1139Y26D01*
X1138Y26D01*
X1138Y27D01*
X1137Y26D01*
X1136Y27D01*
X1136Y27D01*
X1133Y27D01*
X1082D01*
X1075Y26D01*
X1075Y26D01*
X1057Y25D01*
X1056Y25D01*
X1051Y24D01*
X1046Y21D01*
X1042Y17D01*
X1040Y18D01*
Y18D01*
X990D01*
Y-35D01*
X1040D01*
Y-19D01*
X1043D01*
X1049Y-18D01*
X1054Y-14D01*
X1063Y-5D01*
X1075Y-6D01*
X1075Y-6D01*
X1082Y-7D01*
X1133D01*
X1136Y-7D01*
X1136Y-7D01*
X1137Y-6D01*
X1137Y-7D01*
X1137Y-7D01*
X1137Y-7D01*
X1138Y-7D01*
X1138Y-6D01*
X1149Y-6D01*
X1150Y-6D01*
X1152Y-7D01*
X1154Y-8D01*
X1155Y-9D01*
X1156Y-10D01*
X1157Y-12D01*
X1158Y-14D01*
X1158Y-17D01*
X1159Y-20D01*
X1159Y-21D01*
Y-21D01*
X1159Y-21D01*
X1159Y-21D01*
Y-86D01*
X1123Y-122D01*
X1120Y-126D01*
X1117Y-126D01*
X1115Y-126D01*
X1111Y-120D01*
X1110Y-119D01*
X1106Y-115D01*
X1105Y-113D01*
X1104Y-111D01*
X1103Y-110D01*
X1102Y-108D01*
X1101Y-107D01*
X1101Y-105D01*
X1100Y-104D01*
X1100Y-102D01*
X1100Y-102D01*
Y-62D01*
X1100Y-62D01*
X1100Y-60D01*
X1101Y-59D01*
X1101Y-58D01*
X1101Y-57D01*
X1133D01*
X1140Y-56D01*
X1145Y-52D01*
X1149Y-47D01*
X1150Y-40D01*
X1149Y-33D01*
X1145Y-28D01*
X1140Y-24D01*
X1133Y-23D01*
X1082D01*
X1075Y-24D01*
X1070Y-28D01*
X1066Y-33D01*
X1065Y-40D01*
X1066Y-47D01*
X1070Y-52D01*
X1075Y-56D01*
X1079Y-57D01*
X1079Y-57D01*
X1079Y-58D01*
X1079Y-59D01*
X1080Y-60D01*
X1080Y-62D01*
X1080Y-62D01*
Y-102D01*
X1080Y-102D01*
X1080Y-104D01*
X1079Y-105D01*
X1079Y-107D01*
X1078Y-108D01*
X1077Y-110D01*
X1076Y-111D01*
X1075Y-113D01*
X1072Y-117D01*
X1070Y-119D01*
X1069Y-120D01*
X1065Y-126D01*
X1062Y-132D01*
X1061Y-140D01*
X1061Y-140D01*
X1061Y-146D01*
X1061Y-148D01*
X1060Y-151D01*
X1060Y-152D01*
X1059Y-154D01*
X1059Y-156D01*
X1058Y-157D01*
X1057Y-158D01*
X1056Y-159D01*
X1056Y-160D01*
X1039Y-177D01*
X918D01*
X896Y-155D01*
X898Y-150D01*
X923D01*
X923Y-150D01*
X924Y-150D01*
X926Y-151D01*
X927Y-151D01*
X929Y-152D01*
X930Y-153D01*
X932Y-154D01*
X934Y-155D01*
X938Y-158D01*
X940Y-160D01*
X940Y-161D01*
X946Y-165D01*
X953Y-168D01*
X961Y-169D01*
X968Y-168D01*
X975Y-165D01*
X981Y-160D01*
X986Y-154D01*
X988Y-147D01*
X989Y-140D01*
X988Y-132D01*
X986Y-126D01*
X981Y-120D01*
X981Y-119D01*
X977Y-115D01*
X976Y-113D01*
X974Y-111D01*
X973Y-110D01*
X972Y-108D01*
X972Y-107D01*
X971Y-105D01*
X971Y-104D01*
X971Y-102D01*
X971Y-102D01*
Y-85D01*
X970Y-82D01*
X968Y-78D01*
X960Y-71D01*
Y86D01*
X974Y100D01*
X1061D01*
X1061Y100D01*
X1064Y100D01*
X1066Y99D01*
X1068Y99D01*
X1069Y99D01*
X1070Y98D01*
X1072Y96D01*
X1072Y96D01*
X1072Y96D01*
X1073Y96D01*
X1073Y96D01*
X1075Y94D01*
X1082Y93D01*
X1133D01*
X1140Y94D01*
X1145Y98D01*
X1149Y103D01*
X1150Y110D01*
X1149Y117D01*
X1145Y122D01*
X1140Y126D01*
X1133Y127D01*
X1082D01*
X1075Y126D01*
X1073Y124D01*
X1073Y124D01*
X1072Y124D01*
X1072Y124D01*
X1072Y124D01*
X1070Y122D01*
X1069Y121D01*
X1068Y121D01*
X1064Y120D01*
X1061Y120D01*
X1061Y120D01*
X970D01*
X966Y119D01*
X963Y117D01*
X943Y97D01*
X941Y94D01*
X940Y90D01*
Y-75D01*
X941Y-79D01*
X943Y-82D01*
X950Y-90D01*
Y-102D01*
X950Y-102D01*
X950Y-104D01*
X950Y-105D01*
X949Y-107D01*
X949Y-108D01*
X948Y-110D01*
X947Y-111D01*
X946Y-113D01*
X942Y-117D01*
X940Y-119D01*
X940Y-119D01*
X940Y-120D01*
X936Y-124D01*
X934Y-125D01*
X932Y-126D01*
X930Y-127D01*
X929Y-128D01*
X927Y-129D01*
X926Y-129D01*
X924Y-130D01*
X923Y-130D01*
X923Y-130D01*
X494D01*
X490Y-131D01*
X487Y-133D01*
X473Y-147D01*
X454D01*
X439Y-132D01*
Y-120D01*
X441Y-119D01*
X444Y-117D01*
Y-109D01*
X443Y-107D01*
X443Y-107D01*
X443Y-106D01*
X444D01*
Y-74D01*
X454D01*
Y-106D01*
X454D01*
X454Y-106D01*
X454Y-107D01*
X454Y-116D01*
X454D01*
Y-117D01*
X454Y-117D01*
X456Y-116D01*
X457Y-115D01*
X457Y-115D01*
X459Y-114D01*
X464Y-114D01*
X464Y-114D01*
X468Y-115D01*
X473Y-114D01*
X476Y-112D01*
X479Y-108D01*
X479Y-104D01*
Y-87D01*
X479Y-87D01*
X480Y-87D01*
X481Y-87D01*
X483Y-87D01*
X484Y-87D01*
X485Y-87D01*
X499D01*
X500Y-87D01*
X502Y-87D01*
X503Y-87D01*
X504Y-87D01*
X505Y-87D01*
X505Y-87D01*
Y-111D01*
X558D01*
Y-61D01*
X511D01*
X511Y-61D01*
X510Y-61D01*
X510Y-61D01*
X509Y-61D01*
X505D01*
Y-65D01*
X505Y-65D01*
X505Y-65D01*
X504Y-66D01*
X503Y-66D01*
X502Y-66D01*
X500Y-66D01*
X499Y-66D01*
X485D01*
X484Y-66D01*
X483Y-66D01*
X481Y-66D01*
X480Y-66D01*
X479Y-65D01*
X479Y-65D01*
Y-45D01*
X479Y-43D01*
X479Y-43D01*
X479Y-43D01*
X479Y-42D01*
X479Y-37D01*
X482Y-34D01*
X484Y-34D01*
X486Y-34D01*
X486Y-34D01*
X486Y-34D01*
X487Y-34D01*
X488Y-34D01*
X488Y-34D01*
X490Y-34D01*
X549D01*
X553Y-34D01*
X557Y-31D01*
X559Y-28D01*
X560Y-23D01*
X559Y-19D01*
X558Y-17D01*
X557Y-13D01*
X558Y-10D01*
X559Y-8D01*
X560Y-4D01*
X559Y1D01*
X558Y3D01*
X557Y6D01*
X558Y10D01*
X559Y12D01*
X560Y16D01*
X559Y20D01*
X558Y23D01*
X557Y26D01*
X558Y29D01*
X559Y32D01*
X560Y36D01*
X559Y39D01*
X562Y43D01*
X562Y44D01*
X566Y44D01*
X578Y33D01*
X581Y31D01*
X585Y30D01*
X621D01*
X640Y11D01*
Y-54D01*
X641Y-58D01*
X643Y-62D01*
X646Y-64D01*
X650Y-65D01*
X650Y-65D01*
X750D01*
X750Y-65D01*
X751Y-65D01*
X752D01*
X753Y-65D01*
X753Y-65D01*
X800D01*
X800Y-65D01*
X802Y-65D01*
X803Y-65D01*
X804Y-65D01*
X805Y-65D01*
X805Y-65D01*
X805Y-65D01*
Y-91D01*
X855D01*
Y-38D01*
X805D01*
Y-43D01*
X805Y-43D01*
X805Y-43D01*
X804Y-44D01*
X803Y-44D01*
X802Y-44D01*
X800Y-44D01*
X800Y-44D01*
X780D01*
Y19D01*
X724D01*
X720Y22D01*
X720Y22D01*
X720Y22D01*
X694D01*
Y-13D01*
X684D01*
Y22D01*
X657D01*
X657Y23D01*
X635Y45D01*
X637Y50D01*
X654D01*
X655Y50D01*
X657Y50D01*
X658Y49D01*
X659Y49D01*
X660Y49D01*
X660Y49D01*
Y41D01*
X716D01*
X720Y38D01*
X720Y38D01*
X720Y38D01*
X746D01*
Y73D01*
X751D01*
Y78D01*
X783D01*
Y104D01*
X800D01*
X800Y104D01*
X802Y104D01*
X803Y104D01*
X805Y104D01*
X805Y104D01*
Y101D01*
X810D01*
X810Y100D01*
X811Y100D01*
X811Y100D01*
X812Y101D01*
X855D01*
Y154D01*
X805D01*
Y126D01*
X805Y126D01*
X805Y126D01*
X804Y125D01*
X803Y125D01*
X802Y125D01*
X800Y125D01*
X800Y125D01*
X720D01*
X716Y124D01*
X713Y122D01*
X703Y112D01*
X703Y112D01*
X703Y112D01*
X702Y112D01*
X701Y110D01*
X699Y109D01*
X698Y108D01*
X697Y107D01*
X696Y106D01*
X695Y106D01*
X695Y106D01*
X660D01*
Y71D01*
X660Y71D01*
X659Y71D01*
X658Y71D01*
X657Y70D01*
X655Y70D01*
X654Y70D01*
X613D01*
X611Y75D01*
X614Y77D01*
X617Y82D01*
X618Y88D01*
X617Y93D01*
X614Y98D01*
X609Y102D01*
X603Y103D01*
X597Y102D01*
X592Y98D01*
X588Y102D01*
X585Y104D01*
X581Y105D01*
X565D01*
X564Y107D01*
X562Y110D01*
X519D01*
Y120D01*
X562D01*
X564Y122D01*
X565Y124D01*
X585D01*
X585Y124D01*
X585Y124D01*
X585Y124D01*
X587Y124D01*
X587Y124D01*
X587Y124D01*
X592Y124D01*
X592Y124D01*
X592Y124D01*
X593Y124D01*
X622D01*
X626Y125D01*
X626Y125D01*
X640D01*
Y178D01*
X590D01*
Y145D01*
X590Y145D01*
X590Y145D01*
X589Y145D01*
X588Y145D01*
X587Y145D01*
X585Y145D01*
X585Y144D01*
X562D01*
X562Y145D01*
X562Y145D01*
X559Y150D01*
X560Y154D01*
X559Y158D01*
X558Y160D01*
X557Y164D01*
X558Y167D01*
X559Y169D01*
X560Y174D01*
X559Y178D01*
X558Y180D01*
X557Y183D01*
X558Y187D01*
X559Y189D01*
X560Y193D01*
X559Y198D01*
X557Y201D01*
X553Y204D01*
X549Y204D01*
X490D01*
X486Y204D01*
X482Y201D01*
X481Y199D01*
X475Y198D01*
X473Y200D01*
X474Y206D01*
X476Y207D01*
X479Y211D01*
X479Y215D01*
Y274D01*
X479Y278D01*
X476Y282D01*
X473Y284D01*
X468Y285D01*
X464Y284D01*
X462Y283D01*
X458Y282D01*
X455Y283D01*
X453Y284D01*
X449Y285D01*
X444Y284D01*
X442Y283D01*
X439Y282D01*
X435Y283D01*
X433Y284D01*
X429Y285D01*
X425Y284D01*
X422Y283D01*
X419Y282D01*
X416Y283D01*
X413Y284D01*
X409Y285D01*
X405Y284D01*
X403Y283D01*
X399Y282D01*
X396Y283D01*
X394Y284D01*
X390Y285D01*
X386Y284D01*
X382Y287D01*
X381Y287D01*
X381Y291D01*
X394Y305D01*
X646D01*
X692Y258D01*
X692Y258D01*
X694Y256D01*
X695Y255D01*
X696Y254D01*
X696Y253D01*
X697Y252D01*
X697Y251D01*
X698Y250D01*
X698Y249D01*
X698Y248D01*
X698Y247D01*
X698Y247D01*
Y225D01*
X752D01*
Y275D01*
X706D01*
X701Y278D01*
X700Y280D01*
X701Y284D01*
X701Y285D01*
X702Y285D01*
X702Y285D01*
X702Y285D01*
X752D01*
Y335D01*
X698D01*
Y321D01*
X698Y321D01*
X697Y321D01*
X696Y321D01*
X695Y320D01*
X693Y320D01*
X693Y320D01*
X684D01*
X667Y337D01*
X664Y339D01*
X660Y340D01*
X375D01*
X371Y339D01*
X368Y337D01*
X343Y312D01*
X341Y309D01*
X340Y305D01*
Y287D01*
X340Y287D01*
X340Y287D01*
X335Y284D01*
X330Y285D01*
X326Y284D01*
X324Y283D01*
X321Y282D01*
X317Y283D01*
X315Y284D01*
X311Y285D01*
X307Y284D01*
X304Y283D01*
X301Y282D01*
X298Y283D01*
X295Y284D01*
X291Y285D01*
X287Y284D01*
X287Y284D01*
X281Y284D01*
X280Y285D01*
X280Y285D01*
X279Y286D01*
X277Y287D01*
X276Y287D01*
Y244D01*
X266D01*
Y287D01*
X264Y289D01*
X262Y290D01*
Y292D01*
X262Y292D01*
X262Y294D01*
X262Y297D01*
X263D01*
Y302D01*
X263Y302D01*
X263Y303D01*
Y347D01*
D02*
G37*
G36*
X1313Y297D02*
X1280D01*
Y269D01*
X1313D01*
Y297D01*
D02*
G37*
G36*
X1270D02*
X1237D01*
Y269D01*
X1270D01*
Y297D01*
D02*
G37*
G36*
X891Y275D02*
X838D01*
Y261D01*
X838Y261D01*
X837Y261D01*
X836Y261D01*
X835Y260D01*
X833Y260D01*
X832Y260D01*
X824D01*
X824Y260D01*
X822Y260D01*
X820Y261D01*
X819Y261D01*
X819Y261D01*
X819Y261D01*
Y275D01*
X765D01*
Y225D01*
X819D01*
Y239D01*
X819Y239D01*
X819Y239D01*
X820Y239D01*
X822Y240D01*
X824Y240D01*
X824Y240D01*
X832D01*
X833Y240D01*
X835Y240D01*
X836Y239D01*
X837Y239D01*
X838Y239D01*
X838Y239D01*
Y225D01*
X891D01*
Y275D01*
D02*
G37*
G36*
X961Y305D02*
X902D01*
Y283D01*
X902Y282D01*
Y278D01*
X902Y277D01*
Y255D01*
X961D01*
Y277D01*
X961Y278D01*
Y282D01*
X961Y283D01*
Y305D01*
D02*
G37*
G36*
X1395Y333D02*
X1325D01*
Y272D01*
X1395D01*
Y291D01*
X1395Y291D01*
X1395Y292D01*
X1396Y292D01*
X1398Y292D01*
X1400Y292D01*
X1400Y292D01*
X1433D01*
X1434Y291D01*
X1435Y291D01*
X1438Y287D01*
X1439Y285D01*
X1440Y284D01*
X1440Y284D01*
Y281D01*
X1440Y280D01*
X1440Y280D01*
Y280D01*
X1440Y279D01*
X1440Y279D01*
Y230D01*
X1510D01*
Y300D01*
X1461D01*
X1461Y300D01*
X1460Y300D01*
X1460D01*
X1460Y300D01*
X1459Y300D01*
X1456D01*
X1456Y300D01*
X1455Y301D01*
X1451Y303D01*
X1449Y305D01*
X1449Y306D01*
X1445Y310D01*
X1441Y312D01*
X1438Y313D01*
X1400D01*
X1400Y313D01*
X1398Y313D01*
X1396Y313D01*
X1395Y313D01*
X1395Y313D01*
X1395Y313D01*
Y333D01*
D02*
G37*
G36*
X643Y248D02*
X620D01*
Y223D01*
X643D01*
Y248D01*
D02*
G37*
G36*
X610D02*
X587D01*
Y223D01*
X610D01*
Y248D01*
D02*
G37*
G36*
X961Y245D02*
X936D01*
Y222D01*
X961D01*
Y245D01*
D02*
G37*
G36*
X926D02*
X902D01*
Y222D01*
X926D01*
Y245D01*
D02*
G37*
G36*
X74Y223D02*
X50D01*
Y200D01*
X74D01*
Y223D01*
D02*
G37*
G36*
X40D02*
X15D01*
Y200D01*
X40D01*
Y223D01*
D02*
G37*
G36*
X643Y213D02*
X620D01*
Y189D01*
X643D01*
Y213D01*
D02*
G37*
G36*
X610D02*
X587D01*
Y189D01*
X610D01*
Y213D01*
D02*
G37*
G36*
X-126Y196D02*
X-150D01*
Y175D01*
X-101D01*
X-101Y177D01*
X-103Y183D01*
X-107Y189D01*
X-113Y193D01*
X-119Y195D01*
X-126Y196D01*
D02*
G37*
G36*
X-160D02*
X-185D01*
X-192Y195D01*
X-198Y193D01*
X-203Y189D01*
X-207Y183D01*
X-210Y177D01*
X-210Y175D01*
X-160D01*
Y196D01*
D02*
G37*
G36*
X74Y190D02*
X50D01*
Y167D01*
X74D01*
Y190D01*
D02*
G37*
G36*
X40D02*
X15D01*
Y167D01*
X40D01*
Y190D01*
D02*
G37*
G36*
X1563Y194D02*
X1560D01*
Y155D01*
X1606D01*
X1605Y161D01*
X1601Y172D01*
X1594Y181D01*
X1585Y188D01*
X1574Y192D01*
X1563Y194D01*
D02*
G37*
G36*
X1550D02*
X1547D01*
X1536Y192D01*
X1525Y188D01*
X1516Y181D01*
X1509Y172D01*
X1505Y161D01*
X1504Y155D01*
X1550D01*
Y194D01*
D02*
G37*
G36*
X-273Y193D02*
X-304D01*
X-313Y192D01*
X-321Y187D01*
X-326Y179D01*
X-327Y170D01*
X-326Y161D01*
X-321Y154D01*
X-313Y149D01*
X-304Y147D01*
X-273D01*
X-264Y149D01*
X-256Y154D01*
X-251Y161D01*
X-250Y170D01*
X-251Y179D01*
X-256Y187D01*
X-264Y192D01*
X-273Y193D01*
D02*
G37*
G36*
X-101Y165D02*
X-150D01*
Y144D01*
X-126D01*
X-119Y145D01*
X-113Y148D01*
X-107Y152D01*
X-103Y157D01*
X-101Y164D01*
X-101Y165D01*
D02*
G37*
G36*
X-160D02*
X-210D01*
X-210Y164D01*
X-207Y157D01*
X-203Y152D01*
X-198Y148D01*
X-192Y145D01*
X-185Y144D01*
X-160D01*
Y165D01*
D02*
G37*
G36*
X7Y156D02*
X-17D01*
Y133D01*
X7D01*
Y156D01*
D02*
G37*
G36*
X-27D02*
X-52D01*
Y133D01*
X-27D01*
Y156D01*
D02*
G37*
G36*
X-165Y137D02*
Y122D01*
X-150D01*
X-150Y125D01*
X-155Y132D01*
X-161Y136D01*
X-165Y137D01*
D02*
G37*
G36*
X-112D02*
Y122D01*
X-97D01*
X-97Y125D01*
X-102Y132D01*
X-108Y136D01*
X-112Y137D01*
D02*
G37*
G36*
X-122D02*
X-125Y136D01*
X-132Y132D01*
X-136Y125D01*
X-137Y122D01*
X-122D01*
Y137D01*
D02*
G37*
G36*
X-175D02*
X-178Y136D01*
X-185Y132D01*
X-190Y125D01*
X-190Y122D01*
X-175D01*
Y137D01*
D02*
G37*
G36*
X1318Y130D02*
X1298D01*
Y115D01*
X1337D01*
X1337Y118D01*
X1332Y124D01*
X1326Y129D01*
X1318Y130D01*
D02*
G37*
G36*
X1288D02*
X1267D01*
X1259Y129D01*
X1253Y124D01*
X1248Y118D01*
X1248Y115D01*
X1288D01*
Y130D01*
D02*
G37*
G36*
X1606Y145D02*
X1560D01*
Y106D01*
X1563D01*
X1574Y108D01*
X1585Y112D01*
X1594Y119D01*
X1601Y128D01*
X1605Y139D01*
X1606Y145D01*
D02*
G37*
G36*
X1550D02*
X1504D01*
X1505Y139D01*
X1509Y128D01*
X1516Y119D01*
X1525Y112D01*
X1536Y108D01*
X1547Y106D01*
X1550D01*
Y145D01*
D02*
G37*
G36*
X7Y123D02*
X-17D01*
Y100D01*
X7D01*
Y123D01*
D02*
G37*
G36*
X-27D02*
X-52D01*
Y100D01*
X-27D01*
Y123D01*
D02*
G37*
G36*
X1337Y105D02*
X1298D01*
Y90D01*
X1318D01*
X1326Y91D01*
X1332Y96D01*
X1337Y102D01*
X1337Y105D01*
D02*
G37*
G36*
X1288D02*
X1248D01*
X1248Y102D01*
X1253Y96D01*
X1259Y91D01*
X1267Y90D01*
X1288D01*
Y105D01*
D02*
G37*
G36*
X858Y90D02*
X835D01*
Y65D01*
X858D01*
Y90D01*
D02*
G37*
G36*
X825D02*
X802D01*
Y65D01*
X825D01*
Y90D01*
D02*
G37*
G36*
X1133Y80D02*
X1112D01*
Y65D01*
X1152D01*
X1152Y68D01*
X1147Y74D01*
X1141Y79D01*
X1133Y80D01*
D02*
G37*
G36*
X1102D02*
X1082D01*
X1074Y79D01*
X1068Y74D01*
X1063Y68D01*
X1063Y65D01*
X1102D01*
Y80D01*
D02*
G37*
G36*
X1043Y88D02*
X1020D01*
Y63D01*
X1043D01*
Y88D01*
D02*
G37*
G36*
X1010D02*
X987D01*
Y63D01*
X1010D01*
Y88D01*
D02*
G37*
G36*
X1152Y55D02*
X1112D01*
Y40D01*
X1133D01*
X1141Y41D01*
X1147Y46D01*
X1152Y52D01*
X1152Y55D01*
D02*
G37*
G36*
X1102D02*
X1063D01*
X1063Y52D01*
X1068Y46D01*
X1074Y41D01*
X1082Y40D01*
X1102D01*
Y55D01*
D02*
G37*
G36*
X783Y68D02*
X756D01*
Y38D01*
X783D01*
Y68D01*
D02*
G37*
G36*
X1043Y53D02*
X1020D01*
Y29D01*
X1043D01*
Y53D01*
D02*
G37*
G36*
X1010D02*
X987D01*
Y29D01*
X1010D01*
Y53D01*
D02*
G37*
G36*
X1575Y300D02*
X1566Y299D01*
X1558Y295D01*
X1550Y290D01*
X1545Y282D01*
X1541Y274D01*
X1540Y265D01*
X1540Y264D01*
X1540Y263D01*
X1540Y255D01*
X1540Y252D01*
X1540Y249D01*
X1539Y246D01*
X1539Y244D01*
X1538Y242D01*
X1537Y241D01*
X1536Y239D01*
X1535Y238D01*
X1535Y237D01*
X1461Y163D01*
X1459Y160D01*
X1458Y156D01*
Y47D01*
X1437Y26D01*
X1436Y26D01*
X1435Y25D01*
X1434Y24D01*
X1433Y23D01*
X1431Y22D01*
X1430Y22D01*
X1429Y21D01*
X1427Y21D01*
X1426Y21D01*
X1425Y20D01*
X1423Y20D01*
X1422Y20D01*
X1339D01*
X1339Y20D01*
X1336Y20D01*
X1334Y21D01*
X1332Y21D01*
X1331Y21D01*
X1330Y22D01*
X1328Y24D01*
X1328Y24D01*
X1328Y24D01*
X1327Y24D01*
X1327Y24D01*
X1325Y26D01*
X1318Y27D01*
X1267D01*
X1260Y26D01*
X1255Y22D01*
X1251Y17D01*
X1250Y10D01*
X1251Y3D01*
X1255Y-2D01*
X1260Y-6D01*
X1267Y-7D01*
X1318D01*
X1325Y-6D01*
X1327Y-4D01*
X1327Y-4D01*
X1328Y-4D01*
X1328Y-4D01*
X1328Y-4D01*
X1330Y-2D01*
X1331Y-1D01*
X1332Y-1D01*
X1336Y-0D01*
X1339Y-0D01*
X1339Y-0D01*
X1422D01*
X1423Y-0D01*
X1425Y-0D01*
X1426Y-1D01*
X1427Y-1D01*
X1429Y-1D01*
X1430Y-2D01*
X1431Y-2D01*
X1433Y-3D01*
X1434Y-4D01*
X1435Y-5D01*
X1436Y-6D01*
X1437Y-6D01*
X1483Y-52D01*
X1486Y-54D01*
X1490Y-55D01*
X1501D01*
X1501Y-55D01*
X1501Y-55D01*
X1502Y-55D01*
X1504Y-55D01*
X1505Y-56D01*
X1506Y-56D01*
X1507Y-56D01*
X1508Y-61D01*
X1512Y-70D01*
X1518Y-79D01*
X1527Y-85D01*
X1537Y-89D01*
X1547Y-91D01*
X1563D01*
X1573Y-89D01*
X1583Y-85D01*
X1592Y-79D01*
X1598Y-70D01*
X1602Y-61D01*
X1604Y-50D01*
X1602Y-39D01*
X1598Y-30D01*
X1592Y-21D01*
X1583Y-15D01*
X1573Y-11D01*
X1563Y-9D01*
X1547D01*
X1537Y-11D01*
X1527Y-15D01*
X1518Y-21D01*
X1512Y-30D01*
X1510Y-33D01*
X1510Y-34D01*
X1510Y-34D01*
X1509Y-34D01*
X1508Y-34D01*
X1507Y-34D01*
X1505Y-35D01*
X1503Y-35D01*
X1503Y-35D01*
X1494D01*
X1453Y6D01*
X1453Y7D01*
X1452Y8D01*
X1452Y9D01*
X1451Y9D01*
X1451Y10D01*
X1451Y10D01*
X1451Y10D01*
X1451Y11D01*
X1452Y11D01*
X1452Y12D01*
X1453Y13D01*
X1453Y14D01*
X1475Y36D01*
X1477Y39D01*
X1478Y43D01*
Y152D01*
X1550Y223D01*
X1550Y223D01*
X1551Y225D01*
X1553Y225D01*
X1554Y226D01*
X1557Y227D01*
X1559Y228D01*
X1562Y229D01*
X1565Y229D01*
X1572Y230D01*
X1576Y230D01*
X1577Y230D01*
X1584Y231D01*
X1592Y235D01*
X1600Y240D01*
X1605Y248D01*
X1609Y256D01*
X1610Y265D01*
X1609Y274D01*
X1605Y282D01*
X1600Y290D01*
X1592Y295D01*
X1584Y299D01*
X1575Y300D01*
D02*
G37*
G36*
X1563Y91D02*
X1547D01*
X1537Y89D01*
X1527Y85D01*
X1518Y79D01*
X1512Y70D01*
X1508Y61D01*
X1506Y50D01*
X1508Y39D01*
X1512Y30D01*
X1518Y21D01*
X1527Y15D01*
X1537Y11D01*
X1547Y9D01*
X1563D01*
X1573Y11D01*
X1583Y15D01*
X1592Y21D01*
X1598Y30D01*
X1602Y39D01*
X1604Y50D01*
X1602Y61D01*
X1598Y70D01*
X1592Y79D01*
X1583Y85D01*
X1573Y89D01*
X1563Y91D01*
D02*
G37*
G36*
X858Y55D02*
X830D01*
X802D01*
Y31D01*
Y7D01*
X830D01*
X858D01*
Y31D01*
Y55D01*
D02*
G37*
G36*
Y-2D02*
X835D01*
Y-27D01*
X858D01*
Y-2D01*
D02*
G37*
G36*
X825D02*
X802D01*
Y-27D01*
X825D01*
Y-2D01*
D02*
G37*
G36*
X628Y-58D02*
X603D01*
Y-81D01*
X628D01*
Y-58D01*
D02*
G37*
G36*
X593D02*
X569D01*
Y-81D01*
X593D01*
Y-58D01*
D02*
G37*
G36*
X1353Y-85D02*
X1328D01*
Y-108D01*
X1353D01*
Y-85D01*
D02*
G37*
G36*
X1318D02*
X1294D01*
Y-108D01*
X1318D01*
Y-85D01*
D02*
G37*
G36*
X628Y-91D02*
X603D01*
Y-114D01*
X628D01*
Y-91D01*
D02*
G37*
G36*
X593D02*
X569D01*
Y-114D01*
X593D01*
Y-91D01*
D02*
G37*
G36*
X-150Y-122D02*
X-165D01*
Y-137D01*
X-161Y-136D01*
X-155Y-132D01*
X-150Y-125D01*
X-150Y-122D01*
D02*
G37*
G36*
X-97D02*
X-112D01*
Y-137D01*
X-108Y-136D01*
X-102Y-132D01*
X-97Y-125D01*
X-97Y-122D01*
D02*
G37*
G36*
X-122D02*
X-137D01*
X-136Y-125D01*
X-132Y-132D01*
X-125Y-136D01*
X-122Y-137D01*
Y-122D01*
D02*
G37*
G36*
X-175D02*
X-190D01*
X-190Y-125D01*
X-185Y-132D01*
X-178Y-136D01*
X-175Y-137D01*
Y-122D01*
D02*
G37*
G36*
X1318Y-23D02*
X1267D01*
X1260Y-24D01*
X1255Y-28D01*
X1251Y-33D01*
X1250Y-40D01*
X1251Y-47D01*
X1251Y-47D01*
X1252Y-62D01*
X1239Y-75D01*
X1235Y-80D01*
X1234Y-86D01*
Y-88D01*
X1230D01*
Y-138D01*
X1283D01*
Y-88D01*
X1275D01*
X1273Y-84D01*
X1278Y-79D01*
X1281Y-74D01*
X1282Y-69D01*
X1282Y-68D01*
X1282Y-68D01*
X1282Y-68D01*
X1282Y-65D01*
X1283Y-62D01*
X1283Y-60D01*
X1283Y-58D01*
X1284Y-57D01*
X1318D01*
X1325Y-56D01*
X1330Y-52D01*
X1334Y-47D01*
X1335Y-40D01*
X1334Y-33D01*
X1330Y-28D01*
X1325Y-24D01*
X1318Y-23D01*
D02*
G37*
G36*
X1353Y-118D02*
X1328D01*
Y-141D01*
X1353D01*
Y-118D01*
D02*
G37*
G36*
X1318D02*
X1294D01*
Y-141D01*
X1318D01*
Y-118D01*
D02*
G37*
G36*
X213Y-120D02*
X190D01*
Y-144D01*
X213D01*
Y-120D01*
D02*
G37*
G36*
X130Y-120D02*
X107D01*
Y-144D01*
X130D01*
Y-120D01*
D02*
G37*
G36*
Y-154D02*
X107D01*
Y-179D01*
X130D01*
Y-154D01*
D02*
G37*
G36*
X213D02*
X190D01*
Y-179D01*
X213D01*
Y-154D01*
D02*
G37*
G36*
X163Y-120D02*
X140D01*
Y-149D01*
Y-179D01*
X157D01*
Y-179D01*
X180D01*
Y-149D01*
Y-120D01*
X163D01*
Y-120D01*
D02*
G37*
G36*
X-126Y-147D02*
X-185D01*
X-194Y-149D01*
X-201Y-154D01*
X-206Y-161D01*
X-208Y-170D01*
X-206Y-179D01*
X-201Y-187D01*
X-194Y-192D01*
X-185Y-193D01*
X-126D01*
X-117Y-192D01*
X-109Y-187D01*
X-104Y-179D01*
X-103Y-170D01*
X-104Y-161D01*
X-109Y-154D01*
X-117Y-149D01*
X-126Y-147D01*
D02*
G37*
G36*
X-273D02*
X-304D01*
X-313Y-149D01*
X-321Y-154D01*
X-326Y-161D01*
X-327Y-170D01*
X-326Y-179D01*
X-321Y-187D01*
X-313Y-192D01*
X-304Y-193D01*
X-273D01*
X-264Y-192D01*
X-256Y-187D01*
X-251Y-179D01*
X-250Y-170D01*
X-251Y-161D01*
X-256Y-154D01*
X-264Y-149D01*
X-273Y-147D01*
D02*
G37*
G36*
X44Y-210D02*
X19D01*
Y-233D01*
X44D01*
Y-210D01*
D02*
G37*
G36*
X9D02*
X-16D01*
Y-233D01*
X9D01*
Y-210D01*
D02*
G37*
G36*
X-54Y-185D02*
X-59Y-187D01*
X-64Y-190D01*
X-68Y-195D01*
X-69Y-201D01*
X-68Y-206D01*
X-67Y-208D01*
X-69Y-213D01*
X-80D01*
Y-262D01*
X-26D01*
Y-213D01*
X-38D01*
X-41Y-208D01*
X-40Y-206D01*
X-38Y-201D01*
X-40Y-195D01*
X-43Y-190D01*
X-48Y-187D01*
X-54Y-185D01*
D02*
G37*
G36*
X389Y-243D02*
Y-265D01*
X411D01*
X411Y-263D01*
X408Y-256D01*
X404Y-250D01*
X398Y-246D01*
X391Y-243D01*
X389Y-243D01*
D02*
G37*
G36*
X79D02*
X77Y-243D01*
X70Y-246D01*
X64Y-250D01*
X60Y-256D01*
X57Y-263D01*
X57Y-265D01*
X79D01*
Y-243D01*
D02*
G37*
G36*
X44Y-243D02*
X19D01*
Y-265D01*
X44D01*
Y-243D01*
D02*
G37*
G36*
X9D02*
X-16D01*
Y-265D01*
X9D01*
Y-243D01*
D02*
G37*
G36*
X1510Y-230D02*
X1440D01*
Y-279D01*
X1440Y-279D01*
X1440Y-280D01*
X1440Y-280D01*
X1440Y-281D01*
Y-284D01*
X1440Y-284D01*
X1439Y-285D01*
X1436Y-289D01*
X1435Y-291D01*
X1434Y-291D01*
X1428Y-297D01*
X1400D01*
X1400Y-297D01*
X1398Y-297D01*
X1396Y-297D01*
X1395Y-297D01*
X1395Y-296D01*
X1395Y-296D01*
Y-277D01*
X1325D01*
Y-338D01*
X1395D01*
Y-318D01*
X1395Y-318D01*
X1395Y-318D01*
X1396Y-318D01*
X1398Y-318D01*
X1400Y-318D01*
X1400Y-318D01*
X1433D01*
X1436Y-317D01*
X1440Y-315D01*
X1449Y-306D01*
X1449Y-305D01*
X1453Y-302D01*
X1455Y-301D01*
X1456Y-300D01*
X1456Y-300D01*
X1459D01*
X1460Y-300D01*
X1460Y-300D01*
X1461Y-300D01*
X1461Y-300D01*
X1510D01*
Y-230D01*
D02*
G37*
G36*
X411Y-275D02*
X389D01*
Y-297D01*
X391Y-297D01*
X398Y-294D01*
X404Y-290D01*
X408Y-284D01*
X411Y-277D01*
X411Y-275D01*
D02*
G37*
G36*
X79D02*
X57D01*
X57Y-277D01*
X60Y-284D01*
X64Y-290D01*
X70Y-294D01*
X77Y-297D01*
X79Y-297D01*
Y-275D01*
D02*
G37*
G36*
X1299Y-275D02*
X1276D01*
Y-299D01*
X1299D01*
Y-275D01*
D02*
G37*
G36*
X1266D02*
X1243D01*
Y-299D01*
X1266D01*
Y-275D01*
D02*
G37*
G36*
X1029Y-276D02*
X1006D01*
Y-300D01*
X1029D01*
Y-276D01*
D02*
G37*
G36*
X996D02*
X973D01*
Y-300D01*
X996D01*
Y-276D01*
D02*
G37*
G36*
X1299Y-309D02*
X1276D01*
Y-334D01*
X1299D01*
Y-309D01*
D02*
G37*
G36*
X1266D02*
X1243D01*
Y-334D01*
X1266D01*
Y-309D01*
D02*
G37*
G36*
X1029Y-310D02*
X1006D01*
Y-335D01*
X1029D01*
Y-310D01*
D02*
G37*
G36*
X996D02*
X973D01*
Y-335D01*
X996D01*
Y-310D01*
D02*
G37*
G36*
X1116Y-314D02*
X1102D01*
Y-340D01*
X1116D01*
Y-314D01*
D02*
G37*
G36*
X1092D02*
X1077D01*
Y-340D01*
X1092D01*
Y-314D01*
D02*
G37*
%LPD*%
G36*
X843Y300D02*
X843Y301D01*
X843Y302D01*
X842Y303D01*
X842Y303D01*
X841Y304D01*
X839Y304D01*
X838Y305D01*
X837Y305D01*
X835Y305D01*
X833Y305D01*
Y315D01*
X835Y315D01*
X837Y315D01*
X838Y315D01*
X839Y316D01*
X841Y316D01*
X842Y317D01*
X842Y317D01*
X843Y318D01*
X843Y319D01*
X843Y320D01*
Y300D01*
D02*
G37*
G36*
X813Y319D02*
X814Y318D01*
X814Y317D01*
X815Y317D01*
X816Y316D01*
X817Y316D01*
X818Y315D01*
X820Y315D01*
X822Y315D01*
X823Y315D01*
Y305D01*
X822Y305D01*
X820Y305D01*
X818Y305D01*
X817Y304D01*
X816Y304D01*
X815Y303D01*
X814Y303D01*
X814Y302D01*
X813Y301D01*
X813Y300D01*
Y320D01*
X813Y319D01*
D02*
G37*
G36*
X704Y300D02*
X703Y301D01*
X703Y302D01*
X703Y303D01*
X702Y303D01*
X701Y304D01*
X700Y304D01*
X699Y305D01*
X697Y305D01*
X695Y305D01*
X693Y305D01*
Y315D01*
X695Y315D01*
X697Y315D01*
X699Y315D01*
X700Y316D01*
X701Y316D01*
X702Y317D01*
X703Y317D01*
X703Y318D01*
X703Y319D01*
X704Y320D01*
Y300D01*
D02*
G37*
G36*
X258Y302D02*
X258Y302D01*
X257Y302D01*
X257Y301D01*
X257Y300D01*
X257Y299D01*
X257Y294D01*
X257Y292D01*
X247D01*
X247Y294D01*
X247Y296D01*
X246Y298D01*
X246Y299D01*
X245Y300D01*
X245Y301D01*
X244Y302D01*
X244Y302D01*
X243Y302D01*
X242Y302D01*
X258D01*
X258Y302D01*
D02*
G37*
G36*
X375Y276D02*
X364D01*
X364Y276D01*
X365Y277D01*
X365Y277D01*
X365Y280D01*
X365Y287D01*
X375D01*
X375Y276D01*
D02*
G37*
G36*
X356D02*
X345D01*
X345Y276D01*
X345Y277D01*
X345Y277D01*
X345Y280D01*
X345Y287D01*
X355D01*
X356Y276D01*
D02*
G37*
G36*
X257D02*
X246D01*
X246Y276D01*
X246Y277D01*
X247Y277D01*
X247Y280D01*
X247Y287D01*
X257D01*
X257Y276D01*
D02*
G37*
G36*
X698Y275D02*
X703Y270D01*
X703Y270D01*
X703Y270D01*
X704Y247D01*
X704Y249D01*
X703Y250D01*
X703Y252D01*
X702Y253D01*
X702Y254D01*
X701Y256D01*
X700Y257D01*
X699Y259D01*
X698Y260D01*
X696Y262D01*
Y276D01*
X698Y275D01*
D02*
G37*
G36*
X1331Y218D02*
X1330Y219D01*
X1330Y219D01*
X1330Y220D01*
X1329Y221D01*
X1328Y221D01*
X1327Y222D01*
X1326Y222D01*
X1324Y222D01*
X1322Y223D01*
X1321Y223D01*
Y233D01*
X1322Y233D01*
X1324Y233D01*
X1326Y233D01*
X1327Y233D01*
X1328Y234D01*
X1329Y234D01*
X1330Y235D01*
X1330Y236D01*
X1330Y237D01*
X1331Y238D01*
Y218D01*
D02*
G37*
G36*
X1304Y237D02*
X1305Y236D01*
X1305Y235D01*
X1306Y234D01*
X1307Y234D01*
X1308Y233D01*
X1309Y233D01*
X1311Y233D01*
X1312Y233D01*
X1314Y233D01*
Y223D01*
X1312Y223D01*
X1311Y222D01*
X1309Y222D01*
X1308Y222D01*
X1307Y221D01*
X1306Y221D01*
X1305Y220D01*
X1305Y219D01*
X1304Y219D01*
X1304Y218D01*
Y238D01*
X1304Y237D01*
D02*
G37*
G36*
X1264Y202D02*
X1263Y203D01*
X1262Y203D01*
X1261Y203D01*
X1259Y202D01*
X1258Y202D01*
X1256Y201D01*
X1255Y200D01*
X1253Y198D01*
X1251Y197D01*
X1250Y195D01*
X1239Y198D01*
X1241Y200D01*
X1244Y204D01*
X1245Y206D01*
X1246Y208D01*
X1247Y209D01*
X1247Y210D01*
X1247Y211D01*
X1246Y212D01*
X1246Y212D01*
X1264Y202D01*
D02*
G37*
G36*
X257Y212D02*
X257Y212D01*
X257Y211D01*
X257Y208D01*
X257Y202D01*
X247D01*
X246Y213D01*
X257D01*
X257Y212D01*
D02*
G37*
G36*
X-44Y185D02*
X-44Y186D01*
X-44Y187D01*
X-45Y188D01*
X-45Y188D01*
X-46Y189D01*
X-47Y189D01*
X-49Y190D01*
X-50Y190D01*
X-52Y190D01*
X-54Y190D01*
Y200D01*
X-52Y200D01*
X-50Y200D01*
X-49Y200D01*
X-47Y201D01*
X-46Y201D01*
X-45Y202D01*
X-45Y202D01*
X-44Y203D01*
X-44Y204D01*
X-44Y205D01*
Y185D01*
D02*
G37*
G36*
X595Y130D02*
X595Y130D01*
X595Y130D01*
X595Y130D01*
X594Y129D01*
X592Y129D01*
X587Y129D01*
X585Y129D01*
Y139D01*
X587Y139D01*
X589Y139D01*
X591Y140D01*
X592Y140D01*
X593Y140D01*
X594Y141D01*
X595Y142D01*
X595Y142D01*
X595Y143D01*
X595Y144D01*
Y130D01*
D02*
G37*
G36*
X551Y140D02*
X552Y140D01*
X552Y139D01*
X555Y139D01*
X562Y139D01*
Y129D01*
X551Y129D01*
Y140D01*
X551Y140D01*
D02*
G37*
G36*
X488Y129D02*
X487Y129D01*
X487Y129D01*
X486Y129D01*
X483Y129D01*
X477Y129D01*
Y139D01*
X488Y140D01*
Y129D01*
D02*
G37*
G36*
X810Y106D02*
X810Y106D01*
X810Y107D01*
X810Y108D01*
X809Y108D01*
X808Y109D01*
X807Y109D01*
X806Y109D01*
X804Y109D01*
X802Y110D01*
X800Y110D01*
Y120D01*
X802Y120D01*
X804Y120D01*
X806Y120D01*
X807Y120D01*
X808Y121D01*
X809Y121D01*
X810Y122D01*
X810Y123D01*
X810Y124D01*
X810Y125D01*
Y106D01*
D02*
G37*
G36*
X719Y107D02*
X717Y104D01*
X713Y100D01*
X712Y99D01*
X711Y97D01*
X711Y96D01*
X710Y95D01*
X711Y94D01*
X711Y93D01*
X712Y93D01*
X692Y101D01*
X693Y100D01*
X694Y100D01*
X695Y100D01*
X697Y101D01*
X698Y101D01*
X699Y102D01*
X701Y103D01*
X703Y105D01*
X704Y106D01*
X706Y108D01*
X719Y107D01*
D02*
G37*
G36*
X1076Y100D02*
X1076Y101D01*
X1075Y102D01*
X1074Y103D01*
X1073Y103D01*
X1072Y104D01*
X1071Y104D01*
X1069Y105D01*
X1067Y105D01*
X1064Y105D01*
X1061Y105D01*
Y115D01*
X1064Y115D01*
X1069Y115D01*
X1071Y116D01*
X1072Y116D01*
X1073Y117D01*
X1074Y117D01*
X1075Y118D01*
X1076Y119D01*
X1076Y120D01*
Y100D01*
D02*
G37*
G36*
X55Y108D02*
X55Y108D01*
X55Y107D01*
X55Y107D01*
X55Y105D01*
X55Y98D01*
X35D01*
X35Y100D01*
X34Y108D01*
X34Y108D01*
X34Y108D01*
X55D01*
X55Y108D01*
D02*
G37*
G36*
X-121Y72D02*
X-122Y72D01*
X-123Y73D01*
X-124Y73D01*
X-129Y73D01*
X-137Y74D01*
X-144Y74D01*
X-146Y74D01*
X-164Y73D01*
X-165Y72D01*
X-166Y72D01*
Y95D01*
X-165Y95D01*
X-164Y95D01*
X-162Y95D01*
X-158Y94D01*
X-150Y94D01*
X-143Y94D01*
X-140Y94D01*
X-123Y95D01*
X-122Y95D01*
X-121Y95D01*
Y72D01*
D02*
G37*
G36*
X551Y100D02*
X552Y100D01*
X552Y100D01*
X555Y100D01*
X562Y100D01*
Y90D01*
X551Y89D01*
Y100D01*
X551Y100D01*
D02*
G37*
G36*
X594Y82D02*
X594Y82D01*
X594Y82D01*
X594Y82D01*
X590Y82D01*
X588Y83D01*
Y93D01*
X594Y93D01*
Y82D01*
D02*
G37*
G36*
X551Y81D02*
X552Y80D01*
X552Y80D01*
X555Y80D01*
X562Y80D01*
Y70D01*
X551Y70D01*
Y81D01*
X551Y81D01*
D02*
G37*
G36*
X-98Y62D02*
X-100Y60D01*
X-103Y56D01*
X-104Y55D01*
X-104Y53D01*
X-105Y52D01*
X-105Y51D01*
X-105Y50D01*
X-105Y49D01*
X-104Y48D01*
X-118Y62D01*
X-117Y62D01*
X-117Y61D01*
X-116Y61D01*
X-114Y61D01*
X-113Y62D01*
X-112Y63D01*
X-110Y64D01*
X-109Y65D01*
X-107Y67D01*
X-105Y69D01*
X-98Y62D01*
D02*
G37*
G36*
X114Y66D02*
X114Y65D01*
X114Y65D01*
X114Y64D01*
X115Y63D01*
X115Y63D01*
X116Y62D01*
X117Y61D01*
X118Y60D01*
X111Y53D01*
X110Y54D01*
X108Y55D01*
X108Y55D01*
X107Y56D01*
X106Y56D01*
X106Y56D01*
X105Y57D01*
X105Y57D01*
X104Y57D01*
X114Y66D01*
X114Y66D01*
D02*
G37*
G36*
X1261Y50D02*
X1261Y51D01*
X1260Y52D01*
X1260Y53D01*
X1259Y53D01*
X1257Y54D01*
X1256Y54D01*
X1254Y55D01*
X1252Y55D01*
X1249Y55D01*
X1246Y55D01*
Y65D01*
X1249Y65D01*
X1254Y65D01*
X1256Y66D01*
X1257Y66D01*
X1259Y67D01*
X1260Y67D01*
X1260Y68D01*
X1261Y69D01*
X1261Y70D01*
Y50D01*
D02*
G37*
G36*
X551Y61D02*
X552Y61D01*
X552Y61D01*
X555Y61D01*
X562Y60D01*
Y50D01*
X551Y50D01*
Y61D01*
X551Y61D01*
D02*
G37*
G36*
X169Y50D02*
X169Y50D01*
X168Y50D01*
X168Y50D01*
X165Y50D01*
X158Y50D01*
Y60D01*
X169Y61D01*
Y50D01*
D02*
G37*
G36*
X665Y50D02*
X665Y51D01*
X665Y52D01*
X664Y53D01*
X664Y53D01*
X663Y54D01*
X661Y54D01*
X660Y55D01*
X659Y55D01*
X657Y55D01*
X655Y55D01*
Y65D01*
X657Y65D01*
X659Y65D01*
X660Y65D01*
X661Y66D01*
X663Y66D01*
X664Y67D01*
X664Y67D01*
X665Y68D01*
X665Y69D01*
X665Y70D01*
Y50D01*
D02*
G37*
G36*
X169Y30D02*
X168Y30D01*
X168Y31D01*
X167Y31D01*
X166Y31D01*
X163Y31D01*
X158Y31D01*
X159Y41D01*
X169Y41D01*
Y30D01*
D02*
G37*
G36*
X-71Y29D02*
X-71Y29D01*
X-71Y30D01*
X-71Y31D01*
X-72Y31D01*
X-73Y31D01*
X-74Y32D01*
X-75Y32D01*
X-76Y32D01*
X-78Y32D01*
X-80Y32D01*
Y42D01*
X-78Y42D01*
X-76Y43D01*
X-75Y43D01*
X-74Y43D01*
X-73Y43D01*
X-72Y44D01*
X-71Y44D01*
X-71Y45D01*
X-71Y45D01*
X-71Y46D01*
Y29D01*
D02*
G37*
G36*
X67Y45D02*
X67Y44D01*
X68Y44D01*
X68Y43D01*
X69Y42D01*
X70Y42D01*
X72Y42D01*
X73Y41D01*
X75Y41D01*
X77Y41D01*
Y31D01*
X75Y31D01*
X73Y31D01*
X72Y31D01*
X70Y30D01*
X69Y30D01*
X68Y29D01*
X68Y29D01*
X67Y28D01*
X67Y27D01*
X67Y26D01*
Y46D01*
X67Y45D01*
D02*
G37*
G36*
X1184Y10D02*
X1164Y-20D01*
X1164Y-16D01*
X1163Y-13D01*
X1162Y-10D01*
X1161Y-7D01*
X1159Y-5D01*
X1157Y-3D01*
X1154Y-2D01*
X1151Y-1D01*
X1149Y-0D01*
X1137Y-1D01*
X1136Y-1D01*
Y21D01*
X1137Y21D01*
X1138Y21D01*
X1140Y21D01*
X1144Y20D01*
X1148Y20D01*
X1151Y21D01*
X1154Y22D01*
X1157Y23D01*
X1159Y25D01*
X1161Y27D01*
X1162Y30D01*
X1163Y33D01*
X1164Y36D01*
X1164Y40D01*
X1184Y10D01*
D02*
G37*
G36*
X139Y11D02*
X138Y10D01*
X136Y7D01*
X136Y7D01*
X135Y6D01*
X135Y6D01*
X135Y5D01*
X135Y5D01*
X127Y16D01*
X128Y16D01*
X128Y16D01*
X129Y16D01*
X129Y16D01*
X130Y17D01*
X131Y17D01*
X131Y18D01*
X132Y18D01*
X134Y19D01*
X139Y11D01*
D02*
G37*
G36*
X169Y11D02*
X169Y11D01*
X168Y11D01*
X168Y11D01*
X165Y11D01*
X158Y11D01*
Y21D01*
X169Y22D01*
Y11D01*
D02*
G37*
G36*
X-71Y5D02*
X-70Y4D01*
X-69Y-5D01*
X-70Y-6D01*
X-71Y-6D01*
Y-10D01*
X-71Y-10D01*
X-71Y-9D01*
X-72Y-8D01*
X-72Y-7D01*
X-73Y-7D01*
X-74Y-6D01*
X-75Y-6D01*
X-75Y-6D01*
X-75Y-6D01*
X-76Y-7D01*
X-76Y-7D01*
X-77Y-8D01*
X-77Y-6D01*
X-77Y-6D01*
X-79Y-6D01*
X-81Y-5D01*
Y4D01*
X-79Y5D01*
X-77Y5D01*
X-77Y6D01*
X-77Y6D01*
X-76Y6D01*
X-76Y5D01*
X-75Y5D01*
X-75Y5D01*
X-74Y5D01*
X-73Y6D01*
X-72Y6D01*
X-72Y7D01*
X-71Y8D01*
X-71Y9D01*
X-71Y9D01*
Y5D01*
D02*
G37*
G36*
X-159Y20D02*
X-159Y19D01*
X-158Y18D01*
X-158Y17D01*
X-157Y16D01*
X-156Y15D01*
X-155Y14D01*
X-153Y12D01*
X-151Y11D01*
X-149Y9D01*
X-154Y1D01*
X-156Y2D01*
X-157Y3D01*
X-159Y3D01*
X-160Y4D01*
X-162Y4D01*
X-163Y4D01*
X-165Y5D01*
X-166Y5D01*
X-168Y5D01*
X-169Y5D01*
X-158Y21D01*
X-159Y20D01*
D02*
G37*
G36*
X1076Y-0D02*
X1076Y-0D01*
X1075Y-0D01*
X1057Y0D01*
Y20D01*
X1076Y20D01*
Y-0D01*
D02*
G37*
G36*
X-131Y-2D02*
X-129Y-3D01*
X-128Y-3D01*
X-126Y-4D01*
X-125Y-4D01*
X-123Y-4D01*
X-122Y-5D01*
X-120Y-5D01*
X-119Y-5D01*
X-117Y-5D01*
X-129Y-21D01*
X-128Y-20D01*
X-128Y-19D01*
X-128Y-18D01*
X-129Y-17D01*
X-129Y-16D01*
X-131Y-15D01*
X-132Y-14D01*
X-134Y-12D01*
X-136Y-11D01*
X-138Y-9D01*
X-132Y-1D01*
X-131Y-2D01*
D02*
G37*
G36*
X488Y-29D02*
X487Y-29D01*
X487Y-29D01*
X486Y-28D01*
X483Y-28D01*
X477Y-28D01*
Y-18D01*
X488Y-18D01*
Y-29D01*
D02*
G37*
G36*
X232Y-18D02*
X233Y-18D01*
X242Y-18D01*
X244Y-28D01*
X242Y-28D01*
X233Y-28D01*
X233Y-29D01*
X232Y-29D01*
Y-18D01*
X232Y-18D01*
D02*
G37*
G36*
X18Y26D02*
X19Y23D01*
X20Y20D01*
X21Y17D01*
X23Y15D01*
X25Y13D01*
X28Y12D01*
X31Y11D01*
X34Y10D01*
X38Y10D01*
Y-10D01*
X34Y-10D01*
X31Y-11D01*
X28Y-12D01*
X25Y-13D01*
X23Y-15D01*
X21Y-17D01*
X20Y-20D01*
X19Y-23D01*
X18Y-26D01*
X18Y-30D01*
X-2Y-0D01*
X18Y30D01*
X18Y26D01*
D02*
G37*
G36*
X193Y-29D02*
X192Y-29D01*
X191Y-30D01*
X191Y-31D01*
X190Y-32D01*
X190Y-33D01*
X189Y-34D01*
X189Y-36D01*
X189Y-37D01*
X189Y-39D01*
X179D01*
X179Y-37D01*
X179Y-36D01*
X179Y-34D01*
X178Y-33D01*
X178Y-32D01*
X177Y-31D01*
X177Y-30D01*
X176Y-29D01*
X175Y-29D01*
X174Y-29D01*
X194D01*
X193Y-29D01*
D02*
G37*
G36*
X474Y-43D02*
X463D01*
X463Y-42D01*
X463Y-42D01*
X463Y-41D01*
X463Y-38D01*
X463Y-32D01*
X473D01*
X474Y-43D01*
D02*
G37*
G36*
X67Y-28D02*
X67Y-29D01*
X68Y-30D01*
X68Y-31D01*
X69Y-31D01*
X70Y-32D01*
X72Y-32D01*
X73Y-32D01*
X73Y-32D01*
X74Y-32D01*
X75Y-32D01*
X76Y-32D01*
X76Y-31D01*
X77Y-31D01*
X77Y-31D01*
X78Y-31D01*
Y-44D01*
X77Y-44D01*
X77Y-44D01*
X76Y-43D01*
X76Y-43D01*
X75Y-43D01*
X74Y-43D01*
X73Y-43D01*
X73Y-43D01*
X72Y-43D01*
X70Y-43D01*
X69Y-44D01*
X68Y-44D01*
X68Y-45D01*
X67Y-46D01*
X67Y-46D01*
X67Y-47D01*
Y-27D01*
X67Y-28D01*
D02*
G37*
G36*
X-71Y-47D02*
X-71Y-46D01*
X-71Y-45D01*
X-72Y-45D01*
X-72Y-44D01*
X-73Y-44D01*
X-74Y-43D01*
X-76Y-43D01*
X-77Y-43D01*
X-79Y-42D01*
X-81Y-42D01*
Y-32D01*
X-79Y-32D01*
X-77Y-32D01*
X-76Y-32D01*
X-74Y-32D01*
X-73Y-31D01*
X-72Y-31D01*
X-72Y-30D01*
X-71Y-29D01*
X-71Y-28D01*
X-71Y-28D01*
Y-47D01*
D02*
G37*
G36*
X757Y-41D02*
X761D01*
X761Y-41D01*
X760Y-41D01*
X759Y-42D01*
X758Y-42D01*
X758Y-43D01*
X757Y-44D01*
X757Y-45D01*
X758Y-46D01*
X759Y-47D01*
X760Y-48D01*
X761Y-49D01*
X763Y-49D01*
X765Y-49D01*
X766Y-49D01*
X751Y-59D01*
X736Y-49D01*
X738Y-49D01*
X740Y-49D01*
X742Y-49D01*
X743Y-48D01*
X744Y-47D01*
X745Y-46D01*
X746Y-45D01*
X746Y-44D01*
X745Y-43D01*
X745Y-42D01*
X744Y-42D01*
X743Y-41D01*
X742Y-41D01*
X741Y-41D01*
X746D01*
X746Y-39D01*
X756D01*
X757Y-41D01*
D02*
G37*
G36*
X189Y-53D02*
X189Y-55D01*
X189Y-56D01*
X190Y-57D01*
X190Y-59D01*
X191Y-60D01*
X191Y-60D01*
X192Y-61D01*
X193Y-61D01*
X194Y-61D01*
X174D01*
X175Y-61D01*
X176Y-61D01*
X177Y-60D01*
X177Y-60D01*
X178Y-59D01*
X178Y-57D01*
X179Y-56D01*
X179Y-55D01*
X179Y-53D01*
X179Y-51D01*
X189D01*
X189Y-53D01*
D02*
G37*
G36*
X1100Y-52D02*
X1099Y-52D01*
X1098Y-52D01*
X1097Y-53D01*
X1097Y-53D01*
X1096Y-54D01*
X1096Y-55D01*
X1095Y-57D01*
X1095Y-58D01*
X1095Y-60D01*
X1095Y-62D01*
X1085D01*
X1085Y-60D01*
X1085Y-58D01*
X1085Y-57D01*
X1084Y-55D01*
X1084Y-54D01*
X1083Y-53D01*
X1083Y-52D01*
X1082Y-52D01*
X1081Y-52D01*
X1080Y-51D01*
X1100Y-52D01*
D02*
G37*
G36*
X810Y-64D02*
X810Y-63D01*
X810Y-63D01*
X810Y-62D01*
X809Y-61D01*
X808Y-61D01*
X807Y-60D01*
X806Y-60D01*
X804Y-60D01*
X802Y-59D01*
X800Y-59D01*
Y-49D01*
X802Y-49D01*
X804Y-49D01*
X806Y-49D01*
X807Y-49D01*
X808Y-48D01*
X809Y-48D01*
X810Y-47D01*
X810Y-46D01*
X810Y-45D01*
X810Y-44D01*
Y-64D01*
D02*
G37*
G36*
X165Y-73D02*
X167Y-73D01*
X171Y-74D01*
X175Y-74D01*
Y-94D01*
X171Y-94D01*
X167Y-94D01*
X165Y-94D01*
Y-104D01*
X165Y-102D01*
X165Y-100D01*
X164Y-99D01*
X162Y-97D01*
X160Y-96D01*
X160Y-96D01*
X160Y-96D01*
X158Y-97D01*
X156Y-99D01*
X155Y-100D01*
X155Y-102D01*
X155Y-104D01*
Y-94D01*
X153Y-94D01*
X149Y-94D01*
X145Y-94D01*
Y-74D01*
X149Y-74D01*
X153Y-73D01*
X155Y-73D01*
Y-64D01*
X155Y-66D01*
X155Y-67D01*
X156Y-69D01*
X158Y-70D01*
X160Y-71D01*
X160Y-71D01*
X160Y-71D01*
X162Y-70D01*
X164Y-69D01*
X165Y-67D01*
X165Y-66D01*
X165Y-64D01*
Y-73D01*
D02*
G37*
G36*
X-121Y-95D02*
X-122Y-95D01*
X-123Y-95D01*
X-124Y-95D01*
X-129Y-94D01*
X-137Y-94D01*
X-144Y-94D01*
X-146Y-94D01*
X-164Y-95D01*
X-165Y-95D01*
X-166Y-95D01*
Y-72D01*
X-165Y-72D01*
X-164Y-73D01*
X-162Y-73D01*
X-158Y-73D01*
X-150Y-74D01*
X-143Y-74D01*
X-140Y-74D01*
X-123Y-73D01*
X-122Y-72D01*
X-121Y-72D01*
Y-95D01*
D02*
G37*
G36*
X510Y-86D02*
X510Y-85D01*
X510Y-85D01*
X509Y-84D01*
X508Y-83D01*
X508Y-83D01*
X506Y-82D01*
X505Y-82D01*
X504Y-82D01*
X502Y-81D01*
X500Y-81D01*
Y-71D01*
X502Y-71D01*
X504Y-71D01*
X505Y-71D01*
X506Y-71D01*
X508Y-70D01*
X508Y-70D01*
X509Y-69D01*
X510Y-68D01*
X510Y-67D01*
X510Y-66D01*
X510Y-86D01*
D02*
G37*
G36*
X474Y-67D02*
X474Y-68D01*
X475Y-69D01*
X476Y-70D01*
X477Y-70D01*
X478Y-71D01*
X479Y-71D01*
X481Y-71D01*
X482Y-71D01*
X484Y-71D01*
Y-81D01*
X482Y-81D01*
X481Y-82D01*
X479Y-82D01*
X478Y-82D01*
X477Y-83D01*
X476Y-83D01*
X475Y-84D01*
X474Y-85D01*
X474Y-85D01*
X474Y-86D01*
Y-66D01*
X474Y-67D01*
D02*
G37*
G36*
X-112Y-72D02*
X-111Y-73D01*
X-109Y-73D01*
X-105Y-73D01*
X-97Y-74D01*
X-89Y-74D01*
Y-94D01*
X-93Y-94D01*
X-111Y-95D01*
X-112Y-95D01*
X-113Y-95D01*
Y-72D01*
X-112Y-72D01*
D02*
G37*
G36*
X434Y-106D02*
X434Y-107D01*
X434Y-107D01*
X434Y-110D01*
X434Y-117D01*
X424D01*
X423Y-106D01*
X434D01*
X434Y-106D01*
D02*
G37*
G36*
X415D02*
X414Y-107D01*
X414Y-107D01*
X414Y-110D01*
X414Y-117D01*
X404D01*
X404Y-106D01*
X415D01*
X415Y-106D01*
D02*
G37*
G36*
X395D02*
X395Y-107D01*
X395Y-107D01*
X395Y-110D01*
X395Y-117D01*
X385D01*
X384Y-106D01*
X395D01*
X395Y-106D01*
D02*
G37*
G36*
X257Y-106D02*
X257Y-107D01*
X257Y-109D01*
X257Y-117D01*
X247Y-117D01*
X247Y-115D01*
X246Y-107D01*
X246Y-106D01*
X257D01*
X257Y-106D01*
D02*
G37*
G36*
X1095Y-105D02*
X1095Y-106D01*
X1096Y-108D01*
X1097Y-110D01*
X1098Y-112D01*
X1099Y-114D01*
X1101Y-117D01*
X1102Y-119D01*
X1107Y-123D01*
X1073D01*
X1076Y-121D01*
X1079Y-117D01*
X1081Y-114D01*
X1082Y-112D01*
X1083Y-110D01*
X1084Y-108D01*
X1085Y-106D01*
X1085Y-105D01*
X1085Y-103D01*
X1095D01*
X1095Y-105D01*
D02*
G37*
G36*
X966D02*
X966Y-106D01*
X967Y-108D01*
X967Y-110D01*
X968Y-112D01*
X970Y-114D01*
X971Y-117D01*
X973Y-119D01*
X977Y-123D01*
X944D01*
X946Y-121D01*
X950Y-117D01*
X951Y-114D01*
X953Y-112D01*
X954Y-110D01*
X955Y-108D01*
X955Y-106D01*
X955Y-105D01*
X956Y-103D01*
X966D01*
X966Y-105D01*
D02*
G37*
G36*
X257Y-121D02*
X257Y-123D01*
X257Y-124D01*
X257Y-125D01*
X258Y-126D01*
X258Y-126D01*
X258Y-127D01*
X259Y-127D01*
X259Y-128D01*
X245D01*
X245Y-127D01*
X246Y-127D01*
X246Y-126D01*
X246Y-126D01*
X247Y-125D01*
X247Y-124D01*
X247Y-123D01*
X247Y-122D01*
X247Y-120D01*
X257D01*
X257Y-121D01*
D02*
G37*
G36*
X944Y-157D02*
X941Y-154D01*
X937Y-151D01*
X935Y-149D01*
X933Y-148D01*
X931Y-147D01*
X929Y-146D01*
X927Y-145D01*
X925Y-145D01*
X923Y-145D01*
X923Y-135D01*
X925Y-135D01*
X927Y-135D01*
X929Y-134D01*
X931Y-133D01*
X933Y-132D01*
X935Y-131D01*
X937Y-129D01*
X939Y-128D01*
X944Y-123D01*
X944Y-157D01*
D02*
G37*
G36*
X361Y-153D02*
X360Y-153D01*
X360Y-153D01*
X359Y-154D01*
X358Y-154D01*
X358Y-154D01*
X357Y-155D01*
X356Y-155D01*
X356Y-156D01*
X354Y-157D01*
X347Y-150D01*
X348Y-149D01*
X349Y-148D01*
X350Y-147D01*
X350Y-146D01*
X350Y-146D01*
X351Y-145D01*
X351Y-144D01*
X351Y-144D01*
X351Y-143D01*
X361Y-153D01*
D02*
G37*
G36*
X1513Y-160D02*
X1513Y-159D01*
X1513Y-158D01*
X1512Y-157D01*
X1512Y-157D01*
X1511Y-156D01*
X1509Y-156D01*
X1508Y-155D01*
X1506Y-155D01*
X1504Y-155D01*
X1502Y-155D01*
Y-145D01*
X1504Y-145D01*
X1506Y-145D01*
X1508Y-145D01*
X1509Y-144D01*
X1511Y-144D01*
X1512Y-143D01*
X1512Y-143D01*
X1513Y-142D01*
X1513Y-141D01*
X1513Y-140D01*
Y-160D01*
D02*
G37*
G36*
X1090Y-164D02*
X1087Y-164D01*
X1081Y-164D01*
X1078Y-165D01*
X1076Y-165D01*
X1074Y-166D01*
X1072Y-167D01*
X1070Y-168D01*
X1069Y-169D01*
X1067Y-170D01*
X1060Y-163D01*
X1061Y-161D01*
X1062Y-160D01*
X1063Y-158D01*
X1064Y-156D01*
X1065Y-154D01*
X1065Y-152D01*
X1066Y-149D01*
X1066Y-146D01*
X1066Y-140D01*
X1090Y-164D01*
D02*
G37*
G36*
X379Y-152D02*
Y-157D01*
X380Y-161D01*
X382Y-164D01*
X423Y-204D01*
X426Y-207D01*
X430Y-207D01*
X443D01*
X443Y-208D01*
X445Y-208D01*
X446Y-208D01*
X447Y-208D01*
X448Y-208D01*
X448Y-208D01*
X448Y-208D01*
Y-235D01*
X498D01*
Y-209D01*
X498Y-209D01*
X499Y-208D01*
X500Y-208D01*
X501Y-208D01*
X503Y-208D01*
X503Y-208D01*
X506D01*
X507Y-208D01*
X509Y-208D01*
X510Y-208D01*
X511Y-208D01*
X512Y-209D01*
X512Y-209D01*
Y-214D01*
X562D01*
Y-174D01*
X512D01*
X509Y-170D01*
X514Y-165D01*
X878D01*
X907Y-194D01*
X910Y-196D01*
X914Y-197D01*
X1043D01*
X1047Y-196D01*
X1050Y-194D01*
X1070Y-174D01*
X1071Y-174D01*
X1072Y-173D01*
X1073Y-172D01*
X1074Y-171D01*
X1076Y-171D01*
X1078Y-170D01*
X1080Y-170D01*
X1082Y-169D01*
X1087Y-169D01*
X1090Y-169D01*
X1090Y-169D01*
X1097Y-168D01*
X1104Y-165D01*
X1110Y-160D01*
X1114Y-156D01*
X1119Y-158D01*
Y-178D01*
X1119Y-178D01*
X1119Y-185D01*
X1118Y-193D01*
X1118Y-193D01*
X1117D01*
X1117Y-197D01*
X1117Y-198D01*
X1117Y-198D01*
X1117Y-199D01*
X1117Y-248D01*
X1113Y-250D01*
X1096D01*
X1073Y-227D01*
X1068Y-223D01*
X1062Y-222D01*
X1041D01*
X1041Y-222D01*
X1037Y-222D01*
X1034Y-222D01*
X1032Y-221D01*
X1030Y-221D01*
X1028Y-220D01*
X1027Y-220D01*
X1027Y-219D01*
X1026Y-219D01*
X1026Y-218D01*
X1026Y-217D01*
X1026Y-217D01*
Y-212D01*
X976D01*
Y-221D01*
X976Y-221D01*
X975Y-222D01*
X973Y-222D01*
X969Y-222D01*
X966Y-222D01*
X966Y-222D01*
X961Y-223D01*
X956Y-227D01*
X862Y-320D01*
X813D01*
X813Y-320D01*
X813Y-320D01*
X813Y-320D01*
X809Y-320D01*
X809Y-320D01*
X809Y-320D01*
X805Y-320D01*
X774D01*
X768Y-321D01*
X767Y-322D01*
X754D01*
X753Y-322D01*
X753Y-322D01*
X748D01*
Y-323D01*
X737Y-324D01*
X733Y-324D01*
X733Y-324D01*
X573D01*
X573Y-324D01*
X567Y-324D01*
X563Y-324D01*
X562Y-323D01*
Y-322D01*
X557D01*
X557Y-322D01*
X556Y-322D01*
X518D01*
X518Y-322D01*
X517Y-322D01*
X517Y-322D01*
X516Y-322D01*
X512D01*
Y-325D01*
X511Y-325D01*
X509Y-325D01*
X507Y-325D01*
X506Y-325D01*
X446D01*
X439Y-318D01*
Y-251D01*
X438Y-247D01*
X436Y-244D01*
X407Y-215D01*
X404Y-213D01*
X400Y-212D01*
X360D01*
X356Y-213D01*
X353Y-215D01*
X350Y-218D01*
X349Y-218D01*
X349Y-218D01*
X349Y-218D01*
X348Y-219D01*
X347Y-220D01*
X346Y-221D01*
X345Y-221D01*
X345Y-221D01*
X344Y-222D01*
X344Y-222D01*
X343Y-222D01*
X343Y-222D01*
X342Y-221D01*
X342Y-221D01*
X342Y-221D01*
X341Y-221D01*
X341Y-221D01*
X334Y-220D01*
X324Y-222D01*
X316Y-227D01*
X314Y-231D01*
X309Y-231D01*
X308Y-231D01*
X304Y-225D01*
X298Y-221D01*
X291Y-218D01*
X289Y-218D01*
Y-245D01*
X279D01*
Y-218D01*
X277Y-218D01*
X270Y-221D01*
X264Y-225D01*
X262Y-228D01*
X256D01*
X254Y-225D01*
X248Y-221D01*
X241Y-218D01*
X234Y-217D01*
X233Y-217D01*
X231Y-212D01*
X242Y-202D01*
X313D01*
X316Y-201D01*
X320Y-199D01*
X357Y-161D01*
X358Y-161D01*
X359Y-160D01*
X360Y-159D01*
X360Y-159D01*
X361Y-159D01*
X361Y-159D01*
X361Y-159D01*
X361Y-159D01*
X361Y-159D01*
X361Y-159D01*
X361Y-159D01*
X361Y-159D01*
X362Y-158D01*
X367Y-157D01*
X372Y-154D01*
X374Y-150D01*
X379Y-152D01*
D02*
G37*
G36*
X1564Y-185D02*
X1563Y-186D01*
X1562Y-186D01*
X1562Y-187D01*
X1561Y-188D01*
X1561Y-189D01*
X1560Y-190D01*
X1560Y-191D01*
X1560Y-193D01*
X1560Y-195D01*
X1550D01*
X1550Y-193D01*
X1550Y-191D01*
X1550Y-190D01*
X1549Y-189D01*
X1549Y-188D01*
X1548Y-187D01*
X1548Y-186D01*
X1547Y-186D01*
X1546Y-185D01*
X1545Y-185D01*
X1565D01*
X1564Y-185D01*
D02*
G37*
G36*
X1144Y-182D02*
X1145Y-197D01*
X1145Y-198D01*
X1146Y-198D01*
X1122D01*
X1123Y-198D01*
X1123Y-197D01*
X1123Y-196D01*
X1123Y-195D01*
X1124Y-193D01*
X1124Y-185D01*
X1124Y-178D01*
X1144D01*
X1144Y-182D01*
D02*
G37*
G36*
X453Y-207D02*
X453Y-206D01*
X453Y-205D01*
X453Y-205D01*
X452Y-204D01*
X451Y-203D01*
X450Y-203D01*
X449Y-203D01*
X447Y-202D01*
X445Y-202D01*
X443Y-202D01*
Y-192D01*
X445Y-192D01*
X447Y-192D01*
X449Y-192D01*
X450Y-191D01*
X451Y-191D01*
X452Y-190D01*
X453Y-190D01*
X453Y-189D01*
X453Y-188D01*
X453Y-187D01*
Y-207D01*
D02*
G37*
G36*
X517Y-208D02*
X517Y-207D01*
X517Y-206D01*
X516Y-205D01*
X516Y-204D01*
X515Y-204D01*
X513Y-203D01*
X512Y-203D01*
X511Y-203D01*
X509Y-203D01*
X507Y-203D01*
Y-193D01*
X509Y-193D01*
X511Y-192D01*
X512Y-192D01*
X513Y-192D01*
X515Y-191D01*
X516Y-191D01*
X516Y-190D01*
X517Y-189D01*
X517Y-189D01*
X517Y-188D01*
Y-208D01*
D02*
G37*
G36*
X493Y-189D02*
X493Y-189D01*
X493Y-190D01*
X494Y-191D01*
X495Y-191D01*
X496Y-192D01*
X497Y-192D01*
X499Y-192D01*
X501Y-193D01*
X503Y-193D01*
Y-203D01*
X501Y-203D01*
X499Y-203D01*
X497Y-203D01*
X496Y-203D01*
X495Y-204D01*
X494Y-204D01*
X493Y-205D01*
X493Y-206D01*
X493Y-207D01*
X492Y-208D01*
Y-188D01*
X493Y-189D01*
D02*
G37*
G36*
X1336Y-202D02*
X1340Y-205D01*
X1341Y-206D01*
X1343Y-207D01*
X1344Y-207D01*
X1346Y-208D01*
X1347Y-208D01*
X1348Y-208D01*
X1349Y-207D01*
X1331Y-217D01*
X1331Y-217D01*
X1332Y-216D01*
X1332Y-215D01*
X1332Y-214D01*
X1331Y-213D01*
X1330Y-211D01*
X1329Y-209D01*
X1328Y-207D01*
X1324Y-203D01*
X1335Y-200D01*
X1336Y-202D01*
D02*
G37*
G36*
X359Y-230D02*
X358Y-231D01*
X357Y-232D01*
X356Y-234D01*
X355Y-235D01*
X354Y-236D01*
X354Y-237D01*
X354Y-239D01*
X353Y-240D01*
X353Y-241D01*
X353Y-242D01*
X341Y-227D01*
X342Y-227D01*
X343Y-227D01*
X344Y-227D01*
X345Y-227D01*
X347Y-226D01*
X348Y-226D01*
X349Y-225D01*
X350Y-224D01*
X351Y-223D01*
X353Y-222D01*
X359Y-230D01*
D02*
G37*
G36*
X267Y-255D02*
X266Y-254D01*
X266Y-253D01*
X265Y-252D01*
X264Y-252D01*
X263Y-251D01*
X261Y-251D01*
X260Y-250D01*
X259Y-250D01*
X258Y-250D01*
X257Y-251D01*
X255Y-251D01*
X254Y-252D01*
X253Y-252D01*
X252Y-253D01*
X252Y-254D01*
X251Y-255D01*
Y-235D01*
X252Y-236D01*
X252Y-237D01*
X253Y-238D01*
X254Y-238D01*
X255Y-239D01*
X257Y-239D01*
X258Y-240D01*
X259Y-240D01*
X260Y-240D01*
X261Y-239D01*
X263Y-239D01*
X264Y-238D01*
X265Y-238D01*
X266Y-237D01*
X266Y-236D01*
X267Y-235D01*
Y-255D01*
D02*
G37*
G36*
X1580Y-220D02*
X1581Y-223D01*
X1581Y-225D01*
X1583Y-227D01*
X1584Y-230D01*
X1586Y-232D01*
X1588Y-235D01*
X1593Y-241D01*
X1596Y-244D01*
X1554D01*
X1557Y-241D01*
X1562Y-235D01*
X1564Y-232D01*
X1566Y-230D01*
X1567Y-227D01*
X1569Y-225D01*
X1569Y-223D01*
X1570Y-220D01*
X1570Y-218D01*
X1580D01*
X1580Y-220D01*
D02*
G37*
G36*
X982Y-253D02*
X981Y-252D01*
X981Y-251D01*
X980Y-250D01*
X979Y-249D01*
X978Y-249D01*
X976Y-248D01*
X974Y-248D01*
X972Y-248D01*
X966Y-248D01*
Y-228D01*
X969Y-228D01*
X974Y-227D01*
X976Y-227D01*
X978Y-226D01*
X979Y-226D01*
X980Y-225D01*
X981Y-224D01*
X981Y-224D01*
X982Y-223D01*
Y-253D01*
D02*
G37*
G36*
X1252Y-254D02*
X1251Y-252D01*
X1251Y-250D01*
X1250Y-248D01*
X1248Y-247D01*
X1247Y-246D01*
X1244Y-245D01*
X1242Y-244D01*
X1239Y-244D01*
X1235Y-244D01*
X1231Y-244D01*
Y-224D01*
X1235Y-224D01*
X1242Y-223D01*
X1244Y-222D01*
X1246Y-222D01*
X1248Y-221D01*
X1250Y-220D01*
X1251Y-219D01*
X1251Y-217D01*
X1251Y-216D01*
X1252Y-254D01*
D02*
G37*
G36*
X1021Y-219D02*
X1021Y-221D01*
X1022Y-223D01*
X1024Y-224D01*
X1026Y-225D01*
X1028Y-226D01*
X1030Y-227D01*
X1033Y-227D01*
X1037Y-227D01*
X1041Y-228D01*
Y-248D01*
X1037Y-248D01*
X1033Y-248D01*
X1030Y-248D01*
X1028Y-249D01*
X1026Y-250D01*
X1024Y-251D01*
X1022Y-252D01*
X1021Y-254D01*
X1021Y-256D01*
X1021Y-258D01*
Y-218D01*
X1021Y-219D01*
D02*
G37*
G36*
X158Y-278D02*
X157Y-279D01*
X156Y-281D01*
X155Y-282D01*
X154Y-283D01*
X154Y-284D01*
X153Y-285D01*
X153Y-287D01*
X153Y-288D01*
X153Y-289D01*
X153Y-290D01*
X139Y-276D01*
X140Y-276D01*
X141Y-276D01*
X142Y-276D01*
X144Y-276D01*
X145Y-275D01*
X146Y-275D01*
X147Y-274D01*
X148Y-273D01*
X150Y-272D01*
X151Y-271D01*
X158Y-278D01*
D02*
G37*
G36*
X1182Y-277D02*
X1182Y-285D01*
X1182Y-286D01*
X1183Y-286D01*
X1183Y-287D01*
X1183Y-287D01*
X1160D01*
X1160Y-287D01*
X1160Y-286D01*
X1161Y-286D01*
X1161Y-285D01*
X1161Y-284D01*
X1161Y-282D01*
X1162Y-279D01*
X1162Y-275D01*
X1182D01*
X1182Y-277D01*
D02*
G37*
G36*
X329Y-314D02*
X328Y-314D01*
X327Y-314D01*
X326Y-314D01*
X324Y-314D01*
X323Y-315D01*
X322Y-315D01*
X321Y-316D01*
X320Y-317D01*
X318Y-318D01*
X317Y-319D01*
X310Y-312D01*
X311Y-311D01*
X312Y-309D01*
X313Y-308D01*
X314Y-307D01*
X314Y-306D01*
X315Y-305D01*
X315Y-303D01*
X315Y-302D01*
X315Y-301D01*
X315Y-300D01*
X329Y-314D01*
D02*
G37*
G36*
X279D02*
X278Y-314D01*
X277Y-314D01*
X276Y-314D01*
X274Y-314D01*
X273Y-315D01*
X272Y-315D01*
X271Y-316D01*
X270Y-317D01*
X268Y-318D01*
X267Y-319D01*
X260Y-312D01*
X261Y-311D01*
X262Y-309D01*
X263Y-308D01*
X264Y-307D01*
X264Y-306D01*
X265Y-305D01*
X265Y-303D01*
X265Y-302D01*
X265Y-301D01*
X265Y-300D01*
X279Y-314D01*
D02*
G37*
G36*
X316Y-320D02*
X315Y-321D01*
X314Y-322D01*
X314Y-323D01*
X313Y-323D01*
X313Y-324D01*
X313Y-325D01*
X313Y-325D01*
X313Y-326D01*
X313Y-326D01*
X302Y-318D01*
X302Y-318D01*
X303Y-318D01*
X303Y-318D01*
X304Y-317D01*
X304Y-317D01*
X305Y-317D01*
X306Y-315D01*
X307Y-315D01*
X308Y-314D01*
X316Y-320D01*
D02*
G37*
G36*
X264Y-322D02*
X263Y-323D01*
X262Y-325D01*
X261Y-325D01*
X261Y-326D01*
X260Y-327D01*
X260Y-327D01*
X260Y-328D01*
X260Y-328D01*
X260Y-329D01*
X250Y-319D01*
X251Y-319D01*
X251Y-319D01*
X252Y-319D01*
X252Y-319D01*
X253Y-318D01*
X254Y-318D01*
X254Y-317D01*
X255Y-317D01*
X257Y-315D01*
X264Y-322D01*
D02*
G37*
G36*
X517Y-345D02*
X517Y-344D01*
X517Y-344D01*
X516Y-343D01*
X515Y-342D01*
X515Y-342D01*
X513Y-341D01*
X512Y-341D01*
X511Y-341D01*
X509Y-340D01*
X507Y-340D01*
Y-330D01*
X509Y-330D01*
X512Y-330D01*
X513Y-330D01*
X515Y-329D01*
X515Y-329D01*
X516Y-329D01*
X517Y-328D01*
X517Y-328D01*
X517Y-327D01*
X517Y-345D01*
D02*
G37*
G36*
X813D02*
X809Y-345D01*
X806Y-346D01*
X803Y-346D01*
X800Y-347D01*
X798Y-348D01*
X796Y-349D01*
X795Y-350D01*
X794Y-352D01*
X793Y-353D01*
X793Y-355D01*
X793Y-327D01*
X793Y-327D01*
X794Y-326D01*
X795Y-326D01*
X796Y-326D01*
X800Y-326D01*
X809Y-325D01*
X813Y-325D01*
Y-345D01*
D02*
G37*
G36*
X557Y-327D02*
X557Y-328D01*
X558Y-328D01*
X559Y-328D01*
X561Y-329D01*
X563Y-329D01*
X567Y-329D01*
X573Y-329D01*
Y-349D01*
X570Y-349D01*
X565Y-350D01*
X562Y-350D01*
X561Y-351D01*
X559Y-351D01*
X558Y-352D01*
X557Y-353D01*
X557Y-354D01*
X557Y-355D01*
X557Y-327D01*
X557Y-327D01*
D02*
G37*
G36*
X753Y-357D02*
X753Y-355D01*
X752Y-354D01*
X751Y-353D01*
X750Y-352D01*
X748Y-351D01*
X746Y-350D01*
X743Y-350D01*
X740Y-350D01*
X737Y-349D01*
X733Y-349D01*
Y-329D01*
X737Y-329D01*
X750Y-328D01*
X751Y-328D01*
X752Y-328D01*
X753Y-327D01*
X753Y-327D01*
Y-357D01*
D02*
G37*
%LPC*%
G36*
X798Y-174D02*
X748D01*
Y-214D01*
X798D01*
Y-174D01*
D02*
G37*
G36*
X893Y-209D02*
Y-235D01*
X919D01*
X919Y-232D01*
X916Y-224D01*
X911Y-217D01*
X904Y-212D01*
X896Y-209D01*
X893Y-209D01*
D02*
G37*
G36*
X883D02*
X880Y-209D01*
X872Y-212D01*
X865Y-217D01*
X860Y-224D01*
X857Y-232D01*
X857Y-235D01*
X883D01*
Y-209D01*
D02*
G37*
G36*
X501Y-246D02*
X478D01*
Y-270D01*
X501D01*
Y-246D01*
D02*
G37*
G36*
X468D02*
X445D01*
Y-270D01*
X468D01*
Y-246D01*
D02*
G37*
G36*
X919Y-245D02*
X893D01*
Y-271D01*
X896Y-271D01*
X904Y-268D01*
X911Y-263D01*
X916Y-256D01*
X919Y-248D01*
X919Y-245D01*
D02*
G37*
G36*
X883D02*
X857D01*
X857Y-248D01*
X860Y-256D01*
X865Y-263D01*
X872Y-268D01*
X880Y-271D01*
X883Y-271D01*
Y-245D01*
D02*
G37*
G36*
X501Y-280D02*
X478D01*
Y-305D01*
X501D01*
Y-280D01*
D02*
G37*
G36*
X468D02*
X445D01*
Y-305D01*
X468D01*
Y-280D01*
D02*
G37*
%LPD*%
G36*
X843Y240D02*
X843Y241D01*
X843Y242D01*
X842Y243D01*
X842Y243D01*
X841Y244D01*
X839Y244D01*
X838Y245D01*
X837Y245D01*
X835Y245D01*
X833Y245D01*
Y255D01*
X835Y255D01*
X837Y255D01*
X838Y255D01*
X839Y256D01*
X841Y256D01*
X842Y257D01*
X842Y257D01*
X843Y258D01*
X843Y259D01*
X843Y260D01*
Y240D01*
D02*
G37*
G36*
X813Y259D02*
X814Y258D01*
X814Y257D01*
X815Y257D01*
X816Y256D01*
X817Y256D01*
X818Y255D01*
X820Y255D01*
X822Y255D01*
X823Y255D01*
Y245D01*
X822Y245D01*
X820Y245D01*
X818Y245D01*
X817Y244D01*
X816Y244D01*
X815Y243D01*
X814Y243D01*
X814Y242D01*
X813Y241D01*
X813Y240D01*
Y260D01*
X813Y259D01*
D02*
G37*
G36*
X1389Y311D02*
X1390Y311D01*
X1390Y310D01*
X1391Y309D01*
X1392Y309D01*
X1393Y308D01*
X1394Y308D01*
X1396Y308D01*
X1397Y307D01*
X1399Y307D01*
Y297D01*
X1397Y297D01*
X1396Y297D01*
X1394Y297D01*
X1393Y297D01*
X1392Y296D01*
X1391Y296D01*
X1390Y295D01*
X1390Y294D01*
X1389Y293D01*
X1389Y292D01*
Y312D01*
X1389Y311D01*
D02*
G37*
G36*
X1448Y299D02*
X1451Y296D01*
X1453Y295D01*
X1454Y294D01*
X1456Y294D01*
X1457Y293D01*
X1458Y293D01*
X1459Y294D01*
X1460Y294D01*
X1446Y280D01*
X1446Y281D01*
X1447Y282D01*
X1447Y283D01*
X1446Y284D01*
X1446Y286D01*
X1445Y287D01*
X1444Y289D01*
X1442Y290D01*
X1439Y294D01*
X1446Y301D01*
X1448Y299D01*
D02*
G37*
G36*
X1576Y235D02*
X1572Y235D01*
X1564Y234D01*
X1561Y234D01*
X1558Y233D01*
X1555Y232D01*
X1552Y231D01*
X1550Y230D01*
X1548Y229D01*
X1547Y228D01*
X1539Y234D01*
X1541Y236D01*
X1542Y238D01*
X1543Y240D01*
X1544Y243D01*
X1545Y245D01*
X1545Y248D01*
X1545Y252D01*
X1546Y255D01*
X1546Y263D01*
X1576Y235D01*
D02*
G37*
G36*
X1324Y19D02*
X1325Y18D01*
X1326Y17D01*
X1327Y17D01*
X1328Y16D01*
X1329Y16D01*
X1331Y15D01*
X1333Y15D01*
X1336Y15D01*
X1339Y15D01*
Y5D01*
X1336Y5D01*
X1331Y5D01*
X1329Y4D01*
X1328Y4D01*
X1327Y3D01*
X1326Y3D01*
X1325Y2D01*
X1324Y1D01*
X1324Y0D01*
Y20D01*
X1324Y19D01*
D02*
G37*
G36*
X1449Y17D02*
X1448Y16D01*
X1447Y14D01*
X1446Y13D01*
X1446Y11D01*
X1446Y10D01*
X1446Y9D01*
X1446Y7D01*
X1447Y6D01*
X1448Y4D01*
X1449Y3D01*
X1440Y-2D01*
X1439Y-1D01*
X1437Y0D01*
X1435Y2D01*
X1434Y2D01*
X1432Y3D01*
X1430Y4D01*
X1429Y4D01*
X1427Y5D01*
X1425Y5D01*
X1423Y5D01*
Y15D01*
X1425Y15D01*
X1427Y15D01*
X1429Y16D01*
X1430Y16D01*
X1432Y17D01*
X1434Y18D01*
X1435Y18D01*
X1437Y20D01*
X1439Y21D01*
X1440Y22D01*
X1449Y17D01*
D02*
G37*
G36*
X1512Y-55D02*
X1512Y-54D01*
X1512Y-53D01*
X1512Y-52D01*
X1511Y-52D01*
X1510Y-51D01*
X1509Y-51D01*
X1507Y-50D01*
X1506Y-50D01*
X1504Y-50D01*
X1502Y-50D01*
X1503Y-40D01*
X1505Y-40D01*
X1507Y-40D01*
X1509Y-40D01*
X1511Y-39D01*
X1512Y-39D01*
X1513Y-38D01*
X1514Y-38D01*
X1514Y-37D01*
X1515Y-36D01*
X1515Y-35D01*
X1512Y-55D01*
D02*
G37*
G36*
X1283Y-52D02*
X1282Y-52D01*
X1281Y-52D01*
X1280Y-53D01*
X1279Y-54D01*
X1279Y-55D01*
X1278Y-57D01*
X1278Y-59D01*
X1277Y-62D01*
X1277Y-65D01*
X1277Y-68D01*
X1257Y-66D01*
X1257Y-46D01*
X1283Y-52D01*
D02*
G37*
G36*
X-47Y-208D02*
X-47Y-208D01*
X-48Y-209D01*
X-48Y-210D01*
X-48Y-210D01*
X-48Y-211D01*
X-48Y-212D01*
X-48Y-213D01*
X-48Y-215D01*
X-47Y-216D01*
X-47Y-217D01*
X-46Y-217D01*
X-45Y-218D01*
X-45Y-218D01*
X-44Y-218D01*
X-64D01*
X-63Y-218D01*
X-62Y-218D01*
X-61Y-217D01*
X-60Y-217D01*
X-60Y-216D01*
X-59Y-215D01*
X-59Y-213D01*
X-59Y-212D01*
X-59Y-211D01*
X-59Y-210D01*
X-59Y-210D01*
X-60Y-209D01*
X-60Y-208D01*
X-60Y-208D01*
X-60Y-208D01*
X-47D01*
X-47Y-208D01*
D02*
G37*
G36*
X1460Y-294D02*
X1459Y-294D01*
X1458Y-294D01*
X1457D01*
X1456Y-294D01*
X1454Y-294D01*
X1453Y-295D01*
X1451Y-296D01*
X1450Y-298D01*
X1446Y-301D01*
X1439Y-294D01*
X1441Y-292D01*
X1444Y-289D01*
X1445Y-287D01*
X1446Y-286D01*
X1446Y-284D01*
X1446Y-283D01*
Y-282D01*
X1446Y-281D01*
X1446Y-280D01*
X1460Y-294D01*
D02*
G37*
G36*
X1389Y-298D02*
X1390Y-299D01*
X1390Y-300D01*
X1391Y-301D01*
X1392Y-301D01*
X1393Y-302D01*
X1394Y-302D01*
X1396Y-302D01*
X1397Y-302D01*
X1399Y-302D01*
Y-312D01*
X1397Y-312D01*
X1396Y-313D01*
X1394Y-313D01*
X1393Y-313D01*
X1392Y-314D01*
X1391Y-314D01*
X1390Y-315D01*
X1390Y-316D01*
X1389Y-316D01*
X1389Y-317D01*
Y-297D01*
X1389Y-298D01*
D02*
G37*
D12*
X686Y80D02*
X720Y115D01*
X519Y134D02*
X622D01*
X199Y-23D02*
X252D01*
X468Y-76D02*
X528D01*
X184Y-80D02*
Y-24D01*
X533Y-335D02*
X537Y-339D01*
X442Y-335D02*
X533D01*
X429Y-322D02*
Y-251D01*
X400Y-222D02*
X429Y-251D01*
X360Y-222D02*
X400D01*
X337Y-245D02*
X360Y-222D01*
X429Y-322D02*
X442Y-335D01*
X234Y-245D02*
X284D01*
X313Y-192D02*
X361Y-143D01*
X237Y-192D02*
X313D01*
X134Y-295D02*
X237Y-192D01*
X303Y-328D02*
Y-326D01*
X334Y-295D01*
X250Y-329D02*
X284Y-295D01*
X390Y-157D02*
Y-76D01*
Y-157D02*
X430Y-197D01*
X409Y-143D02*
X440Y-174D01*
X409Y-143D02*
Y-76D01*
X440Y-174D02*
X491D01*
X510Y-155D01*
X430Y-197D02*
X459D01*
X429Y-136D02*
X450Y-157D01*
X429Y-136D02*
Y-76D01*
X449Y-116D02*
Y-77D01*
Y-116D02*
X465Y-132D01*
Y-135D02*
Y-132D01*
X450Y-157D02*
X477D01*
X494Y-140D01*
X1090Y-140D02*
Y-40D01*
X334Y-245D02*
X337D01*
X147Y-4D02*
X198D01*
X449Y-76D02*
X449Y-77D01*
X468Y-74D02*
Y-27D01*
X198Y-4D02*
X199Y-4D01*
X472Y-23D02*
X519D01*
X468Y-27D02*
X472Y-23D01*
X124Y-27D02*
X147Y-4D01*
X519Y-23D02*
X521D01*
X1090Y-140D02*
Y-140D01*
X950Y-75D02*
Y90D01*
Y-75D02*
X961Y-85D01*
Y-140D02*
Y-85D01*
X1194Y38D02*
X1228Y72D01*
X1194Y-164D02*
Y38D01*
Y-164D02*
X1214Y-184D01*
X1210Y25D02*
X1245Y60D01*
X1210Y-153D02*
Y25D01*
Y-153D02*
X1222Y-165D01*
X1214Y-184D02*
X1311D01*
X1293Y60D02*
X1294D01*
X1245D02*
X1293D01*
X1222Y-165D02*
X1444D01*
X1228Y181D02*
X1275Y228D01*
X1228Y72D02*
Y181D01*
X424Y134D02*
X519D01*
X252Y244D02*
Y319D01*
Y193D02*
Y244D01*
X468Y-76D02*
Y-74D01*
X817Y115D02*
X830Y127D01*
X720Y115D02*
X817D01*
X820Y-54D02*
X830Y-64D01*
X751Y-54D02*
X820D01*
X751D02*
Y-13D01*
X650Y-54D02*
X650Y-54D01*
X751D01*
X650Y-54D02*
Y15D01*
X665Y60D02*
X686Y80D01*
X625Y40D02*
X650Y15D01*
X473Y-212D02*
X488Y-198D01*
X459Y-197D02*
X473Y-212D01*
Y-212D02*
Y-212D01*
Y-214D02*
Y-212D01*
X527Y-199D02*
X537Y-189D01*
X488Y-198D02*
X527D01*
X-54Y-238D02*
Y-201D01*
X-57Y195D02*
X-22D01*
X-72Y180D02*
X-57Y195D01*
X-72Y94D02*
Y180D01*
X-116Y50D02*
X-72Y94D01*
X252Y-135D02*
Y-77D01*
X252Y-76D02*
X252Y-77D01*
X882Y-155D02*
X914Y-187D01*
X510Y-155D02*
X882D01*
X-83Y-1D02*
X-50D01*
X-84Y-1D02*
X-83Y-1D01*
X-117Y50D02*
X-116D01*
X-81Y-37D02*
X-49D01*
X-101Y-17D02*
X-81Y-37D01*
X-117Y-17D02*
X-101D01*
X-53Y37D02*
X-49Y33D01*
X-58D02*
X-49D01*
X-80Y37D02*
X-53D01*
X-100Y17D02*
X-80Y37D01*
X-117Y17D02*
X-100D01*
X45Y-37D02*
X85D01*
X104Y67D02*
X115Y55D01*
X199D01*
X45Y37D02*
X47Y36D01*
X198D01*
X199Y36D01*
X-50Y-1D02*
X-49Y-0D01*
X-117Y17D02*
X-115Y19D01*
X-117Y50D02*
X-115Y52D01*
X-170Y17D02*
X-117Y-17D01*
X914Y-187D02*
X1043D01*
X258Y-17D02*
X265D01*
X252Y-23D02*
X258Y-17D01*
X528Y-76D02*
X532Y-80D01*
X468Y-27D02*
Y-23D01*
X452Y-7D02*
X468Y-23D01*
X125Y7D02*
X128D01*
X137Y16D01*
X199D01*
X680Y310D02*
X725D01*
X660Y330D02*
X680Y310D01*
X375Y330D02*
X660D01*
X494Y-140D02*
X950D01*
X585Y40D02*
X625D01*
X590Y60D02*
X665D01*
X650Y315D02*
X712Y252D01*
X390Y315D02*
X650D01*
X570Y55D02*
X585Y40D01*
X521Y55D02*
X570D01*
X575Y75D02*
X590Y60D01*
X521Y75D02*
X575D01*
X370Y295D02*
X390Y315D01*
X970Y110D02*
X1106D01*
X950Y90D02*
X970Y110D01*
X1435Y10D02*
X1468Y43D01*
X1435Y10D02*
X1490Y-45D01*
X1294Y10D02*
X1435D01*
X521Y95D02*
X581D01*
X588Y88D01*
X603D01*
X350Y246D02*
Y305D01*
X375Y330D01*
X370Y246D02*
Y295D01*
X792Y310D02*
X865D01*
X792Y250D02*
X865D01*
X1565Y-45D02*
X1570Y-50D01*
X1468Y43D02*
Y156D01*
X1575Y263D01*
X1555Y-195D02*
Y-150D01*
Y-195D02*
X1575Y-215D01*
Y-265D02*
Y-215D01*
X1360Y-307D02*
X1433D01*
X1475Y-265D01*
X1043Y-187D02*
X1090Y-140D01*
X1311Y-184D02*
X1360Y-233D01*
X1444Y-165D02*
X1459Y-150D01*
X1555D01*
X1490Y-45D02*
X1565D01*
X1438Y302D02*
X1475Y265D01*
X1360Y302D02*
X1438D01*
X1275Y228D02*
X1360D01*
D38*
X334Y-295D02*
D03*
X284D02*
D03*
X234D02*
D03*
X184D02*
D03*
X134D02*
D03*
X234Y-245D02*
D03*
X284D02*
D03*
X334D02*
D03*
X134D02*
D03*
X84Y-270D02*
D03*
X384D02*
D03*
D39*
X931Y250D02*
D03*
X865D02*
D03*
X931Y310D02*
D03*
X865D02*
D03*
X14Y-238D02*
D03*
X-53D02*
D03*
X45Y195D02*
D03*
X-22D02*
D03*
X-22Y128D02*
D03*
X45D02*
D03*
X303Y322D02*
D03*
X237D02*
D03*
X598Y-86D02*
D03*
X532D02*
D03*
X725Y310D02*
D03*
X792D02*
D03*
X725Y250D02*
D03*
X792D02*
D03*
X1323Y-113D02*
D03*
X1257D02*
D03*
D40*
X519Y-23D02*
D03*
Y-4D02*
D03*
Y16D02*
D03*
Y36D02*
D03*
Y55D02*
D03*
Y75D02*
D03*
Y95D02*
D03*
Y115D02*
D03*
Y134D02*
D03*
Y154D02*
D03*
Y174D02*
D03*
Y193D02*
D03*
X201D02*
D03*
Y174D02*
D03*
Y154D02*
D03*
Y134D02*
D03*
Y115D02*
D03*
Y95D02*
D03*
Y75D02*
D03*
Y55D02*
D03*
Y36D02*
D03*
Y16D02*
D03*
Y-4D02*
D03*
Y-23D02*
D03*
D41*
X468Y244D02*
D03*
X449D02*
D03*
X429D02*
D03*
X409D02*
D03*
X390D02*
D03*
X370D02*
D03*
X350D02*
D03*
X330D02*
D03*
X311D02*
D03*
X291D02*
D03*
X271D02*
D03*
X252D02*
D03*
Y-74D02*
D03*
X271D02*
D03*
X291D02*
D03*
X311D02*
D03*
X330D02*
D03*
X350D02*
D03*
X370D02*
D03*
X390D02*
D03*
X409D02*
D03*
X429D02*
D03*
X449D02*
D03*
X468D02*
D03*
D42*
X1097Y-309D02*
D03*
X1171D02*
D03*
X1134Y-221D02*
D03*
D43*
X1293Y-40D02*
D03*
Y10D02*
D03*
Y60D02*
D03*
Y110D02*
D03*
X1107Y-40D02*
D03*
Y10D02*
D03*
Y60D02*
D03*
Y110D02*
D03*
D44*
X751Y73D02*
D03*
X689D02*
D03*
Y-13D02*
D03*
X751D02*
D03*
D45*
X135Y-149D02*
D03*
Y-83D02*
D03*
X1271Y-304D02*
D03*
Y-238D02*
D03*
X1001Y-305D02*
D03*
Y-239D02*
D03*
X615Y152D02*
D03*
Y218D02*
D03*
X473Y-209D02*
D03*
Y-275D02*
D03*
X185Y-149D02*
D03*
Y-83D02*
D03*
X830Y60D02*
D03*
Y127D02*
D03*
Y-64D02*
D03*
Y2D02*
D03*
X1015Y-8D02*
D03*
Y58D02*
D03*
D46*
X-49Y37D02*
D03*
Y-0D02*
D03*
Y-37D02*
D03*
X45D02*
D03*
Y-0D02*
D03*
Y37D02*
D03*
D47*
X537Y-342D02*
D03*
Y-194D02*
D03*
X773D02*
D03*
Y-342D02*
D03*
D48*
X1360Y302D02*
D03*
Y228D02*
D03*
Y-233D02*
D03*
Y-307D02*
D03*
X1275Y302D02*
D03*
Y228D02*
D03*
D49*
X1267Y-68D02*
Y-40D01*
X1249Y-113D02*
Y-86D01*
X966Y-238D02*
X1062D01*
X1172Y-311D02*
Y-275D01*
X573Y-339D02*
X774D01*
X185Y-84D02*
X188D01*
X140D02*
X185D01*
X1147Y-234D02*
X1271D01*
X1134Y-220D02*
X1134Y-221D01*
X869Y-335D02*
X966Y-238D01*
X774Y-335D02*
X869D01*
X1020Y-4D02*
X1043D01*
X1015Y-8D02*
X1020Y-4D01*
X1043D02*
X1057Y10D01*
X1174D02*
Y46D01*
Y-92D02*
Y10D01*
Y46D02*
X1174Y46D01*
X1134Y-132D02*
X1174Y-92D01*
X1134Y-220D02*
Y-132D01*
X1107Y10D02*
X1174D01*
X1057D02*
X1107D01*
X1174Y46D02*
Y136D01*
X1160Y150D02*
X1174Y136D01*
X1090Y-265D02*
X1162D01*
X1062Y-238D02*
X1090Y-265D01*
X1162D02*
X1172Y-275D01*
X537Y-339D02*
X573D01*
X-170Y84D02*
X-117D01*
X45Y98D02*
Y128D01*
X8Y61D02*
X45Y98D01*
X8Y-0D02*
Y61D01*
X-203Y67D02*
X-187Y83D01*
X-203Y-67D02*
Y67D01*
Y-67D02*
X-187Y-84D01*
X-170D01*
X-187Y83D02*
X-171D01*
X8Y-69D02*
Y-0D01*
X-7Y-84D02*
X8Y-69D01*
X-117Y-84D02*
X-7D01*
X8Y-0D02*
X45D01*
X-170Y-84D02*
X-117D01*
X-171Y83D02*
X-170Y84D01*
X945Y150D02*
X1160D01*
X915D02*
X945D01*
X1249Y-86D02*
X1267Y-68D01*
D50*
X360Y85D02*
D03*
D51*
X-288Y170D02*
D03*
Y-170D02*
D03*
D52*
X-155D02*
D03*
Y170D02*
D03*
D53*
X-170Y117D02*
D03*
Y84D02*
D03*
Y50D02*
D03*
Y17D02*
D03*
Y-17D02*
D03*
Y-50D02*
D03*
Y-84D02*
D03*
Y-117D02*
D03*
X-117D02*
D03*
Y-84D02*
D03*
Y-50D02*
D03*
Y-17D02*
D03*
Y17D02*
D03*
Y50D02*
D03*
Y84D02*
D03*
Y117D02*
D03*
D54*
X1475Y265D02*
D03*
Y-265D02*
D03*
D55*
X1575Y265D02*
D03*
Y-265D02*
D03*
D56*
X1555Y150D02*
D03*
Y50D02*
D03*
Y-50D02*
D03*
Y-150D02*
D03*
D57*
X888Y-240D02*
D03*
X1090Y-140D02*
D03*
X961D02*
D03*
D58*
X303Y-328D02*
D03*
X250Y-329D02*
D03*
X790Y-271D02*
D03*
X650Y-270D02*
D03*
X74Y-190D02*
D03*
Y-90D02*
D03*
X224D02*
D03*
X-95Y240D02*
D03*
X895Y120D02*
D03*
X680Y123D02*
D03*
X147Y202D02*
D03*
Y97D02*
D03*
X84Y98D02*
D03*
X304Y363D02*
D03*
X-54Y-201D02*
D03*
X89Y203D02*
D03*
X45Y240D02*
D03*
X-22Y85D02*
D03*
X-84Y-1D02*
D03*
X-17D02*
D03*
X85Y-37D02*
D03*
X104Y67D02*
D03*
X125Y7D02*
D03*
D59*
X361Y-143D02*
D03*
X465Y-135D02*
D03*
X573Y-339D02*
D03*
X1120Y-80D02*
D03*
X252Y-135D02*
D03*
X14Y-280D02*
D03*
X1062Y-238D02*
D03*
X1049Y-282D02*
D03*
X945Y150D02*
D03*
X430Y35D02*
D03*
X1195Y200D02*
D03*
X1290Y165D02*
D03*
X630Y105D02*
D03*
X895Y-90D02*
D03*
X603Y88D02*
D03*
X650Y-100D02*
D03*
X1010Y-70D02*
D03*
Y-140D02*
D03*
X915Y150D02*
D03*
X100Y310D02*
D03*
X550Y260D02*
D03*
X1386Y79D02*
D03*
X14Y-192D02*
D03*
X1387Y-14D02*
D03*
X1415Y-358D02*
D03*
X858Y200D02*
D03*
X800D02*
D03*
X681D02*
D03*
X210Y260D02*
D03*
X585Y1D02*
D03*
X895Y-5D02*
D03*
X975Y60D02*
D03*
X895Y50D02*
D03*
X790Y-100D02*
D03*
X224Y-362D02*
D03*
X124D02*
D03*
X372Y-342D02*
D03*
X985Y200D02*
D03*
X1110D02*
D03*
X1204Y110D02*
D03*
X1387Y-110D02*
D03*
X1076Y-188D02*
D03*
X1501Y-183D02*
D03*
X1220Y-264D02*
D03*
X1183Y-362D02*
D03*
X953Y-306D02*
D03*
X1267Y-68D02*
D03*
X1413Y-262D02*
D03*
X1196Y297D02*
D03*
M02*
