G04*
G04 #@! TF.GenerationSoftware,Altium Limited,Altium Designer,19.1.8 (144)*
G04*
G04 Layer_Color=65535*
%FSLAX23Y23*%
%MOIN*%
G70*
G01*
G75*
%ADD10C,0.010*%
%ADD11C,0.024*%
%ADD12C,0.010*%
%ADD13C,0.005*%
%ADD14C,0.008*%
%ADD15C,0.004*%
%ADD16C,0.008*%
%ADD17C,0.006*%
%ADD18C,0.008*%
%ADD19C,0.007*%
%ADD20C,0.006*%
G36*
X417Y-221D02*
Y-286D01*
X363Y-251D01*
X417Y-221D01*
D02*
G37*
D10*
X1069Y-309D02*
G03*
X1069Y-309I-5J0D01*
G01*
X524Y-51D02*
G03*
X524Y-51I-5J0D01*
G01*
X1112Y145D02*
G03*
X1112Y145I-5J0D01*
G01*
X1184Y115D02*
G03*
X1184Y115I-5J0D01*
G01*
X-44Y72D02*
G03*
X-44Y72I-5J0D01*
G01*
D11*
X441Y16D02*
G03*
X441Y16I-12J0D01*
G01*
D12*
X724Y-268D02*
G03*
X724Y-268I-69J0D01*
G01*
X596Y-168D02*
X714D01*
X555Y-315D02*
Y-221D01*
X755Y-315D02*
Y-221D01*
X596Y-368D02*
X714D01*
X1427Y-200D02*
X1683D01*
Y200D01*
X1427D02*
X1683D01*
X1427Y-200D02*
Y200D01*
X1635Y-175D02*
X1683D01*
X1625Y-165D02*
X1635Y-175D01*
X1625Y-165D02*
Y-135D01*
X1635Y-125D01*
X1683D01*
X1635Y-25D02*
X1683D01*
X1625Y-35D02*
X1635Y-25D01*
X1625Y-65D02*
Y-35D01*
Y-65D02*
X1635Y-75D01*
X1683D01*
X1635Y75D02*
X1683D01*
X1625Y65D02*
X1635Y75D01*
X1625Y35D02*
Y65D01*
Y35D02*
X1635Y25D01*
X1683D01*
X1635Y175D02*
X1683D01*
X1625Y165D02*
X1635Y175D01*
X1625Y135D02*
Y165D01*
Y135D02*
X1635Y125D01*
X1683D01*
D13*
X889Y-215D02*
G03*
X889Y-215I-31J0D01*
G01*
X1121Y-140D02*
G03*
X1121Y-140I-31J0D01*
G01*
X981D02*
G03*
X981Y-140I-31J0D01*
G01*
X1106Y-345D02*
Y-370D01*
X1111Y-375D01*
X1121D01*
X1126Y-370D01*
Y-345D01*
X1136Y-350D02*
X1141Y-345D01*
X1151D01*
X1156Y-350D01*
Y-355D01*
X1151Y-360D01*
X1146D01*
X1151D01*
X1156Y-365D01*
Y-370D01*
X1151Y-375D01*
X1141D01*
X1136Y-370D01*
X845Y374D02*
Y344D01*
X860D01*
X865Y349D01*
Y369D01*
X860Y374D01*
X845D01*
X895Y344D02*
X875D01*
X895Y364D01*
Y369D01*
X890Y374D01*
X880D01*
X875Y369D01*
X853Y215D02*
Y185D01*
X868D01*
X873Y190D01*
Y210D01*
X868Y215D01*
X853D01*
X883Y185D02*
X893D01*
X888D01*
Y215D01*
X883Y210D01*
X-17Y-85D02*
X3D01*
Y-90D01*
X-17Y-110D01*
Y-115D01*
X3D01*
X13D02*
X23D01*
X18D01*
Y-85D01*
X13Y-90D01*
X-138Y-253D02*
Y-223D01*
X-123D01*
X-118Y-228D01*
Y-238D01*
X-123Y-243D01*
X-138D01*
X-128D02*
X-118Y-253D01*
X-108Y-223D02*
X-88D01*
Y-228D01*
X-108Y-248D01*
Y-253D01*
X79Y182D02*
Y212D01*
X94D01*
X99Y207D01*
Y197D01*
X94Y192D01*
X79D01*
X89D02*
X99Y182D01*
X129Y212D02*
X119Y207D01*
X109Y197D01*
Y187D01*
X114Y182D01*
X124D01*
X129Y187D01*
Y192D01*
X124Y197D01*
X109D01*
X94Y139D02*
X89Y144D01*
X79D01*
X74Y139D01*
Y119D01*
X79Y114D01*
X89D01*
X94Y119D01*
X104Y114D02*
X114D01*
X109D01*
Y144D01*
X104Y139D01*
X129D02*
X134Y144D01*
X144D01*
X149Y139D01*
Y134D01*
X144Y129D01*
X139D01*
X144D01*
X149Y124D01*
Y119D01*
X144Y114D01*
X134D01*
X129Y119D01*
D14*
X1075Y-273D02*
Y-237D01*
X1106D01*
X1193Y-273D02*
Y-237D01*
X1162D02*
X1193D01*
X468Y-23D02*
Y193D01*
X252Y-23D02*
Y193D01*
Y-23D02*
X468D01*
X252Y193D02*
X468D01*
X1161Y-63D02*
X1239D01*
X1161Y133D02*
X1239D01*
Y-63D02*
Y133D01*
X1161Y-63D02*
Y133D01*
X-12Y61D02*
X8D01*
X-12Y-61D02*
X8D01*
X-12D02*
Y61D01*
X8Y-61D02*
Y61D01*
D15*
X898Y290D02*
Y330D01*
X962Y290D02*
Y330D01*
X898Y230D02*
Y270D01*
X962Y230D02*
Y270D01*
X769Y23D02*
Y35D01*
X671Y24D02*
Y36D01*
X115Y-116D02*
X155D01*
X1251Y-271D02*
X1291D01*
X981Y-272D02*
X1021D01*
X-20Y-258D02*
Y-217D01*
X11Y174D02*
Y216D01*
Y108D02*
Y148D01*
X270Y302D02*
Y342D01*
X595Y185D02*
X635D01*
X565Y-106D02*
Y-66D01*
X452Y-239D02*
X494D01*
X1330Y265D02*
X1390D01*
X1625Y215D02*
Y315D01*
X1425Y215D02*
X1625D01*
X1425D02*
Y315D01*
X1625D01*
X342Y-337D02*
Y-324D01*
X88Y-337D02*
X342D01*
X88Y-203D02*
X342D01*
Y-216D02*
Y-203D01*
X88Y-216D02*
Y-203D01*
Y-337D02*
Y-324D01*
X165Y-116D02*
X205D01*
X810Y94D02*
X850D01*
X810Y-31D02*
X850D01*
X995Y25D02*
X1035D01*
X758Y289D02*
Y331D01*
Y229D02*
Y271D01*
X1330Y-270D02*
X1390D01*
X1625Y-315D02*
Y-215D01*
X1425Y-315D02*
X1625D01*
X1425D02*
Y-215D01*
X1625D01*
X1245Y265D02*
X1305D01*
X1283Y-133D02*
Y-93D01*
D16*
X-357Y-176D02*
X-343D01*
X-357D02*
Y176D01*
X-343D01*
X-95Y-176D02*
Y176D01*
D17*
X-304Y363D02*
X-315D01*
X-309D01*
Y337D01*
X-315Y332D01*
X-320D01*
X-325Y337D01*
X-294Y363D02*
Y332D01*
X-273D01*
X-241Y358D02*
X-246Y363D01*
X-257D01*
X-262Y358D01*
Y337D01*
X-257Y332D01*
X-246D01*
X-241Y337D01*
X-210Y363D02*
X-220D01*
X-215D01*
Y337D01*
X-220Y332D01*
X-225D01*
X-231Y337D01*
X-199Y363D02*
Y332D01*
X-178D01*
X-147Y358D02*
X-152Y363D01*
X-162D01*
X-168Y358D01*
Y337D01*
X-162Y332D01*
X-152D01*
X-147Y337D01*
X-115Y363D02*
X-126D01*
X-120D01*
Y337D01*
X-126Y332D01*
X-131D01*
X-136Y337D01*
X-105Y363D02*
Y332D01*
X-84D01*
X-52Y358D02*
X-57Y363D01*
X-68D01*
X-73Y358D01*
Y337D01*
X-68Y332D01*
X-57D01*
X-52Y337D01*
X-21Y363D02*
X-31D01*
X-26D01*
Y337D01*
X-31Y332D01*
X-36D01*
X-42Y337D01*
X-10Y363D02*
Y332D01*
X11D01*
X42Y358D02*
X37Y363D01*
X27D01*
X21Y358D01*
Y337D01*
X27Y332D01*
X37D01*
X42Y337D01*
D18*
X1012Y268D02*
X1005Y275D01*
X992D01*
X985Y268D01*
Y242D01*
X992Y235D01*
X1005D01*
X1012Y242D01*
X1032Y235D02*
X1045D01*
X1052Y242D01*
Y255D01*
X1045Y262D01*
X1032D01*
X1025Y255D01*
Y242D01*
X1032Y235D01*
X1065D02*
Y262D01*
X1085D01*
X1092Y255D01*
Y235D01*
X1105D02*
Y242D01*
X1112D01*
Y235D01*
X1105D01*
X990Y295D02*
Y322D01*
X1003Y335D01*
X1017Y322D01*
Y295D01*
Y315D01*
X990D01*
X1057Y322D02*
X1037D01*
X1030Y315D01*
Y302D01*
X1037Y295D01*
X1057D01*
X1077Y328D02*
Y322D01*
X1070D01*
X1083D01*
X1077D01*
Y302D01*
X1083Y295D01*
X1103D02*
Y302D01*
X1110D01*
Y295D01*
X1103D01*
X-45Y-307D02*
X-53Y-299D01*
X-68D01*
X-75Y-307D01*
Y-314D01*
X-68Y-322D01*
X-53D01*
X-45Y-329D01*
Y-337D01*
X-53Y-344D01*
X-68D01*
X-75Y-337D01*
X-30Y-299D02*
Y-344D01*
X-15Y-329D01*
X-0Y-344D01*
Y-299D01*
X15D02*
Y-344D01*
X37D01*
X45Y-337D01*
Y-307D01*
X37Y-299D01*
X15D01*
X1440Y375D02*
X1467D01*
X1453D01*
Y335D01*
X1507Y375D02*
X1480D01*
Y335D01*
X1507D01*
X1480Y355D02*
X1493D01*
X1520Y335D02*
Y375D01*
X1540D01*
X1547Y368D01*
Y355D01*
X1540Y348D01*
X1520D01*
X1533D02*
X1547Y335D01*
X1560D02*
Y375D01*
X1573Y362D01*
X1587Y375D01*
Y335D01*
X1600D02*
Y342D01*
X1607D01*
Y335D01*
X1600D01*
X1435Y-333D02*
X1462D01*
X1448D01*
Y-373D01*
X1502Y-333D02*
X1475D01*
Y-373D01*
X1502D01*
X1475Y-353D02*
X1488D01*
X1515Y-373D02*
Y-333D01*
X1535D01*
X1542Y-340D01*
Y-353D01*
X1535Y-360D01*
X1515D01*
X1528D02*
X1542Y-373D01*
X1555D02*
Y-333D01*
X1568Y-346D01*
X1582Y-333D01*
Y-373D01*
X1595D02*
Y-366D01*
X1602D01*
Y-373D01*
X1595D01*
X1370Y-130D02*
Y-180D01*
Y-155D01*
X1403D01*
Y-130D01*
Y-180D01*
X1370Y-20D02*
Y-70D01*
X1403D01*
Y172D02*
X1395Y180D01*
X1378D01*
X1370Y172D01*
Y138D01*
X1378Y130D01*
X1395D01*
X1403Y138D01*
Y155D01*
X1387D01*
X1370Y55D02*
X1403D01*
X1139Y-160D02*
Y-120D01*
X1159D01*
X1166Y-127D01*
Y-140D01*
X1159Y-147D01*
X1139D01*
X1152D02*
X1166Y-160D01*
X1179Y-133D02*
X1206Y-160D01*
X1192Y-147D01*
X1206Y-133D01*
X1179Y-160D01*
X830Y-120D02*
X857D01*
X843D01*
Y-160D01*
X870Y-133D02*
X897Y-160D01*
X883Y-147D01*
X897Y-133D01*
X870Y-160D01*
X826Y-262D02*
X820Y-256D01*
X806D01*
X800Y-262D01*
Y-289D01*
X806Y-296D01*
X820D01*
X826Y-289D01*
Y-276D01*
X813D01*
X840Y-296D02*
Y-269D01*
X860D01*
X866Y-276D01*
Y-296D01*
X906Y-256D02*
Y-296D01*
X886D01*
X880Y-289D01*
Y-276D01*
X886Y-269D01*
X906D01*
D19*
X607Y-118D02*
Y-148D01*
X622D01*
X627Y-143D01*
Y-138D01*
X622Y-133D01*
X607D01*
X622D01*
X627Y-128D01*
Y-123D01*
X622Y-118D01*
X607D01*
X652D02*
X642D01*
X637Y-123D01*
Y-143D01*
X642Y-148D01*
X652D01*
X657Y-143D01*
Y-123D01*
X652Y-118D01*
X682D02*
X672D01*
X667Y-123D01*
Y-143D01*
X672Y-148D01*
X682D01*
X687Y-143D01*
Y-123D01*
X682Y-118D01*
X697D02*
X717D01*
X707D01*
Y-148D01*
D20*
X65Y-153D02*
X60Y-148D01*
X50D01*
X45Y-153D01*
Y-173D01*
X50Y-178D01*
X60D01*
X65Y-173D01*
X95Y-178D02*
X75D01*
X95Y-158D01*
Y-153D01*
X90Y-148D01*
X80D01*
X75Y-153D01*
X700Y-60D02*
Y-65D01*
X710Y-75D01*
X720Y-65D01*
Y-60D01*
X710Y-75D02*
Y-90D01*
X730D02*
X740D01*
X735D01*
Y-60D01*
X730Y-65D01*
X1259Y-348D02*
X1254Y-343D01*
X1244D01*
X1239Y-348D01*
Y-368D01*
X1244Y-373D01*
X1254D01*
X1259Y-368D01*
X1269Y-373D02*
X1279D01*
X1274D01*
Y-343D01*
X1269Y-348D01*
X1294Y-373D02*
X1304D01*
X1299D01*
Y-343D01*
X1294Y-348D01*
X1001D02*
X996Y-343D01*
X986D01*
X981Y-348D01*
Y-368D01*
X986Y-373D01*
X996D01*
X1001Y-368D01*
X1011Y-373D02*
X1021D01*
X1016D01*
Y-343D01*
X1011Y-348D01*
X600Y-26D02*
X595Y-21D01*
X585D01*
X580Y-26D01*
Y-46D01*
X585Y-51D01*
X595D01*
X600Y-46D01*
X610Y-26D02*
X615Y-21D01*
X625D01*
X630Y-26D01*
Y-31D01*
X625Y-36D01*
X620D01*
X625D01*
X630Y-41D01*
Y-46D01*
X625Y-51D01*
X615D01*
X610Y-46D01*
X365Y332D02*
X360Y337D01*
X350D01*
X345Y332D01*
Y312D01*
X350Y307D01*
X360D01*
X365Y312D01*
X390Y307D02*
Y337D01*
X375Y322D01*
X395D01*
X615Y285D02*
X610Y290D01*
X600D01*
X595Y285D01*
Y265D01*
X600Y260D01*
X610D01*
X615Y265D01*
X645Y290D02*
X625D01*
Y275D01*
X635Y280D01*
X640D01*
X645Y275D01*
Y265D01*
X640Y260D01*
X630D01*
X625Y265D01*
X244Y-153D02*
X239Y-148D01*
X229D01*
X224Y-153D01*
Y-173D01*
X229Y-178D01*
X239D01*
X244Y-173D01*
X274Y-148D02*
X264Y-153D01*
X254Y-163D01*
Y-173D01*
X259Y-178D01*
X269D01*
X274Y-173D01*
Y-168D01*
X269Y-163D01*
X254D01*
X950Y35D02*
X945Y40D01*
X935D01*
X930Y35D01*
Y15D01*
X935Y10D01*
X945D01*
X950Y15D01*
X960Y35D02*
X965Y40D01*
X975D01*
X980Y35D01*
Y30D01*
X975Y25D01*
X980Y20D01*
Y15D01*
X975Y10D01*
X965D01*
X960Y15D01*
Y20D01*
X965Y25D01*
X960Y30D01*
Y35D01*
X965Y25D02*
X975D01*
X890Y-21D02*
X885Y-16D01*
X875D01*
X870Y-21D01*
Y-41D01*
X875Y-46D01*
X885D01*
X890Y-41D01*
X900D02*
X905Y-46D01*
X915D01*
X920Y-41D01*
Y-21D01*
X915Y-16D01*
X905D01*
X900Y-21D01*
Y-26D01*
X905Y-31D01*
X920D01*
X890Y104D02*
X885Y109D01*
X875D01*
X870Y104D01*
Y84D01*
X875Y79D01*
X885D01*
X890Y84D01*
X900Y79D02*
X910D01*
X905D01*
Y109D01*
X900Y104D01*
X925D02*
X930Y109D01*
X940D01*
X945Y104D01*
Y84D01*
X940Y79D01*
X930D01*
X925Y84D01*
Y104D01*
X-223Y252D02*
X-233D01*
X-228D01*
Y227D01*
X-233Y222D01*
X-238D01*
X-243Y227D01*
X-213Y222D02*
X-203D01*
X-208D01*
Y252D01*
X-213Y247D01*
X735Y185D02*
Y215D01*
X750D01*
X755Y210D01*
Y200D01*
X750Y195D01*
X735D01*
X745D02*
X755Y185D01*
X765D02*
X775D01*
X770D01*
Y215D01*
X765Y210D01*
X735Y346D02*
Y376D01*
X750D01*
X755Y371D01*
Y361D01*
X750Y356D01*
X735D01*
X745D02*
X755Y346D01*
X785D02*
X765D01*
X785Y366D01*
Y371D01*
X780Y376D01*
X770D01*
X765Y371D01*
X447Y-342D02*
Y-312D01*
X462D01*
X467Y-317D01*
Y-327D01*
X462Y-332D01*
X447D01*
X457D02*
X467Y-342D01*
X477Y-317D02*
X482Y-312D01*
X492D01*
X497Y-317D01*
Y-322D01*
X492Y-327D01*
X487D01*
X492D01*
X497Y-332D01*
Y-337D01*
X492Y-342D01*
X482D01*
X477Y-337D01*
X150Y265D02*
Y240D01*
X155Y235D01*
X165D01*
X170Y240D01*
Y265D01*
X180Y235D02*
X190D01*
X185D01*
Y265D01*
X180Y260D01*
X1342Y343D02*
Y373D01*
X1357D01*
X1362Y368D01*
Y358D01*
X1357Y353D01*
X1342D01*
X1352D02*
X1362Y343D01*
X1387D02*
Y373D01*
X1372Y358D01*
X1392D01*
X1277Y369D02*
X1272Y374D01*
X1262D01*
X1257Y369D01*
Y349D01*
X1262Y344D01*
X1272D01*
X1277Y349D01*
X1287Y374D02*
X1307D01*
Y369D01*
X1287Y349D01*
Y344D01*
X1335Y-375D02*
Y-345D01*
X1350D01*
X1355Y-350D01*
Y-360D01*
X1350Y-365D01*
X1335D01*
X1345D02*
X1355Y-375D01*
X1385Y-345D02*
X1365D01*
Y-360D01*
X1375Y-355D01*
X1380D01*
X1385Y-360D01*
Y-370D01*
X1380Y-375D01*
X1370D01*
X1365Y-370D01*
X1170Y186D02*
Y161D01*
X1175Y156D01*
X1185D01*
X1190Y161D01*
Y186D01*
X1220Y156D02*
X1200D01*
X1220Y176D01*
Y181D01*
X1215Y186D01*
X1205D01*
X1200Y181D01*
X1263Y-155D02*
X1258Y-150D01*
X1248D01*
X1243Y-155D01*
Y-175D01*
X1248Y-180D01*
X1258D01*
X1263Y-175D01*
X1273Y-180D02*
X1283D01*
X1278D01*
Y-150D01*
X1273Y-155D01*
X1318Y-180D02*
X1298D01*
X1318Y-160D01*
Y-155D01*
X1313Y-150D01*
X1303D01*
X1298Y-155D01*
M02*
