G04*
G04 #@! TF.GenerationSoftware,Altium Limited,Altium Designer,19.1.8 (144)*
G04*
G04 Layer_Physical_Order=2*
G04 Layer_Color=16711680*
%FSLAX23Y23*%
%MOIN*%
G70*
G01*
G75*
%ADD12C,0.010*%
%ADD38C,0.039*%
%ADD49C,0.020*%
%ADD51O,0.067X0.035*%
%ADD52O,0.094X0.035*%
%ADD53O,0.026X0.024*%
%ADD54R,0.059X0.059*%
%ADD55C,0.059*%
%ADD56O,0.087X0.071*%
%ADD57C,0.047*%
%ADD58C,0.020*%
%ADD59C,0.020*%
G36*
X1676Y-385D02*
X-347D01*
Y385D01*
X1676D01*
Y-385D01*
D02*
G37*
%LPC*%
G36*
X1510Y300D02*
X1440D01*
Y230D01*
X1510D01*
Y300D01*
D02*
G37*
G36*
X1575Y300D02*
X1566Y299D01*
X1558Y295D01*
X1550Y290D01*
X1545Y282D01*
X1541Y274D01*
X1540Y265D01*
X1541Y256D01*
X1545Y248D01*
X1550Y240D01*
X1558Y235D01*
X1566Y231D01*
X1575Y230D01*
X1584Y231D01*
X1592Y235D01*
X1600Y240D01*
X1605Y248D01*
X1609Y256D01*
X1610Y265D01*
X1609Y274D01*
X1605Y282D01*
X1600Y290D01*
X1592Y295D01*
X1584Y299D01*
X1575Y300D01*
D02*
G37*
G36*
X-126Y196D02*
X-150D01*
Y175D01*
X-101D01*
X-101Y177D01*
X-103Y183D01*
X-107Y189D01*
X-113Y193D01*
X-119Y195D01*
X-126Y196D01*
D02*
G37*
G36*
X-160D02*
X-185D01*
X-192Y195D01*
X-198Y193D01*
X-203Y189D01*
X-207Y183D01*
X-210Y177D01*
X-210Y175D01*
X-160D01*
Y196D01*
D02*
G37*
G36*
X1563Y194D02*
X1560D01*
Y155D01*
X1606D01*
X1605Y161D01*
X1601Y172D01*
X1594Y181D01*
X1585Y188D01*
X1574Y192D01*
X1563Y194D01*
D02*
G37*
G36*
X1550D02*
X1547D01*
X1536Y192D01*
X1525Y188D01*
X1516Y181D01*
X1509Y172D01*
X1505Y161D01*
X1504Y155D01*
X1550D01*
Y194D01*
D02*
G37*
G36*
X-273Y193D02*
X-304D01*
X-313Y192D01*
X-321Y187D01*
X-326Y179D01*
X-327Y170D01*
X-326Y161D01*
X-321Y154D01*
X-313Y149D01*
X-304Y147D01*
X-273D01*
X-264Y149D01*
X-256Y154D01*
X-251Y161D01*
X-250Y170D01*
X-251Y179D01*
X-256Y187D01*
X-264Y192D01*
X-273Y193D01*
D02*
G37*
G36*
X-101Y165D02*
X-150D01*
Y144D01*
X-126D01*
X-119Y145D01*
X-113Y148D01*
X-107Y152D01*
X-103Y157D01*
X-101Y164D01*
X-101Y165D01*
D02*
G37*
G36*
X-160D02*
X-210D01*
X-210Y164D01*
X-207Y157D01*
X-203Y152D01*
X-198Y148D01*
X-192Y145D01*
X-185Y144D01*
X-160D01*
Y165D01*
D02*
G37*
G36*
X-165Y137D02*
Y122D01*
X-150D01*
X-150Y125D01*
X-155Y132D01*
X-161Y136D01*
X-165Y137D01*
D02*
G37*
G36*
X-112D02*
Y122D01*
X-97D01*
X-97Y125D01*
X-102Y132D01*
X-108Y136D01*
X-112Y137D01*
D02*
G37*
G36*
X-122D02*
X-125Y136D01*
X-132Y132D01*
X-136Y125D01*
X-137Y122D01*
X-122D01*
Y137D01*
D02*
G37*
G36*
X-175D02*
X-178Y136D01*
X-185Y132D01*
X-190Y125D01*
X-190Y122D01*
X-175D01*
Y137D01*
D02*
G37*
G36*
X1606Y145D02*
X1560D01*
Y106D01*
X1563D01*
X1574Y108D01*
X1585Y112D01*
X1594Y119D01*
X1601Y128D01*
X1605Y139D01*
X1606Y145D01*
D02*
G37*
G36*
X1550D02*
X1504D01*
X1505Y139D01*
X1509Y128D01*
X1516Y119D01*
X1525Y112D01*
X1536Y108D01*
X1547Y106D01*
X1550D01*
Y145D01*
D02*
G37*
G36*
X945Y165D02*
X-18D01*
X-24Y164D01*
X-28Y161D01*
X-90Y99D01*
X-96Y99D01*
X-98Y99D01*
X-98Y99D01*
X-100Y104D01*
X-97Y109D01*
X-97Y112D01*
X-117D01*
X-137D01*
X-136Y109D01*
X-132Y103D01*
X-130Y101D01*
Y98D01*
X-130Y95D01*
X-134Y90D01*
X-135Y84D01*
X-134Y77D01*
X-130Y71D01*
X-128Y70D01*
Y64D01*
X-130Y63D01*
X-134Y57D01*
X-135Y50D01*
X-134Y43D01*
X-130Y38D01*
X-128Y36D01*
Y30D01*
X-130Y29D01*
X-134Y23D01*
X-134Y22D01*
X-134Y22D01*
X-134Y22D01*
X-135Y19D01*
X-135Y18D01*
X-139Y15D01*
X-141Y14D01*
X-141Y14D01*
X-141Y14D01*
X-141Y13D01*
X-148Y9D01*
X-153Y12D01*
X-152Y17D01*
X-153Y23D01*
X-157Y29D01*
X-159Y30D01*
Y36D01*
X-157Y38D01*
X-153Y43D01*
X-152Y50D01*
X-153Y57D01*
X-157Y63D01*
X-159Y64D01*
Y70D01*
X-157Y71D01*
X-153Y77D01*
X-152Y84D01*
X-153Y90D01*
X-156Y95D01*
X-157Y98D01*
Y101D01*
X-155Y103D01*
X-150Y109D01*
X-150Y112D01*
X-170D01*
Y117D01*
D01*
Y112D01*
X-190D01*
X-190Y109D01*
X-185Y103D01*
X-183Y101D01*
Y98D01*
X-183Y95D01*
X-187Y90D01*
X-188Y84D01*
X-187Y77D01*
X-183Y71D01*
X-181Y70D01*
Y64D01*
X-183Y63D01*
X-187Y57D01*
X-188Y50D01*
X-187Y43D01*
X-183Y38D01*
X-181Y36D01*
Y30D01*
X-183Y29D01*
X-187Y23D01*
X-188Y17D01*
X-187Y10D01*
X-183Y4D01*
X-181Y3D01*
Y-3D01*
X-183Y-4D01*
X-187Y-10D01*
X-188Y-17D01*
X-187Y-23D01*
X-183Y-29D01*
X-181Y-30D01*
X-180Y-34D01*
X-180Y-35D01*
X-181Y-36D01*
X-181Y-36D01*
X-181Y-37D01*
X-183Y-38D01*
X-184Y-39D01*
X-185Y-39D01*
X-189Y-40D01*
X-192Y-40D01*
X-192Y-40D01*
X-201D01*
X-205Y-41D01*
X-208Y-43D01*
X-234Y-69D01*
X-236Y-73D01*
X-237Y-77D01*
Y-201D01*
X-236Y-205D01*
X-234Y-208D01*
X-220Y-222D01*
X-217Y-224D01*
X-213Y-225D01*
X-71D01*
X-67Y-224D01*
X-63Y-222D01*
X-59Y-218D01*
X-59Y-218D01*
X-59Y-218D01*
X-59Y-218D01*
X-58Y-217D01*
X-58Y-217D01*
X-57Y-216D01*
X-57Y-216D01*
X-56Y-216D01*
X-56Y-216D01*
X-56Y-216D01*
X-56Y-216D01*
X-56Y-216D01*
X-56Y-216D01*
X-56Y-215D01*
X-55Y-215D01*
X-54Y-216D01*
X-48Y-215D01*
X-43Y-211D01*
X-40Y-206D01*
X-38Y-201D01*
X-40Y-195D01*
X-43Y-190D01*
X-48Y-187D01*
X-54Y-185D01*
X-59Y-187D01*
X-64Y-190D01*
X-68Y-195D01*
X-68Y-197D01*
X-68Y-197D01*
X-68Y-197D01*
X-68Y-197D01*
X-69Y-197D01*
X-69Y-198D01*
X-69Y-198D01*
X-69Y-198D01*
X-69Y-199D01*
X-71Y-200D01*
X-71Y-201D01*
X-72Y-202D01*
X-75Y-205D01*
X-208D01*
X-217Y-196D01*
Y-81D01*
X-196Y-60D01*
X-192D01*
X-192Y-61D01*
X-189Y-61D01*
X-187Y-61D01*
X-185Y-61D01*
X-184Y-61D01*
X-183Y-63D01*
X-181Y-64D01*
X-181Y-64D01*
X-181Y-64D01*
X-180Y-66D01*
X-180Y-66D01*
X-181Y-70D01*
X-183Y-71D01*
X-187Y-77D01*
X-188Y-84D01*
X-187Y-90D01*
X-183Y-95D01*
X-183Y-98D01*
Y-101D01*
X-185Y-103D01*
X-190Y-109D01*
X-190Y-112D01*
X-170D01*
X-150D01*
X-150Y-109D01*
X-155Y-103D01*
X-157Y-101D01*
Y-98D01*
X-156Y-95D01*
X-153Y-90D01*
X-152Y-84D01*
X-153Y-77D01*
X-157Y-71D01*
X-159Y-70D01*
Y-64D01*
X-157Y-63D01*
X-153Y-57D01*
X-152Y-50D01*
X-153Y-43D01*
X-157Y-38D01*
X-159Y-36D01*
Y-30D01*
X-157Y-29D01*
X-153Y-23D01*
X-153Y-22D01*
X-153Y-22D01*
X-153Y-22D01*
X-152Y-19D01*
X-151Y-18D01*
X-148Y-15D01*
X-146Y-14D01*
X-146Y-14D01*
X-146Y-14D01*
X-146Y-13D01*
X-138Y-9D01*
X-134Y-12D01*
X-135Y-17D01*
X-134Y-23D01*
X-130Y-29D01*
X-128Y-30D01*
Y-36D01*
X-130Y-38D01*
X-134Y-43D01*
X-135Y-50D01*
X-134Y-57D01*
X-130Y-63D01*
X-128Y-64D01*
Y-70D01*
X-130Y-71D01*
X-134Y-77D01*
X-135Y-84D01*
X-134Y-90D01*
X-130Y-95D01*
X-130Y-98D01*
Y-101D01*
X-132Y-103D01*
X-136Y-109D01*
X-137Y-112D01*
X-117D01*
X-97D01*
X-97Y-109D01*
X-102Y-103D01*
X-104Y-101D01*
Y-98D01*
X-103Y-95D01*
X-100Y-90D01*
X-99Y-84D01*
X-100Y-77D01*
X-104Y-71D01*
X-106Y-70D01*
Y-64D01*
X-104Y-63D01*
X-100Y-57D01*
X-99Y-50D01*
X-100Y-43D01*
X-104Y-38D01*
X-106Y-36D01*
Y-30D01*
X-104Y-29D01*
X-100Y-23D01*
X-99Y-17D01*
X-100Y-10D01*
X-104Y-4D01*
X-106Y-3D01*
Y3D01*
X-104Y4D01*
X-100Y10D01*
X-99Y17D01*
X-100Y23D01*
X-104Y29D01*
X-106Y30D01*
Y36D01*
X-104Y38D01*
X-100Y43D01*
X-99Y50D01*
X-100Y57D01*
X-104Y63D01*
X-102Y68D01*
X-93Y68D01*
X-89Y68D01*
X-89Y68D01*
X-84D01*
X-78Y70D01*
X-73Y73D01*
X-11Y135D01*
X945D01*
X951Y136D01*
X956Y139D01*
X959Y144D01*
X960Y150D01*
X959Y156D01*
X956Y161D01*
X951Y164D01*
X945Y165D01*
D02*
G37*
G36*
X603Y103D02*
X597Y102D01*
X593Y99D01*
X592Y99D01*
X592Y99D01*
X592Y99D01*
X592Y99D01*
X592Y98D01*
X592Y98D01*
X592Y98D01*
X591Y98D01*
X591Y98D01*
X590Y98D01*
X589Y98D01*
X588Y98D01*
X587Y98D01*
X421D01*
X417Y97D01*
X414Y95D01*
X354Y35D01*
X352Y31D01*
X351Y27D01*
Y-128D01*
X351Y-128D01*
X351Y-130D01*
X350Y-131D01*
X350Y-131D01*
X350Y-132D01*
X350Y-132D01*
X350Y-132D01*
X350Y-132D01*
X350Y-132D01*
X350Y-133D01*
X350Y-133D01*
X350Y-133D01*
X350Y-133D01*
X347Y-137D01*
X346Y-143D01*
X347Y-149D01*
X350Y-154D01*
X355Y-157D01*
X361Y-159D01*
X367Y-157D01*
X372Y-154D01*
X375Y-149D01*
X376Y-143D01*
X375Y-137D01*
X372Y-133D01*
X372Y-133D01*
X372Y-133D01*
X372Y-133D01*
X372Y-132D01*
X372Y-132D01*
X372Y-132D01*
X372Y-132D01*
X372Y-132D01*
X372Y-131D01*
X372Y-131D01*
X371Y-129D01*
X371Y-128D01*
X371Y-128D01*
Y23D01*
X425Y77D01*
X587D01*
X588Y77D01*
X590Y77D01*
X590Y77D01*
X591Y77D01*
X591Y77D01*
X592Y77D01*
X592Y77D01*
X592Y77D01*
X592Y76D01*
X592Y76D01*
X592Y76D01*
X592Y76D01*
X593Y76D01*
X597Y73D01*
X603Y72D01*
X609Y73D01*
X614Y77D01*
X617Y82D01*
X618Y88D01*
X617Y93D01*
X614Y98D01*
X609Y102D01*
X603Y103D01*
D02*
G37*
G36*
X1563Y91D02*
X1547D01*
X1537Y89D01*
X1527Y85D01*
X1518Y79D01*
X1512Y70D01*
X1508Y61D01*
X1506Y50D01*
X1508Y39D01*
X1512Y30D01*
X1518Y21D01*
X1527Y15D01*
X1537Y11D01*
X1547Y9D01*
X1563D01*
X1573Y11D01*
X1583Y15D01*
X1592Y21D01*
X1598Y30D01*
X1602Y39D01*
X1604Y50D01*
X1602Y61D01*
X1598Y70D01*
X1592Y79D01*
X1583Y85D01*
X1573Y89D01*
X1563Y91D01*
D02*
G37*
G36*
X104Y82D02*
X98Y81D01*
X93Y77D01*
X90Y72D01*
X89Y67D01*
X89Y67D01*
X89Y67D01*
X89Y67D01*
X89Y67D01*
X89Y67D01*
X89Y66D01*
X88Y66D01*
X88Y66D01*
X88Y65D01*
X87Y64D01*
X86Y64D01*
X86Y63D01*
X78Y55D01*
X75Y51D01*
X75Y47D01*
Y-22D01*
X74Y-23D01*
X74Y-25D01*
X74Y-25D01*
X74Y-26D01*
X74Y-26D01*
X74Y-27D01*
X74Y-27D01*
X74Y-27D01*
X74Y-27D01*
X74Y-27D01*
X74Y-27D01*
X74Y-27D01*
X71Y-32D01*
X70Y-37D01*
X71Y-43D01*
X74Y-48D01*
X79Y-51D01*
X85Y-53D01*
X91Y-51D01*
X95Y-48D01*
X99Y-43D01*
X100Y-37D01*
X99Y-32D01*
X96Y-27D01*
X96Y-27D01*
X96Y-27D01*
X96Y-27D01*
X96Y-27D01*
X96Y-27D01*
X96Y-27D01*
X95Y-26D01*
X95Y-26D01*
X95Y-25D01*
X95Y-24D01*
X95Y-23D01*
X95Y-22D01*
Y43D01*
X100Y49D01*
X101Y49D01*
X102Y50D01*
X103Y51D01*
X103Y51D01*
X104Y51D01*
X104Y51D01*
X104Y51D01*
X104Y51D01*
X104Y51D01*
X104Y51D01*
X104Y51D01*
X105Y52D01*
X110Y53D01*
X115Y56D01*
X118Y61D01*
X119Y67D01*
X118Y72D01*
X115Y77D01*
X110Y81D01*
X104Y82D01*
D02*
G37*
G36*
X1563Y-9D02*
X1547D01*
X1537Y-11D01*
X1527Y-15D01*
X1518Y-21D01*
X1512Y-30D01*
X1508Y-39D01*
X1506Y-50D01*
X1508Y-61D01*
X1512Y-70D01*
X1518Y-79D01*
X1527Y-85D01*
X1537Y-89D01*
X1547Y-91D01*
X1563D01*
X1573Y-89D01*
X1583Y-85D01*
X1592Y-79D01*
X1598Y-70D01*
X1602Y-61D01*
X1604Y-50D01*
X1602Y-39D01*
X1598Y-30D01*
X1592Y-21D01*
X1583Y-15D01*
X1573Y-11D01*
X1563Y-9D01*
D02*
G37*
G36*
X-150Y-122D02*
X-165D01*
Y-137D01*
X-161Y-136D01*
X-155Y-132D01*
X-150Y-125D01*
X-150Y-122D01*
D02*
G37*
G36*
X-97D02*
X-112D01*
Y-137D01*
X-108Y-136D01*
X-102Y-132D01*
X-97Y-125D01*
X-97Y-122D01*
D02*
G37*
G36*
X-122D02*
X-137D01*
X-136Y-125D01*
X-132Y-132D01*
X-125Y-136D01*
X-122Y-137D01*
Y-122D01*
D02*
G37*
G36*
X-175D02*
X-190D01*
X-190Y-125D01*
X-185Y-132D01*
X-178Y-136D01*
X-175Y-137D01*
Y-122D01*
D02*
G37*
G36*
X1090Y-111D02*
X1083Y-112D01*
X1076Y-115D01*
X1070Y-120D01*
X1065Y-126D01*
X1062Y-132D01*
X1061Y-140D01*
X1062Y-147D01*
X1065Y-154D01*
X1070Y-160D01*
X1076Y-165D01*
X1083Y-168D01*
X1090Y-169D01*
X1097Y-168D01*
X1104Y-165D01*
X1110Y-160D01*
X1115Y-154D01*
X1118Y-147D01*
X1119Y-140D01*
X1118Y-132D01*
X1115Y-126D01*
X1110Y-120D01*
X1104Y-115D01*
X1097Y-112D01*
X1090Y-111D01*
D02*
G37*
G36*
X961D02*
X953Y-112D01*
X946Y-115D01*
X940Y-120D01*
X936Y-126D01*
X933Y-132D01*
X932Y-140D01*
X933Y-147D01*
X936Y-154D01*
X940Y-160D01*
X946Y-165D01*
X953Y-168D01*
X961Y-169D01*
X968Y-168D01*
X975Y-165D01*
X981Y-160D01*
X986Y-154D01*
X988Y-147D01*
X989Y-140D01*
X988Y-132D01*
X986Y-126D01*
X981Y-120D01*
X975Y-115D01*
X968Y-112D01*
X961Y-111D01*
D02*
G37*
G36*
X1563Y-109D02*
X1547D01*
X1537Y-111D01*
X1527Y-115D01*
X1518Y-121D01*
X1512Y-130D01*
X1508Y-139D01*
X1506Y-150D01*
X1508Y-161D01*
X1512Y-170D01*
X1518Y-179D01*
X1527Y-185D01*
X1537Y-189D01*
X1547Y-191D01*
X1563D01*
X1573Y-189D01*
X1583Y-185D01*
X1592Y-179D01*
X1598Y-170D01*
X1602Y-161D01*
X1604Y-150D01*
X1602Y-139D01*
X1598Y-130D01*
X1592Y-121D01*
X1583Y-115D01*
X1573Y-111D01*
X1563Y-109D01*
D02*
G37*
G36*
X-126Y-147D02*
X-185D01*
X-194Y-149D01*
X-201Y-154D01*
X-206Y-161D01*
X-208Y-170D01*
X-206Y-179D01*
X-201Y-187D01*
X-194Y-192D01*
X-185Y-193D01*
X-126D01*
X-117Y-192D01*
X-109Y-187D01*
X-104Y-179D01*
X-103Y-170D01*
X-104Y-161D01*
X-109Y-154D01*
X-117Y-149D01*
X-126Y-147D01*
D02*
G37*
G36*
X-273D02*
X-304D01*
X-313Y-149D01*
X-321Y-154D01*
X-326Y-161D01*
X-327Y-170D01*
X-326Y-179D01*
X-321Y-187D01*
X-313Y-192D01*
X-304Y-193D01*
X-273D01*
X-264Y-192D01*
X-256Y-187D01*
X-251Y-179D01*
X-250Y-170D01*
X-251Y-161D01*
X-256Y-154D01*
X-264Y-149D01*
X-273Y-147D01*
D02*
G37*
G36*
X893Y-209D02*
Y-235D01*
X919D01*
X919Y-232D01*
X916Y-224D01*
X911Y-217D01*
X904Y-212D01*
X896Y-209D01*
X893Y-209D01*
D02*
G37*
G36*
X883D02*
X880Y-209D01*
X872Y-212D01*
X865Y-217D01*
X860Y-224D01*
X857Y-232D01*
X857Y-235D01*
X883D01*
Y-209D01*
D02*
G37*
G36*
X1267Y-53D02*
X1261Y-54D01*
X1256Y-57D01*
X1091Y-222D01*
X1062D01*
X1056Y-223D01*
X1052Y-227D01*
X1048Y-232D01*
X1047Y-238D01*
X1048Y-243D01*
X1052Y-248D01*
X1056Y-252D01*
X1062Y-253D01*
X1097D01*
X1103Y-252D01*
X1108Y-248D01*
X1278Y-79D01*
X1281Y-74D01*
X1282Y-68D01*
X1281Y-62D01*
X1278Y-57D01*
X1273Y-54D01*
X1267Y-53D01*
D02*
G37*
G36*
X89Y-243D02*
Y-265D01*
X111D01*
X111Y-263D01*
X108Y-256D01*
X104Y-250D01*
X98Y-246D01*
X91Y-243D01*
X89Y-243D01*
D02*
G37*
G36*
X389D02*
Y-265D01*
X411D01*
X411Y-263D01*
X408Y-256D01*
X404Y-250D01*
X398Y-246D01*
X391Y-243D01*
X389Y-243D01*
D02*
G37*
G36*
X79D02*
X77Y-243D01*
X70Y-246D01*
X64Y-250D01*
X60Y-256D01*
X57Y-263D01*
X57Y-265D01*
X79D01*
Y-243D01*
D02*
G37*
G36*
X919Y-245D02*
X893D01*
Y-271D01*
X896Y-271D01*
X904Y-268D01*
X911Y-263D01*
X916Y-256D01*
X919Y-248D01*
X919Y-245D01*
D02*
G37*
G36*
X883D02*
X857D01*
X857Y-248D01*
X860Y-256D01*
X865Y-263D01*
X872Y-268D01*
X880Y-271D01*
X883Y-271D01*
Y-245D01*
D02*
G37*
G36*
X111Y-275D02*
X89D01*
Y-297D01*
X91Y-297D01*
X98Y-294D01*
X104Y-290D01*
X108Y-284D01*
X111Y-277D01*
X111Y-275D01*
D02*
G37*
G36*
X411D02*
X389D01*
Y-297D01*
X391Y-297D01*
X398Y-294D01*
X404Y-290D01*
X408Y-284D01*
X411Y-277D01*
X411Y-275D01*
D02*
G37*
G36*
X125Y22D02*
X119Y20D01*
X114Y17D01*
X111Y12D01*
X110Y7D01*
X111Y1D01*
X114Y-4D01*
X119Y-7D01*
X124Y-8D01*
X124Y-9D01*
X125Y-9D01*
X125Y-9D01*
X125Y-9D01*
X125Y-9D01*
X125Y-9D01*
X125Y-9D01*
X126Y-9D01*
X126Y-9D01*
X127Y-10D01*
X128Y-11D01*
X128Y-11D01*
X170Y-53D01*
Y-133D01*
X171Y-137D01*
X173Y-140D01*
X195Y-162D01*
X198Y-164D01*
X202Y-165D01*
X282D01*
X312Y-195D01*
Y-304D01*
X306Y-310D01*
X306Y-310D01*
X305Y-312D01*
X304Y-312D01*
X304Y-312D01*
X303Y-313D01*
X303Y-313D01*
X303Y-313D01*
X303Y-313D01*
X303Y-313D01*
X303Y-313D01*
X302Y-313D01*
X302Y-313D01*
X297Y-314D01*
X292Y-317D01*
X289Y-322D01*
X288Y-328D01*
X289Y-333D01*
X286Y-338D01*
X273D01*
X268Y-332D01*
X268Y-332D01*
X266Y-331D01*
X266Y-330D01*
X266Y-330D01*
X265Y-329D01*
X265Y-329D01*
X265Y-329D01*
X265Y-329D01*
X265Y-329D01*
X265Y-329D01*
X265Y-328D01*
X265Y-328D01*
X264Y-323D01*
X261Y-318D01*
X256Y-315D01*
X250Y-314D01*
X244Y-315D01*
X239Y-318D01*
X236Y-323D01*
X235Y-329D01*
X236Y-335D01*
X239Y-340D01*
X244Y-343D01*
X249Y-344D01*
X249Y-344D01*
X250Y-344D01*
X250Y-344D01*
X250Y-344D01*
X250Y-344D01*
X250Y-344D01*
X250Y-344D01*
X251Y-345D01*
X251Y-345D01*
X252Y-346D01*
X253Y-347D01*
X253Y-347D01*
X262Y-355D01*
X265Y-357D01*
X269Y-358D01*
X315D01*
X319Y-357D01*
X322Y-355D01*
X348Y-329D01*
X350Y-326D01*
X351Y-322D01*
Y-271D01*
X356Y-271D01*
X357Y-277D01*
X360Y-284D01*
X364Y-290D01*
X370Y-294D01*
X377Y-297D01*
X379Y-297D01*
Y-270D01*
Y-243D01*
X377Y-243D01*
X370Y-246D01*
X364Y-250D01*
X360Y-256D01*
X357Y-263D01*
X356Y-269D01*
X351Y-269D01*
Y-188D01*
X350Y-184D01*
X348Y-181D01*
X295Y-128D01*
X292Y-126D01*
X288Y-125D01*
X267D01*
X267Y-125D01*
X265Y-125D01*
X264Y-124D01*
X264Y-124D01*
X263Y-124D01*
X263Y-124D01*
X263Y-124D01*
X263Y-124D01*
X263Y-124D01*
X263Y-124D01*
X263Y-124D01*
X263Y-124D01*
X262Y-124D01*
X258Y-121D01*
X252Y-120D01*
X246Y-121D01*
X241Y-124D01*
X238Y-129D01*
X237Y-135D01*
X238Y-140D01*
X235Y-145D01*
X207D01*
X190Y-128D01*
Y-49D01*
X189Y-45D01*
X187Y-41D01*
X143Y3D01*
X143Y4D01*
X141Y5D01*
X141Y5D01*
X141Y6D01*
X140Y6D01*
X140Y6D01*
X140Y7D01*
X140Y7D01*
X140Y7D01*
X140Y7D01*
X140Y7D01*
X140Y7D01*
X139Y12D01*
X136Y17D01*
X131Y20D01*
X125Y22D01*
D02*
G37*
G36*
X79Y-275D02*
X57D01*
X57Y-277D01*
X60Y-284D01*
X64Y-290D01*
X70Y-294D01*
X77Y-297D01*
X79Y-297D01*
Y-275D01*
D02*
G37*
G36*
X1510Y-230D02*
X1440D01*
Y-300D01*
X1510D01*
Y-230D01*
D02*
G37*
G36*
X1575Y-230D02*
X1566Y-231D01*
X1558Y-235D01*
X1550Y-240D01*
X1545Y-248D01*
X1541Y-256D01*
X1540Y-265D01*
X1541Y-274D01*
X1545Y-282D01*
X1550Y-290D01*
X1558Y-295D01*
X1566Y-299D01*
X1575Y-300D01*
X1584Y-299D01*
X1592Y-295D01*
X1600Y-290D01*
X1605Y-282D01*
X1609Y-274D01*
X1610Y-265D01*
X1609Y-256D01*
X1605Y-248D01*
X1600Y-240D01*
X1592Y-235D01*
X1584Y-231D01*
X1575Y-230D01*
D02*
G37*
G36*
X430Y50D02*
X424Y49D01*
X419Y46D01*
X416Y41D01*
X415Y35D01*
Y-22D01*
X416Y-28D01*
X419Y-33D01*
X557Y-171D01*
Y-335D01*
X558Y-337D01*
X557Y-339D01*
X559Y-345D01*
X562Y-350D01*
X567Y-353D01*
X573Y-355D01*
X579Y-353D01*
X584Y-350D01*
X587Y-345D01*
X588Y-339D01*
X588Y-337D01*
X588Y-335D01*
Y-165D01*
X587Y-159D01*
X584Y-154D01*
X445Y-16D01*
Y35D01*
X444Y41D01*
X441Y46D01*
X436Y49D01*
X430Y50D01*
D02*
G37*
%LPD*%
G36*
X-112Y95D02*
X-111Y95D01*
X-109Y95D01*
X-105Y94D01*
X-97Y94D01*
X-89Y94D01*
Y74D01*
X-93Y74D01*
X-111Y73D01*
X-112Y72D01*
X-113Y72D01*
Y95D01*
X-112Y95D01*
D02*
G37*
G36*
X-117Y5D02*
X-119Y5D01*
X-120Y5D01*
X-122Y5D01*
X-123Y4D01*
X-125Y4D01*
X-126Y4D01*
X-128Y3D01*
X-129Y3D01*
X-131Y2D01*
X-132Y1D01*
X-138Y9D01*
X-136Y11D01*
X-132Y14D01*
X-131Y15D01*
X-129Y16D01*
X-129Y17D01*
X-128Y18D01*
X-128Y19D01*
X-128Y20D01*
X-129Y21D01*
X-117Y5D01*
D02*
G37*
G36*
X-149Y-9D02*
X-151Y-11D01*
X-155Y-14D01*
X-156Y-15D01*
X-157Y-16D01*
X-158Y-17D01*
X-158Y-18D01*
X-159Y-19D01*
X-159Y-20D01*
X-158Y-21D01*
X-169Y-5D01*
X-168Y-5D01*
X-166Y-5D01*
X-165Y-5D01*
X-163Y-4D01*
X-162Y-4D01*
X-160Y-4D01*
X-159Y-3D01*
X-157Y-3D01*
X-156Y-2D01*
X-154Y-1D01*
X-149Y-9D01*
D02*
G37*
G36*
X-177Y-60D02*
X-177Y-59D01*
X-178Y-58D01*
X-179Y-58D01*
X-180Y-57D01*
X-181Y-56D01*
X-182Y-56D01*
X-184Y-56D01*
X-186Y-55D01*
X-189Y-55D01*
X-192Y-55D01*
Y-45D01*
X-189Y-45D01*
X-184Y-45D01*
X-182Y-44D01*
X-181Y-44D01*
X-180Y-43D01*
X-179Y-43D01*
X-178Y-42D01*
X-177Y-41D01*
X-177Y-40D01*
Y-60D01*
D02*
G37*
G36*
X-56Y-210D02*
X-56Y-210D01*
X-57Y-210D01*
X-57Y-210D01*
X-58Y-211D01*
X-59Y-211D01*
X-59Y-211D01*
X-60Y-212D01*
X-61Y-212D01*
X-61Y-213D01*
X-62Y-214D01*
X-68Y-205D01*
X-67Y-204D01*
X-65Y-202D01*
X-65Y-201D01*
X-64Y-200D01*
X-64Y-200D01*
X-63Y-199D01*
X-63Y-199D01*
X-56Y-210D01*
D02*
G37*
G36*
X596Y81D02*
X595Y81D01*
X595Y81D01*
X594Y82D01*
X593Y82D01*
X593Y82D01*
X592Y82D01*
X591Y82D01*
X590Y82D01*
X588Y83D01*
Y93D01*
X589Y93D01*
X591Y93D01*
X592Y93D01*
X593Y93D01*
X593Y93D01*
X594Y93D01*
X595Y94D01*
X595Y94D01*
X596Y95D01*
Y81D01*
D02*
G37*
G36*
X366Y-130D02*
X366Y-132D01*
X366Y-132D01*
X366Y-133D01*
X367Y-134D01*
X367Y-135D01*
X367Y-135D01*
X368Y-136D01*
X368Y-136D01*
X354D01*
X354Y-136D01*
X355Y-135D01*
X355Y-135D01*
X355Y-134D01*
X356Y-133D01*
X356Y-132D01*
X356Y-132D01*
X356Y-131D01*
X356Y-129D01*
X366D01*
X366Y-130D01*
D02*
G37*
G36*
X104Y57D02*
X103Y57D01*
X103Y57D01*
X102Y56D01*
X101Y56D01*
X101Y56D01*
X100Y55D01*
X99Y55D01*
X99Y54D01*
X97Y53D01*
X90Y60D01*
X91Y61D01*
X92Y62D01*
X93Y63D01*
X93Y63D01*
X93Y64D01*
X94Y65D01*
X94Y65D01*
X94Y66D01*
X94Y66D01*
X104Y57D01*
D02*
G37*
G36*
X90Y-24D02*
X90Y-26D01*
X90Y-27D01*
X90Y-28D01*
X90Y-28D01*
X91Y-29D01*
X91Y-29D01*
X91Y-30D01*
X92Y-30D01*
X78D01*
X78Y-30D01*
X79Y-29D01*
X79Y-29D01*
X79Y-28D01*
X79Y-28D01*
X79Y-27D01*
X80Y-26D01*
X80Y-25D01*
X80Y-23D01*
X90D01*
X90Y-24D01*
D02*
G37*
G36*
X135Y6D02*
X135Y5D01*
X135Y5D01*
X135Y4D01*
X136Y3D01*
X136Y3D01*
X137Y2D01*
X137Y1D01*
X139Y-0D01*
X132Y-7D01*
X131Y-6D01*
X129Y-5D01*
X129Y-5D01*
X128Y-4D01*
X127Y-4D01*
X127Y-4D01*
X126Y-3D01*
X126Y-3D01*
X125Y-3D01*
X135Y6D01*
X135Y6D01*
D02*
G37*
G36*
X260Y-128D02*
X260Y-129D01*
X261Y-129D01*
X261Y-129D01*
X262Y-130D01*
X263Y-130D01*
X264Y-130D01*
X265Y-130D01*
X267Y-130D01*
Y-140D01*
X266Y-140D01*
X264Y-140D01*
X263Y-140D01*
X262Y-140D01*
X261Y-141D01*
X261Y-141D01*
X260Y-141D01*
X260Y-142D01*
X259Y-142D01*
Y-128D01*
X260Y-128D01*
D02*
G37*
G36*
X317Y-321D02*
X316Y-322D01*
X315Y-324D01*
X314Y-324D01*
X314Y-325D01*
X313Y-326D01*
X313Y-326D01*
X313Y-327D01*
X313Y-327D01*
X313Y-328D01*
X303Y-318D01*
X304Y-318D01*
X304Y-318D01*
X305Y-318D01*
X305Y-318D01*
X306Y-317D01*
X307Y-317D01*
X307Y-316D01*
X308Y-316D01*
X310Y-314D01*
X317Y-321D01*
D02*
G37*
G36*
X260Y-330D02*
X260Y-330D01*
X260Y-331D01*
X260Y-331D01*
X261Y-332D01*
X261Y-333D01*
X262Y-333D01*
X262Y-334D01*
X264Y-336D01*
X257Y-343D01*
X256Y-342D01*
X254Y-341D01*
X254Y-340D01*
X253Y-340D01*
X252Y-339D01*
X252Y-339D01*
X251Y-339D01*
X251Y-339D01*
X250Y-339D01*
X260Y-329D01*
X260Y-330D01*
D02*
G37*
D12*
X125Y7D02*
X180Y-49D01*
Y-133D02*
Y-49D01*
Y-133D02*
X202Y-155D01*
X287D01*
X322Y-191D01*
Y-309D02*
Y-191D01*
X303Y-328D02*
X322Y-309D01*
X288Y-135D02*
X341Y-188D01*
Y-322D02*
Y-188D01*
X315Y-348D02*
X341Y-322D01*
X269Y-348D02*
X315D01*
X250Y-329D02*
X269Y-348D01*
X361Y-143D02*
Y27D01*
X421Y88D01*
X603D01*
X-213Y-215D02*
X-71D01*
X-56Y-201D01*
X-54D01*
X252Y-135D02*
X288D01*
X85Y-37D02*
Y47D01*
X104Y67D01*
X-227Y-201D02*
X-213Y-215D01*
X-227Y-201D02*
Y-77D01*
X-201Y-50D01*
X-170D01*
Y-17D02*
X-117Y17D01*
D38*
X84Y-270D02*
D03*
X384D02*
D03*
D49*
X-84Y84D02*
X-18Y150D01*
X-117Y84D02*
X-84D01*
X573Y-335D02*
Y-165D01*
X430Y-22D02*
X573Y-165D01*
X1062Y-238D02*
X1097D01*
X1267Y-68D01*
X915Y150D02*
X945D01*
X-18D02*
X915D01*
X430Y-22D02*
Y35D01*
D51*
X-288Y170D02*
D03*
Y-170D02*
D03*
D52*
X-155D02*
D03*
Y170D02*
D03*
D53*
X-170Y117D02*
D03*
Y84D02*
D03*
Y50D02*
D03*
Y17D02*
D03*
Y-17D02*
D03*
Y-50D02*
D03*
Y-84D02*
D03*
Y-117D02*
D03*
X-117D02*
D03*
Y-84D02*
D03*
Y-50D02*
D03*
Y-17D02*
D03*
Y17D02*
D03*
Y50D02*
D03*
Y84D02*
D03*
Y117D02*
D03*
D54*
X1475Y265D02*
D03*
Y-265D02*
D03*
D55*
X1575Y265D02*
D03*
Y-265D02*
D03*
D56*
X1555Y150D02*
D03*
Y50D02*
D03*
Y-50D02*
D03*
Y-150D02*
D03*
D57*
X888Y-240D02*
D03*
X1090Y-140D02*
D03*
X961D02*
D03*
D58*
X303Y-328D02*
D03*
X250Y-329D02*
D03*
X790Y-271D02*
D03*
X650Y-270D02*
D03*
X74Y-190D02*
D03*
Y-90D02*
D03*
X224D02*
D03*
X-95Y240D02*
D03*
X895Y120D02*
D03*
X680Y123D02*
D03*
X147Y202D02*
D03*
Y97D02*
D03*
X84Y98D02*
D03*
X304Y363D02*
D03*
X-54Y-201D02*
D03*
X89Y203D02*
D03*
X45Y240D02*
D03*
X-22Y85D02*
D03*
X-84Y-1D02*
D03*
X-17D02*
D03*
X85Y-37D02*
D03*
X104Y67D02*
D03*
X125Y7D02*
D03*
D59*
X361Y-143D02*
D03*
X465Y-135D02*
D03*
X573Y-339D02*
D03*
X1120Y-80D02*
D03*
X252Y-135D02*
D03*
X14Y-280D02*
D03*
X1062Y-238D02*
D03*
X1049Y-282D02*
D03*
X945Y150D02*
D03*
X430Y35D02*
D03*
X1195Y200D02*
D03*
X1290Y165D02*
D03*
X630Y105D02*
D03*
X895Y-90D02*
D03*
X603Y88D02*
D03*
X650Y-100D02*
D03*
X1010Y-70D02*
D03*
Y-140D02*
D03*
X915Y150D02*
D03*
X100Y310D02*
D03*
X550Y260D02*
D03*
X1386Y79D02*
D03*
X14Y-192D02*
D03*
X1387Y-14D02*
D03*
X1415Y-358D02*
D03*
X858Y200D02*
D03*
X800D02*
D03*
X681D02*
D03*
X210Y260D02*
D03*
X585Y1D02*
D03*
X895Y-5D02*
D03*
X975Y60D02*
D03*
X895Y50D02*
D03*
X790Y-100D02*
D03*
X224Y-362D02*
D03*
X124D02*
D03*
X372Y-342D02*
D03*
X985Y200D02*
D03*
X1110D02*
D03*
X1204Y110D02*
D03*
X1387Y-110D02*
D03*
X1076Y-188D02*
D03*
X1501Y-183D02*
D03*
X1220Y-264D02*
D03*
X1183Y-362D02*
D03*
X953Y-306D02*
D03*
X1267Y-68D02*
D03*
X1413Y-262D02*
D03*
X1196Y297D02*
D03*
M02*
