M48
;Layer_Color=9474304
;FILE_FORMAT=2:4
INCH
;TYPE=PLATED
T1F00S00C0.0100
T2F00S00C0.0118
T3F00S00C0.0158
T5F00S00C0.0276
T6F00S00C0.0354
T7F00S00C0.0433
%
T01
X014150Y-003580
X014130Y-002620
X015010Y-001830
X013870Y-001100
Y-000140
X013860Y000790
X012900Y001650
X012670Y-000680
X011200Y-000800
X010100Y-000700
Y-001400
X010760Y-001880
X010623Y-002376
X010490Y-002820
X009530Y-003060
X008950Y-000900
Y-000050
Y000500
X009750Y000600
X009450Y001500
X009150
X008580Y002000
X008000
X006810
X006300Y001050
X006027Y000875
X005850Y000010
X006500Y-001000
X007900
X004650Y-001350
X003610Y-001432
X002520Y-001350
X002243Y-003620
X001243
X000145Y-002804
Y-001924
X003720Y-003420
X005728Y-003393
X004300Y000350
X005500Y002600
X002100
X001000Y003100
X009850Y002000
X011100
X011950
X011960Y002970
X012040Y001100
X012200Y-002640
X011830Y-003620
T02
X-000536Y-002006
X000740Y-001900
Y-000900
X000847Y-000374
X001250Y000065
X001039Y000665
X000840Y000983
X001470Y000970
Y002020
X000888Y002030
X000447Y002398
X-000950Y002400
X-000223Y000850
X-000170Y-000010
X-000840
X002243Y-000900
X002500Y-003290
X003030Y-003280
X006500Y-002700
X007900Y-002710
X008950Y001200
X006800Y001230
X003040Y003630
T03
X-001699Y-001171
Y-000837
Y-000502
Y-000167
Y000167
Y000502
Y000837
Y001171
X-001168
Y000837
Y000502
Y000167
Y-000167
Y-000502
Y-000837
Y-001171
T05
X000840Y-002700
X003840
X008880Y-002400
X009605Y-001400
X010900
T06
X014750Y-002650
X015750
Y002650
X014750
T07
X015550Y-001500
Y-000500
Y000500
Y001500
M30
